<svg xmlns="http://www.w3.org/2000/svg" viewBox="0 0 64 64"><defs><style>.a{fill:#a48b29;}.b{opacity:0.45;}.c{fill:#a47129;}.d{fill:#992626;}.e{fill:#a42980;}.f{fill:#7129a4;}.g{fill:#2948a4;}.h{fill:#29a4a4;}.i{fill:#57a429;}</style></defs><title>logo</title><path class="a" d="M4.9,48.974c-1.53-1.342.752-2.823,2.059-2.823l.1-.191c.883-.046,1.78-.123,2.657-.244a4.171,4.171,0,0,0,.21-2.641A3.339,3.339,0,0,0,8.253,41.17a40.905,40.905,0,0,1-6.8.522A3.658,3.658,0,0,0,1,43.67a6.066,6.066,0,0,0,1.011,2.345c1.291.012,2.9.039,4.589-.033-1.477.148-2.6,1-2.6,2.059.121,3.506,5.388,2.422,3.522.542C7.25,48.3,6.061,49.989,4.9,48.974Z"/><path class="b" d="M11.658,45.015l.008-.008-.012,0Z"/><path class="b" d="M8.9,45.258a.666.666,0,0,0,.616.084c.007-.029.013-.059.02-.088l-.006,0-.145-.1.145-.1.042.028c.01-.048.019-.1.026-.145l-.068.068-.1-.1.1-.1L9.6,44.9a3.293,3.293,0,0,0-.165-1.675,2.508,2.508,0,0,0-.465-.734,2.326,2.326,0,0,1-.558-.039V42.4H1.826a6.5,6.5,0,0,0,.323,2.949.359.359,0,0,0,.157-.09.609.609,0,0,0,.727,0,.609.609,0,0,0,.727,0,.609.609,0,0,0,.727,0,.609.609,0,0,0,.727,0,.609.609,0,0,0,.727,0,.608.608,0,0,0,.726,0,.609.609,0,0,0,.727,0l-.145-.1.145-.1.145.1-.145.1a.609.609,0,0,0,.727,0l-.145-.1.145-.1.145.1-.145.1A.67.67,0,0,0,8.9,45.258Zm-.1-.436.1.1-.1.1-.1-.1Zm0,.242.146.1-.146.1-.145-.1Zm-6.3.194-.145-.1.145-.1-.1-.1.1-.1.1.1-.1.1.146.1Zm.679,0-.146-.1.146-.1-.1-.1.1-.1.1.1-.1.1.145.1Zm.726-.436.1.1-.1.1-.1-.1Zm0,.436-.145-.1.145-.1.146.1Zm.679-.436.1.1-.1.1-.1-.1Zm0,.436-.146-.1.146-.1.145.1Zm.727-.436.1.1-.1.1-.1-.1Zm0,.436-.146-.1.146-.1.145.1Zm.678-.436.1.1-.1.1-.1-.1Zm0,.436-.145-.1.145-.1.145.1Zm.727-.436.1.1-.1.1-.1-.1Zm0,.436-.146-.1.146-.1.145.1Zm.678-.243-.1-.1.1-.1.1.1Zm.727,0-.1-.1.1-.1.1.1Z"/><path class="b" d="M7.225,49.408c-.607.495-1.838.993-2.278.011A2.57,2.57,0,0,0,7.225,49.408Z"/><path class="c" d="M15.625,59.987c1.211,2.375,2.907,2.762,5.572,3.053v-.048C19.374,62.992,17.628,58.652,15.625,59.987Z"/><path class="c" d="M11.432,39.479c1.559,0-3.44-3.941-3.44-4.216H7.943C8.343,37.662,9.108,38.634,11.432,39.479Z"/><path class="c" d="M25.756,51.956c-5.634.664-1.823-3.441-1.823-2.5,1.1-.157-.309-2.467-2.118-1.28-1.523,1-1.878,2.679-.4,4.042,0-.5,3.3.529,3.634.533a4.385,4.385,0,0,0,4.458-4.313C28.484,49.227,28.009,51.691,25.756,51.956Z"/><path class="c" d="M25.094,34.294l0,0c-3.448,0-11.308-2.55-6.542-7.317,1.57,4.934,8-2.358,9.11,2.762,3.039-5.47-7.733-6.775-10.336-2.465-2.23,3.693.374,6,3.548,7.023h-10.8c.923.366,3.339,5.422,1.441,5.422,1.666,2.593,1.355,12.012-1.441,13.7,1.14-.3,6.926-1.907,7.144.569-.666,1.5-2.128,3.983-2.891,5.244-.576-.764-2.943-2.2-2.943-.742,0,.393,2.111.839,2.826.926-1.427,2.27-3.461,3.882-7.582,3.95-2.782.045-9.124-3.367-4.188-5.768,1.138-.553,3.215-.323,3.957.857,1.3,2.066-1.215,2.092-1.215,1.634-1.29.43.374,1.452.92,1.551,3.137.566,2.585-2.879,1.194-4.119-2.986-2.659-8.921.315-6.564,4.232,2.069,3.438,8.524,2.134,11.339.587A13.908,13.908,0,0,0,18.7,51.007c-.035.061-.068.122-.1.183a45.015,45.015,0,0,0-.021-4.72c3.8,0,8.388-.841,10.756,2V42.047H18.673V38.8c3.8,0,10.035-1.189,13.083,1.647V34.294Z"/><path class="b" d="M17,37.758h-.1L16.757,42.8h.291Zm11.483,7.947h0v0Zm0,.145-.1.1.1.1.1-.1Zm-.727-.145h0v0Zm0,.145-.1.1.1.1.1-.1Zm-.726-.145h0v0Zm-.679,0h0c-.164.055-.594.122-.727,0a.888.888,0,0,1-.726,0c-.15.119-.487.048-.679.048v-.048a.89.89,0,0,1-.727,0,.888.888,0,0,1-.726,0,.89.89,0,0,1-.727,0,.89.89,0,0,1-.727,0,.89.89,0,0,1-.727,0,.89.89,0,0,1-.727,0,.888.888,0,0,1-.726,0,.89.89,0,0,1-.727,0,.549.549,0,0,1-.533,0,.092.092,0,0,1-.1.048c0,.146.057.377-.049.485a.267.267,0,0,1-.048.387c.133.082.1.2.1.339l-.145.1.145.1c0,.237,0,.246-.194.388.3.224.215.37-.048.581.14.113.3.181.242.388a.7.7,0,0,0-.242.194.626.626,0,0,0,.242.194V49.1a.628.628,0,0,0-.242.243c.073.1.124.2.242.242a.244.244,0,0,0,0,.485v.145H17.63a.465.465,0,0,0,0,.484h.145v.1l-.194.049a1.042,1.042,0,0,0,0,.484h.194v.1h-.194a1.046,1.046,0,0,0,0,.485h.145V52h-.193v.484h.145v.1h-.145v.388c-.147-.1-.1-.282-.1-.436-.194,0-.433.056-.582-.1h.582v-.533h-.63v.581l-.1-.048v-.485h-.63v.291h-.1v-.291h-.63v.194h-.1v-.194h-.63v.194h-.1v-.194h-.485V52.2h-.1v-.242h-.63v.291h-.1v-.291h-.63v.388h-.1c0-.191.1-.362.1-.533v.1h.533a1.02,1.02,0,0,0,0-.485h-.387v-.1a1.639,1.639,0,0,0,.339-.048,1.046,1.046,0,0,0,0-.485l-.242-.048h0v-.1h0l.242-.048a.467.467,0,0,0,0-.485l-.242-.048h0c.4-.16.4-.421,0-.582v-.1a.67.67,0,0,0,.339-.291.672.672,0,0,0-.339-.29v-.1a.837.837,0,0,0,.339-.242.83.83,0,0,0-.339-.243c-.013-.16.177-.244.29-.339l-.29-.242h0l.242-.242-.242-.243h0l.242-.194c-.248-.2-.32-.232-.049-.436-.1-.072-.211-.109-.193-.242l.145-.1-.145-.1a.187.187,0,0,1,.1-.194c-.105-.061-.131-.158-.049-.242a.119.119,0,0,1,0-.194.118.118,0,0,1,0-.193c-.155-.161-.048-.723-.048-.93V37.38a4.458,4.458,0,0,0-.679-2.626h18.8v3.78a12.551,12.551,0,0,0-5.7-.824H17.678V42.6h10.9v3.585l-.145-.1-.146.1.146.1.145-.1v.291l-.145-.1-.049.048a3.4,3.4,0,0,0-1.356-.581,3.319,3.319,0,0,0-.679-.1h0Zm2.132-.146h0v0Zm-.727,0h0v0Zm-.726,0h0v0Zm-.679,0h0v0Zm-.727,0h0v0Zm-.678,0h0v0Zm-.727,0h0v0Zm-.678,0h0v0Zm-.727,0h0v0Zm-.727,0h0v0Zm6.4-.193h0v0Zm-.727,0h0v0Zm-.678,0h0v0Zm-.727,0h0v0Zm-.678,0h0v0Zm-.727,0h0v0Zm-.727,0h0v0Zm-.678,0h0v0Zm-.727,0h0v0Zm-.678,0h0v0Zm-4.943.339h0v0Zm0,.145-.1.1.1.1.1-.1Zm0,.242-.145.1.145.1.146-.1Zm0,.291L17,46.528l.193.146.194-.146Zm0,.388-.242.193.242.194.243-.194Zm0,.436-.242.242.242.242.291-.242Zm0,.533-.29.242.29.242.291-.242Zm0,.581a.837.837,0,0,0-.339.242.384.384,0,0,0,.679,0A.833.833,0,0,0,17.193,48.321Zm0,.63a.678.678,0,0,0-.339.291c.249.332.43.332.679,0A.677.677,0,0,0,17.193,48.951Zm0,.582c-.13.052-.339.1-.339.29,0,.143.208.291.339.291a.369.369,0,0,0,.332-.276C17.541,49.646,17.333,49.588,17.193,49.533Zm0,.581-.242.048a.469.469,0,0,0,0,.485,1.046,1.046,0,0,0,.485,0,.469.469,0,0,0,0-.485Zm0,.63-.242.048a1.046,1.046,0,0,0,0,.485,1.311,1.311,0,0,0,.533,0,1.046,1.046,0,0,0,0-.485Zm.243.581H16.9a1.046,1.046,0,0,0,0,.485h.533A1.046,1.046,0,0,0,17.436,51.325Zm-.969-5.62h0v0Zm0,.145-.1.1.1.1.1-.1Zm0,.242-.146.1.146.1.145-.1Zm0,.291-.194.145.194.146.193-.146Zm0,.388-.243.193.243.194.242-.194Zm0,.436-.243.242.243.242.29-.242Zm0,.533-.291.242.291.242.29-.242Zm0,.581a.84.84,0,0,0-.34.242.384.384,0,0,0,.679,0A.837.837,0,0,0,16.467,48.321Zm0,.63a.681.681,0,0,0-.34.291c.249.332.43.332.679,0A.674.674,0,0,0,16.467,48.951Zm0,.582c-.135.054-.317.095-.332.275s.178.272.332.258a.365.365,0,0,0,.324-.261C16.821,49.589,16.629,49.565,16.467,49.533Zm0,.581-.243.048a.469.469,0,0,0,0,.485,1.046,1.046,0,0,0,.485,0,.467.467,0,0,0,0-.485Zm0,.63-.243.048a1.046,1.046,0,0,0,0,.485,1.311,1.311,0,0,0,.533,0,1.02,1.02,0,0,0,0-.485Zm.29.581h-.533a1.046,1.046,0,0,0,0,.485h.533A1.02,1.02,0,0,0,16.757,51.325Zm-1.017-5.62h0v0Zm0,.145-.1.1.1.1.1-.1Zm0,.242-.146.1.146.1.145-.1Zm0,.291-.194.145.194.146.145-.146Zm0,.388-.242.193.242.194.242-.194Zm0,.436-.242.242.242.242.291-.242Zm0,.533-.291.242.291.242.291-.242Zm0,.581a.83.83,0,0,0-.339.242.383.383,0,0,0,.678,0A.837.837,0,0,0,15.74,48.321Zm0,.582a.672.672,0,0,0-.339.29c.249.332.429.332.678,0A.672.672,0,0,0,15.74,48.9Zm0,.63c-.269.107-.513.435-.085.547.369.1.435-.23.327-.5Zm0,.581-.242.048a.467.467,0,0,0,0,.485,1.042,1.042,0,0,0,.484,0,.467.467,0,0,0,0-.485Zm0,.63-.242.048a1.02,1.02,0,0,0,0,.485,1.311,1.311,0,0,0,.533,0,1.046,1.046,0,0,0,0-.485Zm.291.581H15.5a1.02,1.02,0,0,0,0,.485h.533A1.046,1.046,0,0,0,16.031,51.325Zm-.969-5.62h0v0Zm0,.145-.1.1.1.1.1-.1Zm0,.242-.146.1.146.1.145-.1Zm0,.291-.194.145.194.146.193-.146Zm0,.388-.243.193.243.194.242-.194Zm0,.436-.243.242.243.242.29-.242Zm0,.533-.291.242.291.242.29-.242Zm0,.581a.833.833,0,0,0-.34.242.384.384,0,0,0,.679,0A.837.837,0,0,0,15.062,48.321Zm0,.582a.675.675,0,0,0-.34.29c.249.332.43.332.679,0A.677.677,0,0,0,15.062,48.9Zm0,.63c-.131.052-.34.1-.34.29,0,.143.208.291.34.291a.369.369,0,0,0,.331-.276C15.409,49.646,15.2,49.588,15.062,49.533Zm0,.581-.243.048a.469.469,0,0,0,0,.485,1.046,1.046,0,0,0,.485,0,.469.469,0,0,0,0-.485Zm0,.581-.243.049a1.042,1.042,0,0,0,0,.484,1.277,1.277,0,0,0,.533,0,1.042,1.042,0,0,0,0-.484Zm.242.63h-.533a1.046,1.046,0,0,0,0,.485H15.3A1.046,1.046,0,0,0,15.3,51.325Zm6.1-5.766h0v0Zm-.678,0h0v0Zm-.727,0h0v0Zm-.679,0h0v0Zm-.726,0h0v0Zm-.727,0h0v0Zm-.679,0h0v0Zm-.726,0h0v0Zm-.679,0h0v0Zm-.726,0h0v0Zm6.347-.193h0v0Zm-.678,0h0v0Zm-.727,0h0v0Zm-.679,0h0v0Zm-.726,0h0v0Zm-.679,0h0v0Zm-.727,0h0v0Zm-.726,0h0v0Zm-.679,0h0v0Zm-.726,0h0v0Zm-.679.339h0v0Zm0,.145-.1.1.1.1.1-.1Zm0,.242-.145.1.145.1.146-.1Zm0,.291-.194.145.194.146.194-.146Zm0,.388-.242.193.242.194.242-.194Zm0,.436-.242.242.242.242.291-.242Zm0,.533-.291.242.291.242.291-.242Zm0,.581a.837.837,0,0,0-.339.242.383.383,0,0,0,.678,0A.83.83,0,0,0,14.383,48.321Zm0,.582a.672.672,0,0,0-.339.29c.249.332.429.332.678,0A.672.672,0,0,0,14.383,48.9Zm0,.63c-.13.052-.339.1-.339.29,0,.143.208.291.339.291a.371.371,0,0,0,.332-.276C14.73,49.646,14.523,49.588,14.383,49.533Zm0,.581-.242.048a.467.467,0,0,0,0,.485,1.042,1.042,0,0,0,.484,0,.467.467,0,0,0,0-.485Zm0,.581-.242.049a1.042,1.042,0,0,0,0,.484,1.277,1.277,0,0,0,.533,0,1.042,1.042,0,0,0,0-.484Zm.242.63h-.533a1.046,1.046,0,0,0,0,.485h.485A2.32,2.32,0,0,0,14.625,51.325Zm-.969-5.62h0v0Zm0,.145-.1.1.1.1.1-.1Zm0,.242-.1.1.146.1.145-.1Zm0,.291-.193.145.193.146.194-.146Zm0,.339-.242.194.242.194.243-.194Zm0,.485-.242.242.242.242.291-.242Zm0,.484-.29.243.29.242.291-.242Zm0,.63a.837.837,0,0,0-.339.242.384.384,0,0,0,.679,0A.84.84,0,0,0,13.656,48.321Zm0,.582a.672.672,0,0,0-.339.29c.249.332.43.332.679,0A.679.679,0,0,0,13.656,48.9Zm0,.63c-.13.052-.339.1-.339.29,0,.143.208.291.339.291a.369.369,0,0,0,.332-.276C14,49.646,13.8,49.588,13.656,49.533Zm0,.581-.242.048a.467.467,0,0,0,0,.485,1.046,1.046,0,0,0,.485,0,.469.469,0,0,0,0-.485Zm0,.581-.242.049a1.042,1.042,0,0,0,0,.484,1.277,1.277,0,0,0,.533,0,1.042,1.042,0,0,0,0-.484Zm.291.63h-.533a1.046,1.046,0,0,0,0,.485h.533A1.046,1.046,0,0,0,13.947,51.325Zm.436-5.766h0v0Zm-.727,0h0v0Zm.727-.193h0v0Zm-.727,0h0v0Z"/><path class="b" d="M9.1,37.177c.533.484,1.744.969,2.229,2.035l-.243.048C10.6,38.34,9.489,37.71,9.1,37.177ZM19.18,26.565c2.039-1.586,4.957-1.047,7.026.194a7.251,7.251,0,0,0-6.881.1Zm3.876,22.192c-1.108.059-2.142,1.294-1.576,2.242a3.379,3.379,0,0,0,.962,1.123c.108.07-.24.018-.8-.312a1.044,1.044,0,0,1-.52-.684A1.861,1.861,0,0,1,23.056,48.757ZM5.617,61.081a1.651,1.651,0,0,0,2.005-1.693c-.11-1.119-1.335-1.82-2.247-2.232,1,.173,2.472,1.16,2.634,2.247.206,1.391-1.269,1.9-2.392,1.678ZM13.855,58.9c0-.208-.828-.441-.969-.484-.292-.089-.786-.237-1.018.048,0,.036,1.028.083,1.153.117A5.145,5.145,0,0,1,13.855,58.9Zm5.378,3.586a3.624,3.624,0,0,1-1.769-1.2,5.237,5.237,0,0,0-1.72-1.228.691.691,0,0,1,.7.081,3.241,3.241,0,0,1,.9.72A4.385,4.385,0,0,0,19.233,62.486Z"/><path class="d" d="M35.234,31.093c-.262-.787-3.3-2.85-3.3-1.163C32.026,30.539,34.834,30.843,35.234,31.093Z"/><path class="d" d="M60.236,41.559a4.726,4.726,0,0,0,3.683-4.652C63.454,37.519,59.09,40.8,60.236,41.559Z"/><path class="d" d="M42.26,55.271c-.437,1.061-1.992,2.958-4.007,2.09-4.652-2,.692-2.383.745-2.426-.364.3,1.784.088,1.372-.73a2.114,2.114,0,0,0-3.392-.436c-3.033,2.6,2.015,4.98,4.41,3.441-.966,2.2-4.417,4.34-6.784,2.848-3.3-2.08-.048-3.263-.048-5.562-3.054.353-4.087,3.437-1.708,5.457,2.933,2.492,7.913.4,9.121-2.889,2,4.574,6.059,1.473,8.286-.484C47.569,57.068,41.785,61.2,42.26,55.271Z"/><path class="d" d="M49.964,44.272c3.639.455,10.734-5.823,12.162,1.793-5.011-2.312-4,6.23-8.819,3.44,2.611,4.915,10.451,1.627,9.591-3.543C61.839,39.6,53.494,41.481,49.964,44.272Z"/><path class="d" d="M49.867,44.615c-2.128-.561-1.361-3.682-1.361-5.621,2.738-.1,5.7-.2,7.827,1.842V34.294H41.8a2.045,2.045,0,0,0-.23.031,6.718,6.718,0,0,1-3.888-1.439C34.6,28.264,40,31.44,40.2,31.384c3.593-1.016-3.542-5.354-3.876-.339-2.186-4.809,5.11-7.006,4.8-3.877,3.4-2.161,4.318,3.247,7.462,3.247v-.1c.056,0-2.858-5.178-3.984-5.693-2.667-1.221-6.5-.518-8.164,2.045-2.2,3.4.691,8.257,4.6,7.843a1.224,1.224,0,0,0-.3.217,37.007,37.007,0,0,0-7.536-.387c1.34,1.6.729,4.829.729,6.735,1.228-2.735,5.438-2.035,7.876-2.035V55.662c2.889-2.76,4.566-2.519,9.188-2.519C48.045,51.97,47.464,46.611,49.867,44.615Z"/><path class="b" d="M43.321,45.366h0v0Zm.727,0h0v0Zm.727,0h0v0Zm.678,0h0v0Zm.727,0h0v0Zm-2.859.193h0v0Zm.727,0h0v0Zm.679,0h0v0Zm.726,0h0v0Zm.727,0h0v0Zm-3.3,5.766h-.242v-.1l.242-.048a1.02,1.02,0,0,0,0-.485l-.242-.048v-.1c.366.008.363-.578,0-.581v.1a.243.243,0,1,0,0-.485v-.1c.155-.017.2-.127.291-.242-.086-.115-.136-.225-.291-.242v-.1a1.081,1.081,0,0,0,.291-.243,1.1,1.1,0,0,0-.291-.242c-.042-.175.132-.278.242-.388-.276-.276-.318-.326,0-.581-.255-.2-.331-.273-.048-.485-.114-.085-.238-.126-.194-.29l.145-.1-.145-.1a.21.21,0,0,1,.1-.242.181.181,0,0,1-.048-.291c-.178-.192-.049-.934-.049-1.178V38.1H39.55a14.122,14.122,0,0,0-4.756.533,13.528,13.528,0,0,0-.194-3.779H55.338v3.876c-2.419-1.008-5.276-.678-7.85-.678v6.672c0,.243.13.986-.048,1.177a.182.182,0,0,1-.048.291.211.211,0,0,1,.1.242l-.145.1.145.1c.045.164-.079.206-.193.291.283.212.206.281-.049.485.318.254.279.3,0,.581.111.111.288.209.242.388a1.07,1.07,0,0,0-.29.242,1.07,1.07,0,0,0,.29.242V49c-.155.017-.2.127-.29.242.086.115.135.225.29.242v.1a.243.243,0,1,0,0,.485v.1l-.242.049a.468.468,0,0,0,0,.484,1.453,1.453,0,0,0,.339.049l.049.1a1.62,1.62,0,0,0-.339.048,1.02,1.02,0,0,0,0,.485,1.042,1.042,0,0,0,.484,0,5.957,5.957,0,0,1,.194.63h.048l.049.1h-.145v.193h-.1V52.1H47.2v.193h-.1V52.1h-.63v.193h-.1V52.1h-.485v.193h-.1V52.1h-.63v.193h-.1V52.1h-.63v.242h-.1V52.1h-.63v.339h-.1v-.388h-.63v.533h.146c-.1.049-.146.049-.243.1H42.6v-.1h.29v-.533H42.6v-.1h.242A3.079,3.079,0,0,0,42.885,51.325Zm.727,0h-.533a1.046,1.046,0,0,0,0,.485h.533A1.046,1.046,0,0,0,43.612,51.325Zm-.291-.581-.29.048a1.046,1.046,0,0,0,0,.485,1.294,1.294,0,0,0,.533,0,1.046,1.046,0,0,0,0-.485Zm0-.582-.242.049a.468.468,0,0,0,0,.484,1.02,1.02,0,0,0,.485,0,.468.468,0,0,0,0-.484Zm0-.629c-.13.052-.339.1-.339.29,0,.143.208.291.339.291a.369.369,0,0,0,.332-.276C43.669,49.646,43.461,49.588,43.321,49.533Zm0-.582a.678.678,0,0,0-.339.291c.249.332.43.332.679,0A.677.677,0,0,0,43.321,48.951Zm0-.581a.827.827,0,0,0-.339.242.385.385,0,0,0,.679,0A.824.824,0,0,0,43.321,48.37Zm0-.63-.29.242.29.242.291-.242Zm0-.485-.29.242.29.243.243-.243Zm0-.484-.242.193.242.194.243-.194Zm0-.34-.193.146.193.145.194-.145Zm0-.339-.145.1.145.1.146-.1Zm0-.194-.1.1.1.1.1-.1Zm0-.145h0v0Zm.97,5.621h-.533a1.016,1.016,0,0,0,0,.484h.533A1.042,1.042,0,0,0,44.291,51.374Zm-.243-.63-.29.048a1.02,1.02,0,0,0,0,.485,1.294,1.294,0,0,0,.533,0,1.046,1.046,0,0,0,0-.485Zm0-.582-.242.049a.465.465,0,0,0,0,.484,1.02,1.02,0,0,0,.485,0,.47.47,0,0,0,0-.484Zm0-.629c-.13.052-.339.1-.339.29,0,.143.208.291.339.291a.369.369,0,0,0,.332-.276C44.4,49.646,44.188,49.588,44.048,49.533Zm0-.582a.674.674,0,0,0-.339.291c.249.332.43.332.678,0A.674.674,0,0,0,44.048,48.951Zm0-.581a.827.827,0,0,0-.339.242.384.384,0,0,0,.678,0A.821.821,0,0,0,44.048,48.37Zm0-.63-.29.242.29.242.291-.242Zm0-.485-.29.242.29.243.243-.243Zm0-.484-.242.193.242.194.243-.194Zm0-.34-.194.146.194.145.194-.145Zm0-.29-.145.1.145.1.146-.1Zm0-.243-.1.1.1.1.1-.1Zm0-.145h0v0Zm.969,5.621h-.533a1.042,1.042,0,0,0,0,.484h.533A1.042,1.042,0,0,0,45.017,51.374Zm-.29-.63-.291.048a2.389,2.389,0,0,0,.048.485,1.294,1.294,0,0,0,.533,0,1.046,1.046,0,0,0,0-.485Zm0-.582-.243.049a.468.468,0,0,0,0,.484,1.02,1.02,0,0,0,.485,0,.468.468,0,0,0,0-.484Zm0-.581c-.131.052-.34.1-.34.291,0,.143.208.29.34.29a.37.37,0,0,0,.331-.275C45.074,49.694,44.866,49.637,44.727,49.581Zm0-.63a.681.681,0,0,0-.34.291c.249.332.43.332.679,0A.678.678,0,0,0,44.727,48.951Zm0-.581a.435.435,0,0,0-.291.242.384.384,0,0,0,.678,0A.859.859,0,0,0,44.727,48.37Zm0-.582-.291.242.291.243.29-.243Zm0-.533-.291.242.291.243.242-.243Zm0-.436-.243.194.243.194.242-.194Zm0-.388-.194.146.194.145.193-.145Zm0-.29-.146.1.146.1.145-.1Zm0-.243-.1.1.1.1.1-.1Zm0-.145h0v0Zm.969,5.621h-.533a1.042,1.042,0,0,0,0,.484H45.7A1.042,1.042,0,0,0,45.7,51.374Zm-.243-.63-.29.048a1.046,1.046,0,0,0,0,.485,1.294,1.294,0,0,0,.533,0,1.046,1.046,0,0,0,0-.485Zm0-.582-.242.049a.468.468,0,0,0,0,.484,1.02,1.02,0,0,0,.485,0,.468.468,0,0,0,0-.484Zm0-.581c-.13.052-.339.1-.339.291,0,.143.208.29.339.29a.37.37,0,0,0,.332-.275C45.8,49.694,45.593,49.637,45.453,49.581Zm0-.63a.678.678,0,0,0-.339.291c.249.332.43.332.679,0A.681.681,0,0,0,45.453,48.951Zm0-.581a.827.827,0,0,0-.339.242.385.385,0,0,0,.679,0A.824.824,0,0,0,45.453,48.37Zm0-.63-.29.242.29.242.291-.242Zm0-.485-.29.242.29.243L45.7,47.5Zm0-.436-.242.194.242.194.243-.194Zm0-.388-.193.146.193.145.194-.145Zm0-.29-.145.1.145.1.146-.1Zm0-.243-.1.1.1.1.1-.1Zm0-.145h0v0Zm.969,5.621h-.533a1.042,1.042,0,0,0,0,.484h.533A1.016,1.016,0,0,0,46.422,51.374Zm-.29-.63-.291.048a1.046,1.046,0,0,0,0,.485,1.294,1.294,0,0,0,.533,0,1.046,1.046,0,0,0,0-.485Zm0-.582-.243.049a.47.47,0,0,0,0,.484,1.02,1.02,0,0,0,.485,0,.465.465,0,0,0,0-.484Zm0-.581c-.13.052-.339.1-.339.291,0,.143.207.29.339.29a.37.37,0,0,0,.331-.275C46.479,49.694,46.272,49.637,46.132,49.581Zm0-.63a.674.674,0,0,0-.339.291c.249.332.429.332.678,0C46.381,49.092,46.333,48.95,46.132,48.951Zm0-.581a.821.821,0,0,0-.339.242.384.384,0,0,0,.678,0A.827.827,0,0,0,46.132,48.37Zm0-.582-.291.242.291.243.29-.243Zm0-.533-.291.242.291.243.242-.243Zm0-.436-.243.194.243.194.242-.194Zm0-.388-.194.146.194.145.194-.145Zm0-.29-.146.1.146.1.145-.1Zm0-.243-.1.1.1.1.1-.1Zm0-.145h0v0Zm.727-.339h0v0Zm0,.194h0v0Zm.242,5.766h-.533a1.042,1.042,0,0,0,0,.484H47.1A1.042,1.042,0,0,0,47.1,51.374Zm-.242-.63-.243.048a1.046,1.046,0,0,0,0,.485,1.311,1.311,0,0,0,.533,0,1.046,1.046,0,0,0,0-.485Zm0-.582-.243.049a.468.468,0,0,0,0,.484,1.02,1.02,0,0,0,.485,0,.468.468,0,0,0,0-.484Zm0-.581c-.131.052-.34.1-.34.291,0,.143.208.29.34.29a.37.37,0,0,0,.331-.275C47.206,49.694,47,49.637,46.859,49.581Zm0-.63a.677.677,0,0,0-.34.291c.249.332.43.332.679,0A.678.678,0,0,0,46.859,48.951Zm0-.581a.824.824,0,0,0-.34.242.385.385,0,0,0,.679,0A.827.827,0,0,0,46.859,48.37Zm0-.582-.291.242.291.243.29-.243Zm0-.533-.243.242.243.243.29-.243Zm0-.436-.243.194.243.145.242-.194Zm0-.388-.194.146.194.145.193-.145Zm0-.29-.146.1.146.1.145-.1Zm0-.243-.1.1.1.1.1-.1Zm0-.145h0v0Zm.969,5.621H47.3a1.016,1.016,0,0,0,0,.484h.533A1.042,1.042,0,0,0,47.828,51.374ZM46.713,38.146h-.1l-.145,6.638h.291Z"/><path class="b" d="M62.073,46.771c0,1.986-2.326,3.634-5.136,3.973,2.471-.582,4.458-2.084,4.748-4.07ZM41.529,26.517a1.959,1.959,0,0,0-.436-.969c.541.155.767.472.436.969ZM47.2,29.376c-2.326-3.731-3-4.409-6.978-4.6a6.2,6.2,0,0,1,4.653.983,10.393,10.393,0,0,1,2.325,3.62ZM34.018,54.911a3.55,3.55,0,0,0-1.7,2.616A3.451,3.451,0,0,0,33.873,60.1a3.518,3.518,0,0,1-1.839-2.469c-.058-1.185,1.017-2.131,1.887-2.764Zm11.968,3.973a6.673,6.673,0,0,1,3.005-1.841,8.4,8.4,0,0,1-3.005,1.841ZM60.619,41.053c0-.622.962-1.263,1.4-1.588a6.835,6.835,0,0,0,1.464-1.222A9.661,9.661,0,0,1,60.619,41.053ZM40.366,30.345c-.717-1.229-3.1-1.212-3.683.145a2.074,2.074,0,0,1,2.441-1.338,2.4,2.4,0,0,1,1.268.541c.218.193.53.652-.026.652Zm-.824,24.227a1.767,1.767,0,0,0-3.053.678,1.753,1.753,0,0,1,1.455-1.625,2.327,2.327,0,0,1,1.287.134c.151.066.585.261.65.425.083.208-.178.356-.339.388Z"/><path class="e" d="M2.6,7.994c.327-.381.693-1.555.924-1.711-1.642-.6-4.839,1.885-2.321,3.31C.473,8.074,2.2,8.46,2.6,7.994Zm.382-1.48.021.128A2.386,2.386,0,0,0,.86,8.131,2.133,2.133,0,0,1,2.986,6.514Z"/><path class="e" d="M7.735,19.035c-.161.048-.333.1-.508.141A.573.573,0,0,0,7.735,19.035Z"/><path class="e" d="M6.608,17.908c0-.936-1.332-.483-1.137.532.184.962.994.923,1.756.736C6.505,19.047,5.758,17.83,6.608,17.908Z"/><path class="e" d="M15.415,6.054c-.677,0-3.332-.478-3.785,0a.318.318,0,0,0-.049.077,1.519,1.519,0,0,0-.417-.413c1.424-.631.04-2.071.585-3.361-2.968-.351-1.259,2.8-.276,4.158a26.292,26.292,0,0,0,.081,3.311h-3.9c0-1.2-.306-3.275.907-3.849H3.8a1.425,1.425,0,0,0,.917-1.311q.361-1.218-.173-1.206c0,.935-1.071,1.358-.807,2.517H3.719c.008,0,.016.011.025.016V6l.007,0c1.009.556,1.36,4.325,1.053,7.12-.035-1.584-1.86-1.271-2.644-1.162a.268.268,0,0,0,.217.18c-.873,1.032.682,2.088,1.475,1.462,0-.9-1.345.2-1.344-1,0-1.232,2.169-.576,2.169.564H4.8c-.169,1.5-.529,2.714-1.081,2.975A7.29,7.29,0,0,1,8.009,17c-.073.109.139.355.139.733a1.9,1.9,0,0,1-.413,1.307,3.324,3.324,0,0,1,.761-.178,12.029,12.029,0,0,0-.276-1.709l.014.01c-.01-.024-.018-.049-.028-.073-.013-.051-.023-.1-.036-.152l-.023,0a7.32,7.32,0,0,1-.466-1.82V12.392h3.976c0,1.163.271,3.041-.895,3.593h4.653C13.861,15.249,13.853,6.793,15.415,6.054Z"/><path class="b" d="M13.808,7.555h-.043l-.065,4h.13Zm.174,4.722h0v0Zm0,.077-.044.051.044.051.043-.051Zm0,.128-.065.051.065.051.065-.051Zm0,.154-.087.077.087.077.086-.077Zm0,.205-.109.1.109.1.108-.1Zm0,.231-.13.128.13.129.13-.129Zm0,.282-.13.129.13.128.13-.128Zm0,.308a.2.2,0,0,0-.13.154c.1.144.2.144.3,0Zm0,.334a.206.206,0,0,0-.13.128c.111.176.192.176.3,0C14.1,14.061,14.063,14,13.982,14Zm0,.308c-.07.033-.137.044-.13.154a.181.181,0,0,0,.151.154.176.176,0,0,0,.149-.146C14.16,14.352,14.05,14.331,13.982,14.3Zm0,.308-.109.025a.418.418,0,0,0,.022.257.4.4,0,0,0,.217,0,.29.29,0,0,0,0-.257Zm0,.333-.13.026a.942.942,0,0,0,.021.231.59.59,0,0,0,.261,0,.654.654,0,0,0,0-.257Zm.13.308h-.239a.815.815,0,0,0,0,.283h.239A.815.815,0,0,0,14.112,15.253Zm-.434-2.976h0v0Zm0,.077-.043.051.043.051.043-.051Zm0,.128-.065.051.065.051.065-.051Zm0,.154-.087.077.087.077.087-.077Zm0,.205-.108.1.108.1.108-.1Zm0,.231-.13.128.13.129.13-.129Zm0,.282-.13.129.13.128.13-.128Zm0,.308a.325.325,0,0,0-.152.154c.1.144.2.144.3,0A1.165,1.165,0,0,0,13.678,13.662Zm0,.334a.32.32,0,0,0-.152.154c.112.176.192.176.3,0A.32.32,0,0,0,13.678,14Zm0,.308c-.058.027-.152.054-.152.154a.182.182,0,0,0,.152.154.176.176,0,0,0,.148-.146C13.833,14.364,13.741,14.333,13.678,14.3Zm0,.308-.108.025a.284.284,0,0,0,0,.257.4.4,0,0,0,.216,0,.284.284,0,0,0,0-.257Zm0,.333-.13.026a.654.654,0,0,0,0,.257.6.6,0,0,0,.26,0,.654.654,0,0,0,0-.257Zm.108.308h-.238a.815.815,0,0,0,0,.283h.238A.792.792,0,0,0,13.786,15.253Zm-.433-2.976h0v0Zm0,.077-.044.051.044.051.043-.051Zm0,.128-.065.051.065.051.065-.051Zm0,.154-.087.077.087.077.086-.077Zm0,.205-.109.1.109.1.108-.1Zm0,.231-.131.128.131.129.13-.129Zm0,.282-.131.129.131.128.13-.128Zm0,.308a.383.383,0,0,0-.152.129c.1.144.2.144.3,0A.38.38,0,0,0,13.353,13.662Zm0,.308a.32.32,0,0,0-.152.154c.111.176.192.176.3,0A.323.323,0,0,0,13.353,13.97Zm0,.334c-.29.01.062.527.173.128C13.466,14.337,13.452,14.327,13.353,14.3Zm0,.308-.109.025a.29.29,0,0,0,0,.257.4.4,0,0,0,.217,0,.287.287,0,0,0,0-.257Zm0,.333-.131.026a.654.654,0,0,0,0,.257.6.6,0,0,0,.261,0,.654.654,0,0,0,0-.257Zm.13.308h-.239a.654.654,0,0,0,0,.257h.239A.654.654,0,0,0,13.483,15.253Zm-.434-2.976h0v0Zm0,.077-.043.051.043.051.043-.051Zm0,.128-.065.051.065.051.065-.051Zm0,.154-.087.077.087.077.087-.077Zm0,.205-.109.1.109.1.108-.1Zm0,.231-.13.128.13.129.13-.129Zm0,.282-.13.129.13.128.13-.128Zm0,.308a.39.39,0,0,0-.152.129c.1.144.2.144.3,0A.39.39,0,0,0,13.049,13.662Zm0,.308a.325.325,0,0,0-.152.154c.112.176.192.176.3,0A.325.325,0,0,0,13.049,13.97Zm0,.334c-.34.08.056.469.152.128C13.154,14.359,13.132,14.311,13.049,14.3Zm0,.308-.109.025a.29.29,0,0,0,0,.257.4.4,0,0,0,.217,0,.284.284,0,0,0,0-.257Zm0,.308-.13.025a.654.654,0,0,0,0,.257.585.585,0,0,0,.26,0,.654.654,0,0,0,0-.257Zm.108.333h-.238a.654.654,0,0,0,0,.257h.238A.654.654,0,0,0,13.157,15.253Zm-.433-2.976h0v0Zm0,.077-.044.051.044.051.043-.051Zm0,.128-.066.051.066.051.065-.051Zm0,.154-.087.077.087.077.086-.077Zm0,.179-.109.1.109.1.108-.1Zm0,.257-.131.128.131.129.13-.129Zm0,.257-.131.128.131.128.13-.128Zm0,.333a.383.383,0,0,0-.152.129c.1.144.2.144.3,0A.38.38,0,0,0,12.724,13.662Zm0,.308a.32.32,0,0,0-.152.154c.111.176.192.176.3,0A.323.323,0,0,0,12.724,13.97Zm0,.334c-.068.016-.156.026-.149.136a.175.175,0,0,0,.149.146.17.17,0,0,0,.145-.138C12.882,14.334,12.8,14.321,12.724,14.3Zm0,.308-.109.025a.29.29,0,0,0,0,.257.4.4,0,0,0,.217,0,.287.287,0,0,0,0-.257Zm0,.308-.131.025a.654.654,0,0,0,0,.257.59.59,0,0,0,.261,0,.654.654,0,0,0,0-.257Zm.108.333h-.239a.654.654,0,0,0,0,.257h.239A.654.654,0,0,0,12.832,15.253ZM12.4,12.277h0v0Zm0,.077-.043.051.043.051.044-.051Zm0,.1-.043.077.065.051.065-.051Zm0,.18-.065.077.087.077.087-.077Zm0,.179-.108.1.108.1.109-.1Zm0,.257-.13.128.13.129.13-.129Zm0,.257-.13.128.13.128.13-.128Zm0,.333a.514.514,0,0,0-.13.129c.1.144.2.144.3,0A.383.383,0,0,0,12.4,13.662Zm0,.308a.411.411,0,0,0-.13.154c.111.176.192.176.3,0A.333.333,0,0,0,12.4,13.97Zm0,.308c-.3.108.075.507.174.154A.333.333,0,0,0,12.4,14.278Zm0,.334-.108.025a.284.284,0,0,0,0,.257.4.4,0,0,0,.217,0,.29.29,0,0,0,0-.257Zm0,.308-.13.025a.654.654,0,0,0,0,.257.585.585,0,0,0,.26,0,.654.654,0,0,0,0-.257Zm.13.308H12.29a.649.649,0,0,0,0,.256h.238A.649.649,0,0,0,12.528,15.228Zm1.454-3.054h0v0Zm-.3,0h0v0Zm-.325,0h0v0Zm-.3,0h0v0Zm-.325,0h0v0Zm-.3,0h0v0ZM14,12.1h0v0Zm-.325,0h0v0Zm-.325,0h0v0Zm-.3,0h0v0Zm-.325,0h0v0Zm-.3,0h0v0Zm-.326.18h0v0Zm0,.077-.043.051.043.051.044-.051Zm0,.1-.065.077.065.051.066-.051Zm0,.18-.086.077.086.077.087-.077Zm0,.179-.108.1.108.1.109-.1Zm0,.257-.108.128.108.129.131-.129Zm0,.257-.13.128V12.1H7.214v.731c0,.148.061.538-.022.655a.437.437,0,0,1,0,.333.392.392,0,0,1,0,.308c.044.056.022.175.022.25s0,.182,0,.281a2.747,2.747,0,0,0,0,.521h0v.052h0a.649.649,0,0,0,0,.256h.043v.052H7.192v.282h.13l.022.051H7.192v.1l-.043-.026v-.077a.535.535,0,0,1-.3-.051v-.282H6.563v.205H6.52v-.154H6.238v.128H6.194v-.128h-.26v.1H5.891v-.1H5.609v.1H5.587v-.1H5.305v.1H5.261v-.1H4.979v.1H4.958v-.1H4.784l.022-.051h.108a.411.411,0,0,0,.022-.257h0a2.271,2.271,0,0,0,.087-.411v.026a.4.4,0,0,0,.217,0,.29.29,0,0,0,0-.257.268.268,0,0,0-.2,0v-.1a.141.141,0,1,0,0-.206v-.1c.114.082.167.01.238-.1-.066-.1-.131-.2-.238-.1v-.129c.081.072.177.038.216-.077-.068-.093-.144-.159-.238-.077V13.56l.087.077.13-.129-.13-.128-.087.077v-.205l.108.051.13-.128-.13-.129-.086.077v-.205L5.131,13l.109-.1-.109-.1-.086.077v-.18l.086.1.087-.077-.087-.077-.086.051V8a2.789,2.789,0,0,0-.3-1.45h2.8a4.263,4.263,0,0,0-.3,2.122v1.65h4.751V7.4a2.05,2.05,0,0,0-.108-.849h2.6a3.143,3.143,0,0,0-.3,1.572V13.7a10.542,10.542,0,0,0,.043,1.27h0a.654.654,0,0,0,0,.257h.065l.022.051H14.22a.654.654,0,0,0,0,.257h.2l.021.051H14.2v.1h-.044v-.077h-.3v.1h-.044v-.1h-.282v.1h-.043v-.1H13.2v.1h-.044v-.1h-.282v.1h-.043v-.1H12.55v.1h0v-.1h-.282v.1h-.043v-.1h-.282v.1H11.9v-.1H11.7l.022-.052H11.9a.809.809,0,0,0,0-.282h-.043l.022-.051H11.9a2.712,2.712,0,0,0,.065-.437c.049.15.143.131.261.1a.29.29,0,0,0,0-.257c-.109-.025-.223-.05-.261.1,0-.077.022-.154.022-.257.048.2.377.059.239-.154-.084,0-.226-.015-.261.1V14.2c.073.208.205.1.282-.025-.077-.122-.209-.234-.282-.026v-.257c.094.141.2.1.282-.025-.087-.122-.188-.167-.282-.026V13.56l.13.128.131-.128Zm0,1.591-.13.025a.654.654,0,0,0,0,.257.59.59,0,0,0,.261,0,.654.654,0,0,0,0-.257Zm.131.333h-.239a.654.654,0,0,0,0,.257h.239A.654.654,0,0,0,12.225,15.253Zm-.131-3.079h0v0Zm0-.077h0v0Zm-5.054.18h0v0Zm0,.077L7,12.405l.043.051.044-.051Zm0,.1-.065.077.065.051.065-.051Zm0,.18-.087.077.087.077.087-.077Zm0,.179-.108.1.108.1.109-.1Zm0,.257-.13.1.13.128.13-.128Zm0,.257-.13.128.13.128.13-.128Zm0,.333a.39.39,0,0,0-.152.129c.1.144.2.144.3,0A.383.383,0,0,0,7.04,13.662Zm0,.308a.329.329,0,0,0-.152.154c.112.176.193.176.3,0A.325.325,0,0,0,7.04,13.97Zm0,.308c-.337.16.064.467.152.154A.325.325,0,0,0,7.04,14.278Zm0,.334-.108.025a.287.287,0,0,0,0,.257.4.4,0,0,0,.217,0C7.189,14.775,7.192,14.612,7.04,14.612Zm0,.308-.13.025a.654.654,0,0,0,0,.257.585.585,0,0,0,.26,0,.654.654,0,0,0,0-.257Zm.109.333H6.91a.654.654,0,0,0,0,.257h.239A.654.654,0,0,0,7.149,15.253Zm.021.308H6.888v.283H7.17Zm-.455-3.31h0v0Zm0,.1-.044.051.044.051.043-.051Zm0,.1-.065.077.065.051.065-.051Zm0,.154-.087.077.087.1.087-.077Zm0,.205-.109.1.109.1.108-.1Zm0,.231-.13.129.13.128.13-.128Zm0,.283-.13.128.13.128.13-.128Zm0,.333a.383.383,0,0,0-.152.129c.1.144.2.144.3,0A.39.39,0,0,0,6.715,13.662Zm0,.308a.325.325,0,0,0-.152.154c.111.176.192.176.3,0A.329.329,0,0,0,6.715,13.97Zm0,.308c-.3.108.075.507.173.154A.331.331,0,0,0,6.715,14.278Zm0,.334-.109.025a.29.29,0,0,0,0,.257.4.4,0,0,0,.217,0,.284.284,0,0,0,0-.257Zm0,.308-.13.025a.654.654,0,0,0,0,.257.585.585,0,0,0,.26,0,.654.654,0,0,0,0-.257Zm.13.308H6.606a.649.649,0,0,0,0,.256h.239A.649.649,0,0,0,6.845,15.228Zm-.456-2.977h0v0Zm0,.077-.043.051.043.052.044-.052Zm0,.128-.065.052.065.051.066-.051Zm0,.154-.086.077.086.1.087-.1Zm0,.205-.108.1.108.1.109-.1Zm0,.231-.13.129.13.128.131-.128Zm0,.283-.13.128.13.128.131-.128Zm0,.308a.2.2,0,0,0-.13.154.4.4,0,0,0,.152.128.494.494,0,0,0,.13-.128A1.055,1.055,0,0,0,6.389,13.637Zm0,.333a.21.21,0,0,0-.13.129.334.334,0,0,0,.152.154.409.409,0,0,0,.13-.154C6.5,14.025,6.473,13.978,6.389,13.97Zm0,.308c-.3.108.075.507.174.154A.329.329,0,0,0,6.389,14.278Zm0,.308-.108.026a.408.408,0,0,0,.022.256.382.382,0,0,0,.217,0,.288.288,0,0,0,0-.256Zm0,.334-.13.025a1,1,0,0,0,.022.231.571.571,0,0,0,.26,0,.649.649,0,0,0,0-.256Zm.131.308H6.281a.809.809,0,0,0,0,.282H6.52A.809.809,0,0,0,6.52,15.228Zm-.434-2.977h0v0Zm0,.077-.044.051.044.052.043-.052Zm0,.128-.065.052.065.051.065-.051Zm0,.154L6,12.687l.087.077.087-.077Zm0,.205-.109.1.109.1.108-.1Zm0,.231-.13.129.13.128.13-.128Zm0,.283-.13.128.13.128.13-.128Zm0,.308a.373.373,0,0,0-.152.128c.1.144.2.144.3,0A.379.379,0,0,0,6.086,13.637Zm0,.333a.325.325,0,0,0-.152.154c.111.176.192.176.3,0A.329.329,0,0,0,6.086,13.97Zm0,.308c-.337.16.064.467.152.154A.329.329,0,0,0,6.086,14.278Zm0,.308-.109.026c-.041.121-.051.286.116.254.141-.027.122-.154.08-.28Zm0,.334-.13.025a.654.654,0,0,0,0,.257.585.585,0,0,0,.26,0,.654.654,0,0,0,0-.257Zm.108.308H5.956a.649.649,0,0,0,0,.256h.238A.649.649,0,0,0,6.194,15.228Zm.846-3.054h0v0Zm-.325,0h0v0Zm-.326,0h0v0Zm-.3,0h0v0Zm.954-.1h0v0Zm-.325,0h0v0Zm-.326,0h0v0Zm-.3,0h0v0Zm-.326.18h0v0Zm0,.077-.043.051.043.052.044-.052Zm0,.128-.065.052.065.051.065-.051Zm0,.154-.086.077.086.077.087-.077Zm0,.205-.108.1.108.1.109-.1Zm0,.231-.13.129.13.128.131-.128Zm0,.283-.13.128.13.128.131-.128Zm0,.308a.37.37,0,0,0-.151.128c.1.144.2.144.3,0A.373.373,0,0,0,5.76,13.637Zm0,.333a.323.323,0,0,0-.151.154c.111.176.192.176.3,0A.32.32,0,0,0,5.76,13.97Zm0,.308c-.3.108.075.507.174.154A.329.329,0,0,0,5.76,14.278Zm0,.308-.108.026-.043.128c.14.221.351.115.26-.154Zm0,.334-.13.025a.654.654,0,0,0,0,.257.59.59,0,0,0,.261,0,.654.654,0,0,0,0-.257Zm.131.308H5.652a.649.649,0,0,0,0,.256h.239A.649.649,0,0,0,5.891,15.228Zm-.434-2.977h0v0Zm0,.077-.044.051.044.052.043-.052Zm0,.128-.065.052.065.051.065-.051Zm0,.154-.087.077.087.077.086-.077Zm0,.205-.109.1.109.1.108-.1Zm0,.231-.13.129.13.128.13-.128Zm0,.283-.13.128.13.128.13-.128Zm0,.308a.373.373,0,0,0-.152.128c.1.144.2.144.3,0A.379.379,0,0,0,5.457,13.637Zm0,.308a.316.316,0,0,0-.152.154c.111.175.192.175.3,0A.325.325,0,0,0,5.457,13.945Zm0,.333c-.059.028-.152.054-.152.154a.181.181,0,0,0,.152.154.176.176,0,0,0,.148-.146C5.612,14.338,5.519,14.308,5.457,14.278Zm0,.308-.109.026c-.041.121-.051.286.115.254.142-.027.123-.154.08-.28Zm0,.334-.13.025a.618.618,0,0,0,0,.257.585.585,0,0,0,.26,0,.654.654,0,0,0,0-.257Zm.108.308H5.327a.614.614,0,0,0,0,.256h.238A.649.649,0,0,0,5.565,15.228Zm-.434-2.977h0v0Zm0,.077-.043.051.043.052.044-.052Zm0,.128-.065.052.065.051.065-.051Zm0,2.464L5,14.945A.654.654,0,0,0,5,15.2a.585.585,0,0,0,.26,0,.618.618,0,0,0,0-.257Zm.13.308H5.023a.649.649,0,0,0,0,.256h.238A.614.614,0,0,0,5.261,15.228Zm.5-3.054h0v0Zm-.3,0h0v0Zm-.326,0h0v0Zm.629-.1h0v0Zm-.3,0h0v0Zm-.326,0h0v0Zm9.328,3.567Z"/><path class="b" d="M11.032,5.5a2.291,2.291,0,0,1,.108-2.849,2.544,2.544,0,0,0,.043,2.772Z"/><path class="f" d="M16.369,19.207c-.017-.027,4.6.744,2.275,2.242a3.016,3.016,0,0,0,.672-.231c-1.91,3.277-5.33-.374-3.861-3.644-.793.478-1.362,1.825-2.348,2.41-.665.395-2.815,1.715-2.815-.145a.809.809,0,0,1,.781-.873c-.138-1.8-3.165-.4-1.583,1.848a1.116,1.116,0,0,1-.022-.821c.361,3.311,4.511-.167,5.358-1.238a11.236,11.236,0,0,1-.391,1.642.331.331,0,0,1,.282-.154c0,4.2,7.566,2.3,4.864-1.464C18.813,17.71,15.259,17.35,16.369,19.207Z"/><path class="f" d="M19.97,3.76c.811-.474-.993-.918-.577-.443-.306-.348-1.131.374-.907-.89a2.6,2.6,0,0,1,.121-.461C18,2.941,18.581,4.572,19.97,3.76Z"/><path class="f" d="M18.607,1.966a1.371,1.371,0,0,1,.986-.634C19.175,1.245,18.816,1.4,18.607,1.966Z"/><path class="f" d="M23.5,6.7a1.677,1.677,0,0,0,1.976.531c.829-.3,1.822-1.287.85-2.387-.784-.887-1.924.3-1.345.635.244.141,3-.013.8,1.52-1.937,1.351-3.1-2.507-3.862-3.819C20.872,1.387,19.565.241,17.649.241c-1.659,0-3.794.954-3.47,3.269a2.232,2.232,0,0,0,4.23.888c-2.219,1.313-1.666-2.876-3.927-1.847C15.245-.156,18.655.12,20.274,1.344a2.152,2.152,0,0,0-.681-.012c1.092.224,2.133,2.388,2.47,2.974.212.369.421.8.65,1.222a1.418,1.418,0,0,0-.165-.066c0,1.355-3.006.326-3.6.308,2.232.754-3.09,10.282-3.8,11.856a7.018,7.018,0,0,1,4.664-1.592c-1.072-.591-.349-1.482.136-1.77a8.508,8.508,0,0,1,3.546,0c.878.556-.021.741.4,1.668.869,1.93,3.192-.589,4.295,1.411C27.305,13.833,25.009,10.061,23.5,6.7Zm-2.945,5.434,1.172-2.8a3.1,3.1,0,0,1,.477,1.873c.353,0,.606.573.673.924Z"/><path class="b" d="M18.164,12.1h0v0Zm.3,0h0v0Zm.325,0h0v0Zm-.629.1h0v0Zm.3,0h0v0Zm.325,0h0v0Zm-1.757,3.387h-.282v.282h.282Zm-.021-.334h-.239a.654.654,0,0,0,0,.257h.239A.654.654,0,0,0,17.015,15.253Zm.3,0H17.08a.654.654,0,0,0,0,.257h.238A.654.654,0,0,0,17.318,15.253Zm-.108-.308-.109.026a.654.654,0,0,0,0,.257.4.4,0,0,0,.217,0,.654.654,0,0,0,0-.257Zm0-.308-.109.026a.29.29,0,0,0,0,.257.4.4,0,0,0,.217,0,.284.284,0,0,0,0-.257Zm.434.616h-.239a.654.654,0,0,0,0,.257h.239A.654.654,0,0,0,17.644,15.253Zm-.13-.308-.109.026a.654.654,0,0,0,0,.257.4.4,0,0,0,.217,0,.654.654,0,0,0,0-.257Zm0-.308-.109.026a.29.29,0,0,0,0,.257.4.4,0,0,0,.217,0,.287.287,0,0,0,0-.257Zm0-.333c-.059.027-.152.054-.152.154a.182.182,0,0,0,.152.154.176.176,0,0,0,.148-.146C17.669,14.364,17.576,14.333,17.514,14.3Zm0-.308a.316.316,0,0,0-.152.154c.111.176.192.176.3,0A.318.318,0,0,0,17.514,14Zm0-.308a.208.208,0,0,0-.131.128c.1.144.2.144.3,0A.391.391,0,0,0,17.514,13.688Zm.433,1.565h-.238a.654.654,0,0,0,0,.257h.238A.618.618,0,0,0,17.947,15.253Zm-.108-.308-.108.026a.618.618,0,0,0,0,.257.4.4,0,0,0,.216,0,.618.618,0,0,0,0-.257Zm0-.308-.108.026a.284.284,0,0,0,0,.257.4.4,0,0,0,.216,0,.284.284,0,0,0,0-.257Zm0-.333c-.058.027-.152.054-.152.154a.182.182,0,0,0,.152.154.176.176,0,0,0,.148-.146C17.994,14.364,17.9,14.333,17.839,14.3Zm0-.308a.32.32,0,0,0-.152.154c.112.176.192.176.3,0A.32.32,0,0,0,17.839,14Zm0-.308a.206.206,0,0,0-.13.128c.1.144.2.144.3,0A.388.388,0,0,0,17.839,13.688Zm0-.334-.13.129.13.128.13-.128Zm0-.256-.108.128.108.128.108-.128Zm.434,2.181h-.239a.654.654,0,0,0,0,.257h.239A.654.654,0,0,0,18.273,15.279Zm-.109-.334-.108.026a.411.411,0,0,0-.022.257.4.4,0,0,0,.217,0,.654.654,0,0,0,0-.257Zm0-.308c-.147.035-.161.1-.108.257a.4.4,0,0,0,.217,0,.29.29,0,0,0,0-.257Zm0-.308c-.064.031-.124.045-.151.129C18.1,14.8,18.51,14.411,18.164,14.329Zm0-.333a.318.318,0,0,0-.151.154c.111.176.192.176.3,0A.74.74,0,0,0,18.164,14Zm0-.308a.378.378,0,0,0-.151.128c.1.144.2.144.3,0C18.266,13.772,18.217,13.727,18.164,13.688Zm0-.334-.151.154.13.129.13-.129Zm0-.256-.108.128.108.128.109-.128Zm0-.257-.108.1.108.1.109-.1Zm0-.18-.086.077.086.077.087-.077Zm0-.153-.065.051.065.051.065-.051Zm0-.129-.043.052.043.051.044-.051Zm0-.077h0v0Zm.434,2.977H18.36a.654.654,0,0,0,0,.257H18.6A.654.654,0,0,0,18.6,15.279Zm-.13-.334-.108.026a.654.654,0,0,0,0,.257.5.5,0,0,0,.238,0,.654.654,0,0,0,0-.257Zm0-.308-.108.026a.284.284,0,0,0,0,.257.4.4,0,0,0,.217,0,.29.29,0,0,0,0-.257Zm0-.308c-.058.028-.152.055-.152.154a.181.181,0,0,0,.152.154.178.178,0,0,0,.149-.146C18.624,14.389,18.531,14.359,18.468,14.329Zm0-.333a.32.32,0,0,0-.152.154c.112.176.192.176.3,0A.32.32,0,0,0,18.468,14Zm0-.308a.206.206,0,0,0-.13.128c.1.144.2.144.3,0A.388.388,0,0,0,18.468,13.688Zm0-.308-.13.128.13.129.13-.129Zm0-.282-.108.128.108.128.13-.128Zm0-.231-.108.1.108.1.109-.1Zm0-.206-.087.077.087.077.087-.077Zm0-.153-.065.051.065.051.065-.051Zm0-.129-.043.052.043.051.043-.051Zm0-.077h0v0Zm.434,2.977h-.239a.654.654,0,0,0,0,.257H18.9A.654.654,0,0,0,18.9,15.279Zm-.109-.308h-.13a.654.654,0,0,0,0,.257.508.508,0,0,0,.239,0,.654.654,0,0,0,0-.257Zm0-.334-.108.026a.287.287,0,0,0,0,.257.4.4,0,0,0,.217,0C18.942,14.8,18.946,14.638,18.793,14.637Zm0-.308c-.336.16.065.468.152.154C18.905,14.4,18.884,14.329,18.793,14.329Zm0-.333a.318.318,0,0,0-.151.154c.111.176.192.176.3,0A.316.316,0,0,0,18.793,14Zm0-.308a.378.378,0,0,0-.151.128c.1.144.2.144.3,0A.381.381,0,0,0,18.793,13.688Zm0-.308-.13.128.13.129.131-.129Zm0-.282-.13.128.109.128.13-.128Zm0-.231-.108.1.108.1.109-.1Zm0-.206-.086.077.086.077.087-.077Zm0-.153-.065.051.065.051.066-.051Zm0-.129-.043.052.043.051.044-.051Zm0-.077h0v0Zm.3-.179h0v0Zm.326,0h0v0Zm.3,0h0v0Zm.326,0h0v0Zm-.955.1h0v0Zm.326,0h0v0Zm.3,0h0v0Zm.326,0h0v0ZM19.1,14a.325.325,0,0,0-.152.154c.112.176.193.176.3,0A.32.32,0,0,0,19.1,14Zm0-.308a.206.206,0,0,0-.13.128c.1.144.2.144.3,0A.388.388,0,0,0,19.1,13.688Zm0-.308-.13.128.13.129.13-.129Zm0-.282-.108.128.108.128.13-.128Zm0-.231-.108.1.108.077.109-.1Zm0-.206-.087.077.087.077.087-.077Zm0-.153-.065.051.065.051.065-.051Zm0-.129-.043.052.043.051.044-.051Zm0-.077h0v0Zm.326,1.078-.131.128.131.129.13-.129Zm0-.282-.109.128.109.128.13-.128Zm0-.231-.109.1.109.1.108-.1Zm0-.206-.087.077.087.077.086-.077Zm0-.153-.066.051.066.051.065-.051Zm0-.129-.044.052.044.051.043-.051Zm0-.077h0v0Zm.3,1.078-.13.128.13.129.13-.129Zm0-.282-.108.128.108.128.13-.128Zm0-.231-.108.1.108.1.109-.1Zm0-.206-.087.077.087.077.087-.077Zm0-.153-.065.051.065.051.065-.051Zm0-.129-.043.052.043.051.044-.051Zm0-.077h0v0Zm.326,1.078-.131.128.131.129.13-.129Zm0-.282-.109.128.109.128.13-.128Zm0-.231-.109.1.109.1.108-.1Zm0-.206-.087.077.087.077.086-.077Zm0-.359h0v0Zm.325,1.078-.13.128.13.129.13-.129Zm0-.257-.108.129.108.128.13-.128Zm0-.256-.108.1.108.1.108-.1Zm0-.18-.087.077.087.077.087-.077Zm.3.693-.13.128.13.129.13-.129Zm0-.257-.109.129.109.128.13-.128Zm0-.256-.109.1.109.1.108-.1Zm0-.18-.065.077.086.077.087-.077Zm.325.719-.13.128.13.128.13-.128Zm0-.283-.108.129.108.128.13-.128Zm0-.231L20.9,13l.108.1.109-.1Zm0-.205-.087.077.087.077.087-.077Zm.3.719-.13.128.13.128.13-.128Zm0-.283-.109.129.109.128.13-.128Zm0-.231L21.2,13l.109.1.108-.1Zm0-.205-.087.077.087.077.087-.077Zm.325.719-.152.128.13.128.131-.128Zm0-.283-.108.129.108.128.13-.128Zm0-.231-.108.1.108.1.109-.1Zm0-.205-.087.1.087.077.065-.077Zm.3.719-.13.154.13.128.13-.128Zm0-.257-.109.128.109.129.13-.129Zm0-.257-.109.1.109.1.108-.1Zm0-.179-.065.077.086.077.087-.077Zm1.583-.539h0v0Zm.326,0h0v0Zm.3,0h0v0Zm.326,0h0v0Zm.325,0h0v0Zm.3,0h0v0Zm-1.584.1h0v0Zm.326,0h0v0Zm.3,0h0v0Zm.326,0h0v0Zm.3,0h0v0Zm.326,0h0v0Zm-2.842,1.129-.152.154.13.128.131-.128Zm0-.257-.13.1.13.128.109-.128Zm0-.257-.108.1.108.1.109-.1Zm0-.179-.087.077.087.077.087-.077Zm.326.693-.152.154.13.128.13-.128Zm0-.257-.131.128.131.129.108-.129Zm0-.257-.109.1.109.1L22.7,13Zm0-.179-.087.077.087.077.086-.077Zm.3.718-.13.129.13.128.13-.128Zm0-.282-.108.128.13.129.108-.129Zm0-.231-.108.1.108.1.109-.1Zm0-.205-.087.077.087.077.087-.077Zm.326.718-.152.129.13.128.13-.128Zm0-.282-.131.128.131.129.108-.129Zm0-.231-.109.1.109.1.108-.1Zm0-.205-.087.077.087.077.086-.077Zm.3.718-.13.129.13.128.13-.128Zm0-.282-.13.128.13.129.109-.129Zm0-.231-.086.1.108.1.108-.1Zm0-.205-.065.077.087.077.087-.077Zm0-.257-.021.026L21.787,8.35l-1.714,4.132-.043-.026-.043.052.043.051.043-.026-.021.077-.065.051.065.052.065-.052-.044-.051h.282l-.043.051.065.052.065-.052L20.4,12.61h.282l-.065.026.065.051.065-.051-.044-.052h.282l-.043.052.065.051.065-.051-.043-.052h.282l-.044.052.065.051.066-.051-.044-.052h.282l-.043.052.065.051.065-.051-.043-.052h.282l-.044.052.065.051.065-.051L22,12.584h.282l-.043.052.065.051.065-.051-.044-.052h.239l-.044.052.066.051.065-.051-.044-.052h.282l-.043.052.065.051.065-.051-.043-.052h.282l-.044.052.065.051.065-.051-.043-.052h.282l-.043.052.065.051.065-.051a.2.2,0,0,1-.065-.128l.021.025.044-.051Zm0-.1h0v0Zm.326,1.077-.13.129.13.128.13-.128Zm0-.256-.13.128.13.128.108-.128Zm0-.257-.109.1.109.1.108-.1Zm0-.18-.087.077.087.077.086-.077Zm0-.179-.065.051.065.051.065-.051Zm0-.1-.044.052.044.051.043-.051Zm0-.077h0v0Zm.3,1.052-.13.129.13.128.131-.128Zm0-.256-.13.128.13.128.131-.128Zm0-.257-.108.1.108.1.109-.1Zm0-.18-.065.077.087.077.087-.077Zm0-.154-.065.052.065.051.065-.051Zm0-.128-.043.052.043.051.044-.051Zm0-.077h0v0Zm.326,1.694a.32.32,0,0,0-.152.154c.111.176.192.176.3,0A.325.325,0,0,0,24.477,14.073Zm0-.308a.373.373,0,0,0-.152.128c.1.144.2.144.3,0C24.579,13.849,24.53,13.8,24.477,13.765Zm0-.308-.13.128.13.129.13-.129Zm0-.282-.13.128.13.128.108-.128Zm0-.231-.109.1.109.1.108-.1Zm0-.206-.087.077.087.077.087-.077Zm0-.154-.065.052.065.051.065-.051Zm0-.128-.044.052.044.051.043-.051Zm0-.077h0v0ZM16.429,16V16.2l-.043.025A.5.5,0,0,1,16.429,16Zm0,0,.022-.052h.26v-.282h-.13l.022-.051h.086a1.387,1.387,0,0,1,.065-.385v.051a.4.4,0,0,0,.217,0,.654.654,0,0,0,0-.257.728.728,0,0,0-.13-.025l.022-.052h0l.108-.025c.033-.1.055-.138,0-.231l.087-.18c.006.156.2.145.253.043.068-.13-.081-.277-.188-.2l.044-.077c.083.063.15-.057.195-.128-.027-.043-.045-.092-.087-.1l.2-.436.044.051.13-.128-.109-.1.2-.436.086.077.109-.1-.109-.1-.065.051.044-.1a.25.25,0,0,0,.108-.077l-.043-.051,2.087-4.72a2.336,2.336,0,0,0,.212-1.644,15.167,15.167,0,0,0,1.8.15c.256.006.512,0,.768,0,.141,0,.171.065.265.195s.174.249.254.379a10.272,10.272,0,0,1,.581,1.17l1.524,3.351.292.642c.068.148.1.16.044.319l.065.051.021-.025.239.539-.065.077.13.128.022-.026.065.18-.109-.1-.13.129.13.128.13-.128.109.231-.043.1a.38.38,0,0,0,.151.129l.022.051c-.084-.063-.15.057-.195.128.062.1.2.246.26.052a.915.915,0,0,1,.061.144c.012.052,0,.085.007.128.022.109.1.1.127.189-.153-.01-.122.179-.086.283a.4.4,0,0,0,.217,0v-.026a1.175,1.175,0,0,1,.108.359h.065l.022.052h-.109a.649.649,0,0,0,0,.256h.217l.022.052h-.26V15.9h.282v-.231a.33.33,0,0,1,.043.205h.065l.022.052H27.21v.153h-.043v-.153h-.282v.128h-.044v-.128h-.282v.128h-.043V15.9h-.26v.154h-.044v-.18H25.93v.18h-.043v-.18h-.282V16.1h-.044v-.231h-.282v.257h-.043v-.257h-.282v.257h0V15.9h-.282v.154c-.071-.084-.028-.182,0-.282V15.9h.282v-.282h-.26v-.052h.238a.649.649,0,0,0,0-.256h-.238v-.052a.571.571,0,0,0,.26,0,.649.649,0,0,0,0-.256.571.571,0,0,0-.26,0l-.022.1c-.045-.16-.037-.288-.087-.436h-.043l-.022-.077c.2-.016.058-.378-.108-.257l-.2-.436a.214.214,0,0,0,.087-.077.381.381,0,0,0-.152-.128.526.526,0,0,0-.13.128l.065.077h-.152L24,13.816c-.084-.116-.218-.184-.282,0l.065.077h-.152l.065-.077c-.1-.144-.2-.144-.3,0l.065.077h-.152l.065-.077a1.222,1.222,0,0,0-.151-.154.2.2,0,0,0-.131.154l.066.077H23l.065-.077c-.1-.144-.2-.144-.3,0l.065.077h-.152l.065-.077c-.083-.116-.217-.184-.282,0l.065.077h-.173l.065-.077c-.083-.116-.217-.184-.282,0l.065.077h-.152l.065-.077c-.1-.144-.2-.144-.3,0l.065.077h-.152l.065-.077c-.083-.116-.218-.184-.282,0l.065.077h-.152l.065-.077c-.1-.144-.2-.144-.3,0l.065.077h-.152l.065-.077c-.084-.116-.218-.184-.282,0l.065.077h-.152l.044-.077a.387.387,0,0,0-.152-.128.494.494,0,0,0-.13.128l.065.077h-.152l.065-.077c-.084-.116-.218-.184-.282,0l.065.077H20.16l.065-.077c-.1-.144-.2-.144-.3,0l.066.077h-.152l.065-.077a1.3,1.3,0,0,0-.152-.154.325.325,0,0,0-.152.154l.065.077h-.152l.065-.077c-.083-.116-.217-.184-.282,0a.289.289,0,0,0,.109.1,2.3,2.3,0,0,0-.2.436c-.191-.16-.333.218-.109.231-.024.086-.092.059-.115.16-.016.076.017.137.012.22a2.579,2.579,0,0,0,0,.621h0v.051h-.044v.1H18.9v-.1H18.62v.129h-.043v-.129H18.3v.129h-.044v-.129h-.238v.18h-.044v-.18h-.282v.206h-.043v-.206h-.282V15.9h-.044v-.282h-.282V15.9h.044v.026h-.044V15.9h-.282V16h-.043v-.1ZM24.8,14.714l-.108.026a.284.284,0,0,0,0,.257.4.4,0,0,0,.217,0,.29.29,0,0,0,0-.257Zm0-.308c-.058.028-.152.055-.152.154a.181.181,0,0,0,.152.154.176.176,0,0,0,.149-.146C24.958,14.466,24.865,14.436,24.8,14.406Zm0-.333a.325.325,0,0,0-.152.154c.112.176.193.176.3,0A.32.32,0,0,0,24.8,14.073Zm0-.308a.379.379,0,0,0-.152.128c.1.144.2.144.3,0C24.9,13.849,24.855,13.8,24.8,13.765Zm0-.308-.13.128.13.129.13-.129Zm0-.282-.13.128.13.128.13-.128Zm0-.231-.108.1.108.1.109-.1Zm0-.206-.087.077.087.077.087-.077Zm0-.154-.065.052.065.051.065-.051Zm0-.128-.043.052.043.051.044-.051Zm0-.077h0v0Zm.456,3.285H25v.282h.282Zm-.022-.308H25a.654.654,0,0,0,0,.257h.239A.654.654,0,0,0,25.236,15.356Zm-.13-.308-.13.026a.649.649,0,0,0,0,.256.571.571,0,0,0,.26,0,.649.649,0,0,0,0-.256Zm0-.334L25,14.74A.29.29,0,0,0,25,15a.4.4,0,0,0,.217,0,.284.284,0,0,0,0-.257Zm0-.308c-.058.028-.152.055-.152.154a.181.181,0,0,0,.152.154.176.176,0,0,0,.148-.146C25.261,14.466,25.168,14.436,25.106,14.406Zm0-.307a.32.32,0,0,0-.152.154c.111.175.192.175.3,0A.325.325,0,0,0,25.106,14.1Zm0-.334a.373.373,0,0,0-.152.128c.1.144.2.144.3,0A.379.379,0,0,0,25.106,13.765Zm0-.308-.13.128.13.129.13-.129Zm0-.282L25,13.3l.131.128.13-.128Zm0-.231-.087.1.109.1.108-.1Zm0-.206-.087.077.087.077.087-.077Zm0-.154-.065.052.065.051.065-.051Zm0-.128-.044.052.044.051.043-.051Zm0-.077h0v0Zm.325-.179h0v0Zm0,.1h0v0Zm.13,3.388H25.3v.282h.282Zm0-.437h-.238a.654.654,0,0,0,0,.257h.238A.654.654,0,0,0,25.561,15.253Zm-.13-.308-.13.026a.654.654,0,0,0,0,.257.6.6,0,0,0,.26,0,.654.654,0,0,0,0-.257Zm0-.308-.108.026a.287.287,0,0,0,0,.257.4.4,0,0,0,.217,0,.29.29,0,0,0,0-.257Zm0-.333c-.058.027-.152.054-.152.154a.182.182,0,0,0,.152.154.176.176,0,0,0,.149-.146C25.587,14.364,25.494,14.333,25.431,14.3Zm0-.308a.325.325,0,0,0-.152.154c.112.176.193.176.3,0A.32.32,0,0,0,25.431,14Zm0-.334a.2.2,0,0,0-.13.154c.1.144.2.144.3,0A.746.746,0,0,0,25.431,13.662Zm0-.308-.13.129.13.128.13-.128Zm0-.282-.13.128.13.129.13-.129Zm0-.231-.108.1.108.1.109-.1Zm0-.205-.087.077.087.077.087-.077Zm0-.154-.043.077.065.051.065-.051Zm0-.1-.043.026.043.051.044-.051Zm0-.1h0v0Zm.456,3.31h-.282v.282h.282Zm-.022-.334h-.239a.815.815,0,0,0,0,.283h.239A.815.815,0,0,0,25.865,15.253Zm-.108-.308-.131.026a.654.654,0,0,0,0,.257.6.6,0,0,0,.261,0,.654.654,0,0,0,0-.257Zm0-.308c-.148.035-.162.1-.109.257a.4.4,0,0,0,.217,0,.287.287,0,0,0,0-.257Zm0-.333c-.059.027-.152.054-.152.154a.182.182,0,0,0,.152.154.176.176,0,0,0,.148-.146C25.912,14.364,25.819,14.333,25.757,14.3Zm0-.308a.373.373,0,0,0-.152.128c.111.176.192.176.3,0C25.859,14.08,25.809,14.035,25.757,14Zm0-.308a.381.381,0,0,0-.152.128c.1.144.2.144.3,0C25.859,13.772,25.809,13.727,25.757,13.688Zm0-.334-.152.154.13.129.13-.129Zm0-.256-.131.128.131.128.13-.128Zm0-.257-.109.1.109.1.108-.1Zm0-.18-.087.077.087.077.086-.077Zm.455,2.926H25.93v.282h.282Zm-.022-.308h-.238a.654.654,0,0,0,0,.257h.238A.618.618,0,0,0,26.19,15.279Zm-.13-.334-.13.026a1.478,1.478,0,0,0,.022.257.6.6,0,0,0,.26,0,.654.654,0,0,0,0-.257Zm0-.308-.108.026a.287.287,0,0,0,0,.257.4.4,0,0,0,.217,0,.29.29,0,0,0,0-.257Zm0-.308c-.058.028-.152.055-.152.154a.181.181,0,0,0,.152.154.176.176,0,0,0,.149-.146C26.216,14.389,26.123,14.359,26.06,14.329Zm0-.333a.325.325,0,0,0-.152.154c.112.176.193.176.3,0A.316.316,0,0,0,26.06,14Zm0-.308a.209.209,0,0,0-.13.128c.1.144.2.144.3,0A.388.388,0,0,0,26.06,13.688Zm.456,1.9h-.26v.282h.282Zm-.022-.308h-.238a.618.618,0,0,0,0,.257h.238A.654.654,0,0,0,26.494,15.279Zm-.108-.334-.13.026a1.477,1.477,0,0,0,.021.257.6.6,0,0,0,.261,0,.654.654,0,0,0,0-.257Zm0-.308-.109.026a.29.29,0,0,0,0,.257.4.4,0,0,0,.217,0,.287.287,0,0,0,0-.257Zm0-.308c-.059.028-.152.055-.152.154a.181.181,0,0,0,.152.154.176.176,0,0,0,.148-.146C26.541,14.389,26.448,14.359,26.386,14.329Zm.455,1.258h-.282v.282h.282Zm-.021-.308h-.239a.654.654,0,0,0,0,.257h.239A.654.654,0,0,0,26.82,15.279Zm-.109-.334-.13.026a.654.654,0,0,0,0,.257.6.6,0,0,0,.26,0,.654.654,0,0,0,0-.257ZM22.98,7.375h-.043c.612,1.231,1.131,2.532,1.684,3.8l.268.613h.13L23.267,8.01C23.17,7.8,23.075,7.587,22.98,7.375Z"/><path class="b" d="M14.48,2.539l.152-.051A2.777,2.777,0,0,0,16.758,4.7,2.448,2.448,0,0,1,14.48,2.539Zm5.206.308c.152.436-.282.642-.694.488A.666.666,0,0,0,19.686,2.847Zm5.55,2.193c-.074,0-.2-.127-.174-.231.023-.077.207-.177.261-.207a.864.864,0,0,1,.607-.088.92.92,0,0,1,.651.885c-.144-.725-.953-.978-1.345-.359ZM10.7,18.673a1.271,1.271,0,0,0-.759,1.308h0A1.385,1.385,0,0,1,9.835,19C9.967,18.516,10.35,18.534,10.7,18.673ZM16.863,19a.377.377,0,0,1-.3-.334c1.176-.811,2.882.294,2.907,1.9-.18-1.307-1.578-2.373-2.6-1.565Z"/><path class="g" d="M27.074,9.788c.7.1,1.985.529,2.082-.847h-.065c0,1.093-1.852,1.157-1.6-.039.18-.854,1.251.154,1.251-.7-.757-.613-2.338.365-1.454,1.411A.265.265,0,0,0,27.074,9.788Z"/><path class="g" d="M34.666,13.224l.042-.1c2.448-.153,5.138-.9,4.373-4.229C38.254,5.3,33.506,6.221,31.2,6.221a21.842,21.842,0,0,1-3.427-.206c1.426.447,1.949,5.212,1.427,8.061-.2-1.109-1.239-1.784-1.037-2.98-1.743.645,1.036,2.206.934,3.467a2.3,2.3,0,0,1-.89,1.563h4.75c-.949-.449-.983-1.961-.889-2.977.623,0,1.507.033,2.443-.014a1.2,1.2,0,0,0-1.163,1.09c.054,1.857,2.412,1.283,1.576.287-.124-.148-.657.745-1.175.207C33.059,14.009,34.081,13.224,34.666,13.224Zm-2.625-2.36c.012-1.11-.171-1.548.432-1.951a6.138,6.138,0,0,1,2.844,0C38.45,10.826,32.867,10.864,32.041,10.864Z"/><path class="b" d="M38.286,10.519l.109.025a2.733,2.733,0,0,0-2-3.361v.025a2.675,2.675,0,0,1,1.887,3.311Zm-2.971.744c.89.211,1.475-.959,1.22-1.878a1.218,1.218,0,0,0-.819-.915,1.809,1.809,0,0,0-.493,0c-.878.022-1.759,0-2.637,0h-.937v2.771h3.666ZM31.215,6.7h3.438a8.481,8.481,0,0,1,1.5.056A3.225,3.225,0,0,1,38.6,8.7a3.01,3.01,0,0,1-1.164,3.561l-.021-.026-.022.026.022.025a3.005,3.005,0,0,1-.911.411l.021-.026-.065-.051-.065.051.044.026c-.087.026-.2.051-.282.077h0c-.082.023-.248.075-.3-.026-.054.1-.258.079-.325,0a.263.263,0,0,1-.348,0,.237.237,0,0,1-.325,0,.237.237,0,0,1-.325,0,.238.238,0,0,1-.326,0,.237.237,0,0,1-.325,0,.237.237,0,0,1-.325,0,.238.238,0,0,1-.326,0,.237.237,0,0,1-.325,0,.238.238,0,0,1-.326,0,.237.237,0,0,1-.325,0,.237.237,0,0,1-.325,0,.238.238,0,0,1-.326,0l-.087.077c.06.044.044.107.044.18l-.065.051.065.052c0,.125,0,.13-.087.205.134.119.1.2-.022.308.063.059.134.1.109.205a.333.333,0,0,0-.109.1.3.3,0,0,0,.109.1v.1a.321.321,0,0,0-.109.128c.033.052.056.1.109.129v.077c-.13.011-.133.245,0,.256v.052H31.5c-.037.109-.065.285.087.282v.051l-.131.026a.649.649,0,0,0,0,.256.723.723,0,0,0,.2.026l.021.051h-.108a.654.654,0,0,0,0,.257H31.8l.022-.128a.7.7,0,0,0,.087.179h-.043v.1h-.022v-.1h-.282v.1h-.043v-.1h-.282v.1h-.044v-.1h-.282v.1h-.043v-.1h-.282v.1h-.044v-.1H30.26v.1h0v-.1h-.282v.1h-.043v-.1h-.282v.1H29.61v-.1h-.282v.1h-.044v-.1H29.2l.022-.051h.044a2.975,2.975,0,0,1,.086-.334.484.484,0,0,0,.239,0,.649.649,0,0,0,0-.256.861.861,0,0,0-.174-.026v-.051a.654.654,0,0,0,.152-.026c.037-.109.065-.285-.087-.282h0v-.026h0c.179-.084.18-.223,0-.308v-.051a.316.316,0,0,0,.152-.154.32.32,0,0,0-.152-.154v-.051a.189.189,0,0,1,.131-.052.387.387,0,0,0-.152-.128c-.006-.085.079-.129.13-.18-.154-.151-.155-.155,0-.307-.133-.132-.162-.124-.022-.257-.111-.105-.143-.123-.021-.231-.044-.038-.1-.058-.087-.128l.065-.052-.065-.051a.106.106,0,0,1,.043-.1.083.083,0,0,1-.022-.128.07.07,0,0,1,0-.1.069.069,0,0,1,0-.1c-.07-.089-.021-.393-.021-.508V8.118A2.738,2.738,0,0,0,29,6.567,16.059,16.059,0,0,0,31.215,6.7Zm5.857,5.748h0v0Zm-.3,0h0v0Zm0,.077-.043.052.043.051.043-.051Zm.3-.154h0v0Zm-.3,0h0v0Zm.3-.1h0v0Zm-.3,0h0v0Zm-.325.179h0v0Zm0,.077-.044.052.044.051.043-.051Zm-.3-.077h0v0Zm0,.077-.043.052.043.051.043-.051Zm0,.129-.065.051.065.051L36.2,12.7Zm-.325-.206h0v0Zm0,.077-.044.052.044.051.043-.051Zm0,.129-.066.051.066.051.065-.051Zm-.326-.206h0v0Zm0,.077-.043.052.043.051.044-.051Zm0,.129-.065.051.065.051.065-.051Zm-.3-.206h0v0Zm0,.077-.043.052.043.051.044-.051Zm0,.129-.065.051.065.051.066-.051Zm-.325-.206h0v0Zm0,.077-.043.052.043.051.043-.051Zm0,.129-.065.051.065.051.065-.051Zm-.3-.206h0v0Zm0,.077-.043.052.043.051.044-.051Zm0,.129-.065.051.065.051.065-.051Zm-.325-.206h0v0Zm0,.077-.043.052.043.051.043-.051Zm0,.129-.065.051.065.051L34.3,12.7Zm-.3-.206h0v0Zm0,.077-.043.052.043.051.044-.051Zm0,.129-.065.051.065.051.065-.051Zm-.325-.206h0v0Zm0,.077-.043.052.043.051.043-.051Zm0,.129-.065.051.065.051.065-.051Zm2.842-.283h0v0Zm-.3,0h0v0Zm-.325,0h0v0Zm-.3,0h0v0Zm-.326,0h0v0Zm-.3,0h0v0Zm-.326,0h0v0Zm-.325,0h0v0Zm-.3,0h0v0Zm-.325,0h0v0Zm2.863-.1h0v0Zm-.325,0h0v0Zm-.3,0h0v0Zm-.325,0h0v0Zm-.326,0h0v0Zm-.3,0h0v0Zm-.326,0h0v0Zm-.3,0h0v0Zm-.326,0h0v0Zm-.3,0h0v0Zm-.326.179h0v0Zm0,.077-.043.052.043.051.044-.051Zm0,.129-.065.051.065.051.065-.051Zm-.325-.206h0v0Zm0,.1-.044.051.044.052.043-.052Zm0,.1-.065.051.065.051.065-.051Zm-.3-.206h0v0Zm0,.1-.043.051.043.052.044-.052Zm0,.1L32.6,12.7l.065.051.065-.051Zm-.325-.18h0v0Zm0,.077L32.3,12.6l.044.052.043-.052Zm0,.1-.065.051.065.051.065-.051Zm-.3-.18h0v0Zm0,.077L32,12.6l.043.052.043-.052Zm0,.1-.065.051.065.051L32.1,12.7Zm-.325-.18h0v0Zm0,.077-.044.051.044.052.043-.052Zm0,.1-.065.051.065.051.065-.051Zm-.3-.18h0v0Zm0,.077-.043.051.043.052.043-.052Zm0,.1-.065.051.065.051.065-.051Zm0,.179-.087.077.087.077.087-.077Zm0,.18-.108.1.108.1.109-.1Zm0,.257-.13.128.13.128.13-.128Zm0,.256-.13.128.13.129.13-.129Zm0,.334a.379.379,0,0,0-.152.128c.1.144.2.144.3,0A.379.379,0,0,0,31.41,13.855Zm0,.308a.32.32,0,0,0-.152.154c.112.175.192.175.3,0A.32.32,0,0,0,31.41,14.163Zm0,.308c-.058.027-.152.054-.152.154a.182.182,0,0,0,.152.154.177.177,0,0,0,.148-.146C31.565,14.531,31.473,14.5,31.41,14.471Zm0,.333-.108.026a.284.284,0,0,0,0,.257.4.4,0,0,0,.217,0,.29.29,0,0,0,0-.257Zm0,.308-.13.026a.649.649,0,0,0,0,.256.571.571,0,0,0,.26,0,.649.649,0,0,0,0-.256Zm.109.308H31.28a.654.654,0,0,0,0,.257H31.5A1.478,1.478,0,0,0,31.519,15.42Zm-.434-2.977h0v0Zm0,.1-.044.051.044.052.043-.052Zm0,.1-.065.051.065.051.065-.051Zm0,.154L31,12.88l.087.077.086-.077Zm0,.2-.109.1.109.1.108-.1Zm0,.231-.13.128.13.128.13-.128Zm0,.282-.13.128.13.129.13-.129Zm0,.308a.381.381,0,0,0-.152.128c.1.145.2.145.3,0A.387.387,0,0,0,31.085,13.829Zm0,.334a.316.316,0,0,0-.152.154c.111.175.192.175.3,0A.325.325,0,0,0,31.085,14.163Zm0,.308c-.059.027-.152.054-.152.154a.182.182,0,0,0,.152.154.177.177,0,0,0,.148-.146C31.24,14.531,31.147,14.5,31.085,14.471Zm0,.333-.109.026a.29.29,0,0,0,0,.257.4.4,0,0,0,.217,0,.287.287,0,0,0,0-.257Zm0,.308-.13.026a.614.614,0,0,0,0,.256.571.571,0,0,0,.26,0,.649.649,0,0,0,0-.256Zm.13.308h-.239a.654.654,0,0,0,0,.257h.239A.654.654,0,0,0,31.215,15.42Zm-.434-2.977h0v0Zm0,.077-.043.052.043.051.043-.051Zm0,.129-.065.051.065.051.065-.051Zm0,.154-.087.077.087.077.087-.077Zm0,.2-.108.1.108.1.108-.1Zm0,.231-.13.128.13.128.13-.128Zm0,.282-.13.128.13.129.13-.129Zm0,.308a.387.387,0,0,0-.152.128c.1.145.2.145.3,0A.387.387,0,0,0,30.781,13.829Zm0,.334a.32.32,0,0,0-.152.154c.112.175.192.175.3,0A.32.32,0,0,0,30.781,14.163Zm0,.308c-.058.027-.152.054-.152.154a.182.182,0,0,0,.152.154.177.177,0,0,0,.148-.146C30.936,14.531,30.844,14.5,30.781,14.471Zm0,.308-.108.025a.284.284,0,0,0,0,.257.4.4,0,0,0,.216,0,.284.284,0,0,0,0-.257Zm0,.333-.13.026a.649.649,0,0,0,0,.256.571.571,0,0,0,.26,0,1.57,1.57,0,0,0-.022-.282Zm.108.308h-.238a.654.654,0,0,0,0,.257h.238A.618.618,0,0,0,30.889,15.42Zm-.433-2.977h0v0Zm0,.077-.044.052.044.051.043-.051Zm0,.129-.065.051.065.051.065-.051Zm0,.154-.087.077.087.077.086-.077Zm0,.2-.109.1.109.1.108-.1Zm0,.231-.131.128.131.128.13-.128Zm0,.282-.131.128.131.129.13-.129Zm0,.308a.381.381,0,0,0-.152.128c.1.145.2.145.3,0A.378.378,0,0,0,30.456,13.829Zm0,.334a.316.316,0,0,0-.152.154c.111.175.192.175.3,0A.318.318,0,0,0,30.456,14.163Zm0,.308c-.059.027-.152.054-.152.154a.182.182,0,0,0,.152.154.177.177,0,0,0,.148-.146C30.611,14.531,30.518,14.5,30.456,14.471Zm0,.308-.109.025a.29.29,0,0,0,0,.257.4.4,0,0,0,.217,0,.287.287,0,0,0,0-.257Zm0,.333-.131.026a.649.649,0,0,0,0,.256.575.575,0,0,0,.261,0,.649.649,0,0,0,0-.256Zm.13.308h-.239a.654.654,0,0,0,0,.257h.239A.654.654,0,0,0,30.586,15.42ZM33.3,12.366h0v0Zm-.3,0h0v0Zm-.326,0h0v0Zm-.3,0h0v0Zm-.325,0h0v0Zm-.3,0h0v0Zm-.325,0h0v0Zm-.3,0h0v0Zm-.325,0h0v0Zm-.325,0h0v0Zm2.863-.1h0v0Zm-.325,0h0v0Zm-.3,0h0v0Zm-.326,0h0v0Zm-.325,0h0v0Zm-.3,0h0v0Zm-.325,0h0v0Zm-.3,0h0v0Zm-.325,0h0v0Zm-.3,0h0v0Zm-.325.179h0v0Zm0,.077-.043.052.043.051.043-.051Zm0,.129-.065.051.065.051.065-.051Zm0,.154-.087.077.087.077.087-.077Zm0,.2-.109.1.109.1.108-.1Zm0,.231-.13.128.13.128.13-.128Zm0,.282-.13.128.13.129.13-.129Zm0,.308a.387.387,0,0,0-.152.128c.1.145.2.145.3,0A.387.387,0,0,0,30.152,13.829Zm0,.308a.32.32,0,0,0-.152.154c.111.176.192.176.3,0A.32.32,0,0,0,30.152,14.137Zm0,.334c-.058.027-.152.054-.152.154a.182.182,0,0,0,.152.154.177.177,0,0,0,.148-.146C30.307,14.531,30.215,14.5,30.152,14.471Zm0,.308-.109.025a.29.29,0,0,0,0,.257.4.4,0,0,0,.217,0,.284.284,0,0,0,0-.257Zm0,.333-.13.026a.649.649,0,0,0,0,.256.571.571,0,0,0,.26,0,.649.649,0,0,0,0-.256Zm.13.308h-.239a.654.654,0,0,0,0,.257h.2Zm-.434-2.977h0v0Zm0,.077-.043.052.043.051.044-.051Zm0,.129-.065.051.065.051.065-.051Zm0,.154-.087.077.087.077.087-.077Zm0,.2-.108.1.108.1.109-.1Zm0,.231-.13.128.13.128.13-.128Zm0,.282-.13.128.13.129.13-.129Zm0,.308a.387.387,0,0,0-.152.128c.1.145.2.145.3,0A.381.381,0,0,0,29.848,13.829Zm0,.308a.325.325,0,0,0-.152.154c.112.176.193.176.3,0A.32.32,0,0,0,29.848,14.137Zm0,.334c-.058.027-.152.054-.152.154a.182.182,0,0,0,.152.154A.177.177,0,0,0,30,14.633C30,14.531,29.911,14.5,29.848,14.471Zm0,.308-.108.025a.284.284,0,0,0,0,.257.4.4,0,0,0,.217,0,.29.29,0,0,0,0-.257Zm0,.308-.13.025a.654.654,0,0,0,0,.257.6.6,0,0,0,.26,0,.654.654,0,0,0,0-.257Zm.109.333h-.239a.654.654,0,0,0,0,.257h.239A.654.654,0,0,0,29.957,15.42Zm-.3,0h-.239a.654.654,0,0,0,0,.257h.217A1.478,1.478,0,0,0,29.653,15.42Zm.5-3.054h0v0Zm-.3,0h0v0Zm.3-.1h0v0Zm-.3,0h0v0Z"/><path class="b" d="M28.373,12.8c-.325-.154-.788-.6-.5-1.053A1.444,1.444,0,0,0,28.373,12.8Z"/><path class="h" d="M36.892,16.766l.021-.128a2.407,2.407,0,0,0-2.494,1.206A2.731,2.731,0,0,1,36.892,16.766Z"/><path class="h" d="M34.506,18.511c.059-.035-1.368.185-1.41.487C33.1,19.881,34.39,18.785,34.506,18.511Z"/><path class="h" d="M43.719,9.914a1.546,1.546,0,0,0,.167,2.28c.793.634,1.465-.6.961-.689,0,.44-.716.152-.716-.282.2-3.265,3.25.587,3.514.847C47.445,9.787,43.719,9.173,43.719,9.914Z"/><path class="h" d="M37.89,17.2a2.373,2.373,0,0,1,.846,2.515C39.059,18.858,38.7,17.418,37.89,17.2Z"/><path class="h" d="M35.969,18.306c.542,1.283,1.28,1.488,2.494,1.642v-.026C37.644,19.922,36.869,17.6,35.969,18.306Z"/><path class="h" d="M42.585,13.637V7.555c0-2.451,3.458-1.656,2.088-.048.09-.106-2.615-.153-.526.69a1.228,1.228,0,0,0,.985-1.843c-.49-1.078-2.055-.3-2.733-.2a24.91,24.91,0,0,1-3.675.12c1.072.508,1.418,4.266,1.035,7.083-.234-.982-1.335-.65-1.935-.567.044.1.109.18.217.18-.8,1.112.722,2.006,1.475,1.411,0-.91-1.329.214-1.323-.924.007-1.2,1.227-.517,1.547.031-.227,1.558-.68,2.8-1.363,3l.374-.047c-1.375.554-2.681,1.331-4.171,1.945a1.311,1.311,0,0,1,.521.205c-4.022,5.509,6.305,6.245,4.36,2.1-.513,2.795-3.457-1.23-4.078,1.463-3.037-3.593,3.46-5.619,6.144-6.047a13.387,13.387,0,0,1,6,.48c0-1.437.325-2.951.325-4.311h-.2C47.661,14.3,43.629,13.637,42.585,13.637Z"/><path class="b" d="M41.966,7.7h-.044l-.065,4h.13Zm5.249,6.133a.387.387,0,0,0-.152.128c.1.145.2.145.3,0A.381.381,0,0,0,47.215,13.829Zm0,.308a.325.325,0,0,0-.152.154c.112.176.193.176.3,0A.32.32,0,0,0,47.215,14.137Zm0,.308c-.058.028-.152.054-.152.154a.181.181,0,0,0,.152.154.176.176,0,0,0,.149-.146C47.371,14.505,47.278,14.475,47.215,14.445Zm0,.334-.108.025a.284.284,0,0,0,0,.257.4.4,0,0,0,.217,0,.29.29,0,0,0,0-.257Zm0,.308-.13.025a.654.654,0,0,0,0,.257.5.5,0,0,0,.239,0v.051h-.217a.654.654,0,0,0,0,.257h.2v.051h-.217v.282h.2v.052h-.2l-.174-.052h.131v-.282H46.76v.231h-.044v-.231h-.282v.18h-.043v-.154h-.282v.128h-.043v-.128h-.282v.1H45.74v-.1H45.5v.1h-.044v-.1h-.282v.1h-.043v-.1h-.282v.1h-.044v-.1h-.282v.1h-.043v-.1H44.2v.1h0v-.1h-.282v.1h-.043v-.1h-.282v.1h-.044v-.1h-.282v.1h-.043v-.1h-.282v.1H42.9v-.1h-.282v.1h-.043v-.1h-.282v.1h-.043v-.1h-.282v.1h-.044v-.1H41.64v.1H41.6v-.1H41.38v.1h-.043v-.1h-.282v.128h-.044v-.128h-.282v.128h-.043v-.128H40.4v.154H40.36v-.154h-.282v.179h0v-.179h-.26c.046-.089.164-.052.239-.052a.649.649,0,0,0,0-.256H39.97l.022-.052h.065a1.959,1.959,0,0,0,0-.23c.006-.18.044-.355.043-.539.054.152.314.163.3-.034-.014-.216-.255-.143-.3.008v-.282c.116.161.2.131.3-.026-.112-.176-.192-.176-.3,0v-.308c.124.109.2.121.3-.026-.1-.144-.2-.144-.3,0v-.308l.13.129.13-.129-.13-.128-.13.128V8.23A2.924,2.924,0,0,0,39.8,6.7a10.3,10.3,0,0,0,2.8-.18,6.192,6.192,0,0,0-.3,2.805v4.3l-.13-.129-.13.129.13.128.13-.128v.308c-.074-.066-.248-.172-.26.025.1.145.2.145.3,0v.077c.072,0,.136.051.2.052s.116-.066.2-.052a.58.58,0,0,0,.169.026.609.609,0,0,1,.2-.022c.025.006.055.048.08.048s.06-.045.087-.052c.083-.02.14.03.21.035a1.234,1.234,0,0,0,.173-.035c.077-.007.13.042.2.044s.117-.062.2-.044c.025.006.061.033.083.035.045,0,.053-.019.1-.027a.5.5,0,0,1,.172,0c.031.007.057.042.087.044s.065-.041.091-.048c.085-.022.144.045.214.044s.109-.044.176-.044.121.044.176.044c.074,0,.13-.064.22-.044.03.007.062.052.092.052s.062-.046.092-.052c.088-.016.157.052.227.048s.127-.068.22-.048.107.069.2,0a.436.436,0,0,1,.158.03c.037.013.058.044.094.039.072-.008.108-.106.181-.12.065.184.2.117.282,0l-.043-.051a1.2,1.2,0,0,0,.152-.052l-.087.1c.069.093.144.159.239.077-.1-.068-.183-.166-.282-.231.092-.027.223-.161.3-.051l.131-.129-.022-.025a.787.787,0,0,0,.217-.18v.077l-.13.128.108.1c0,.109-.076.132-.13.205a.147.147,0,0,0,.087.077.769.769,0,0,1-.065.231c.085.061.022.213.021.308h0l-.065.539v-.051Zm-.3-.95a.318.318,0,0,0-.151.154c.111.176.192.176.3,0A.316.316,0,0,0,46.911,14.137Zm0,.308c-.058.028-.151.054-.151.154a.181.181,0,0,0,.151.154.176.176,0,0,0,.149-.146C47.067,14.505,46.974,14.475,46.911,14.445Zm0,.334L46.8,14.8a.287.287,0,0,0,0,.257.4.4,0,0,0,.217,0,.287.287,0,0,0,0-.257Zm0,.308-.13.025a.654.654,0,0,0,0,.257.6.6,0,0,0,.261,0,.654.654,0,0,0,0-.257Zm.109.307h-.239a.654.654,0,0,0,0,.257h.239A.654.654,0,0,0,47.02,15.394Zm-.434-1.257a.325.325,0,0,0-.152.154c.112.176.193.176.3,0A.32.32,0,0,0,46.586,14.137Zm0,.308c-.06.029-.142.05-.148.146a.132.132,0,0,0,.148.136.17.17,0,0,0,.145-.138C46.745,14.475,46.659,14.462,46.586,14.445Zm0,.334-.108.025a.284.284,0,0,0,0,.257.4.4,0,0,0,.217,0,.29.29,0,0,0,0-.257Zm0,.308-.13.025a.654.654,0,0,0,0,.257.6.6,0,0,0,.26,0,.654.654,0,0,0,0-.257Zm.13.307h-.238a.654.654,0,0,0,0,.257h.238A.654.654,0,0,0,46.716,15.394Zm-.434-1.257a.318.318,0,0,0-.151.154c.111.176.192.176.3,0A.316.316,0,0,0,46.282,14.137Zm0,.308c-.058.028-.151.054-.151.154a.181.181,0,0,0,.151.154.176.176,0,0,0,.149-.146C46.438,14.505,46.345,14.475,46.282,14.445Zm0,.334-.108.025a.287.287,0,0,0,0,.257.4.4,0,0,0,.217,0,.29.29,0,0,0,0-.257Zm0,.308-.13.025a.654.654,0,0,0,0,.257.6.6,0,0,0,.261,0,.654.654,0,0,0,0-.257Zm.109.307h-.239a.654.654,0,0,0,0,.257h.239A.654.654,0,0,0,46.391,15.394Zm-.434-1.257a.32.32,0,0,0-.152.154c.112.176.192.176.3,0A.32.32,0,0,0,45.957,14.137Zm0,.308c-.058.028-.152.054-.152.154a.181.181,0,0,0,.152.154.176.176,0,0,0,.148-.146C46.112,14.505,46.02,14.475,45.957,14.445Zm0,.334-.108.025a.284.284,0,0,0,0,.257.4.4,0,0,0,.217,0,.29.29,0,0,0,0-.257Zm0,.308-.13.025a.654.654,0,0,0,0,.257.6.6,0,0,0,.26,0,.654.654,0,0,0,0-.257Zm.13.307h-.238a.618.618,0,0,0,0,.257h.238A.654.654,0,0,0,46.087,15.394Zm-.434-1.257a.318.318,0,0,0-.151.154c.111.176.192.176.3,0A.316.316,0,0,0,45.653,14.137Zm0,.308c-.058.028-.151.054-.151.154a.181.181,0,0,0,.151.154.176.176,0,0,0,.149-.146C45.809,14.505,45.716,14.475,45.653,14.445Zm0,.334-.108.025a.287.287,0,0,0,0,.257.4.4,0,0,0,.217,0,.29.29,0,0,0,0-.257Zm0,.308-.13.025a.654.654,0,0,0,0,.257.6.6,0,0,0,.261,0,.654.654,0,0,0,0-.257Zm.109.307h-.239a.654.654,0,0,0,0,.257h.239A.654.654,0,0,0,45.762,15.394Zm-.434-1.257a.32.32,0,0,0-.152.154c.112.176.192.176.3,0A.32.32,0,0,0,45.328,14.137Zm0,.308c-.058.028-.152.054-.152.154a.181.181,0,0,0,.152.154.176.176,0,0,0,.148-.146C45.483,14.505,45.391,14.475,45.328,14.445Zm0,.334-.108.025a.284.284,0,0,0,0,.257.4.4,0,0,0,.216,0,.284.284,0,0,0,0-.257Zm0,.308-.13.025a.654.654,0,0,0,0,.257.6.6,0,0,0,.26,0,.654.654,0,0,0,0-.257Zm.108.307H45.2a.654.654,0,0,0,0,.257h.238A.618.618,0,0,0,45.436,15.394ZM45,14.137a.316.316,0,0,0-.152.154c.111.176.192.176.3,0A.318.318,0,0,0,45,14.137Zm0,.308c-.059.028-.152.054-.152.154a.181.181,0,0,0,.152.154.176.176,0,0,0,.148-.146C45.158,14.505,45.065,14.475,45,14.445Zm0,.334-.109.025a.29.29,0,0,0,0,.257.4.4,0,0,0,.217,0,.287.287,0,0,0,0-.257Zm0,.308-.131.025a.654.654,0,0,0,0,.257.6.6,0,0,0,.261,0,.654.654,0,0,0,0-.257Zm.13.307h-.239a.654.654,0,0,0,0,.257h.239A.654.654,0,0,0,45.133,15.394ZM44.7,14.137a.32.32,0,0,0-.152.154c.111.176.192.176.3,0A.32.32,0,0,0,44.7,14.137Zm0,.308c-.058.028-.152.054-.152.154a.181.181,0,0,0,.152.154.176.176,0,0,0,.148-.146C44.854,14.505,44.762,14.475,44.7,14.445Zm0,.334-.109.025a.29.29,0,0,0,0,.257.4.4,0,0,0,.217,0,.284.284,0,0,0,0-.257Zm0,.308-.13.025a.654.654,0,0,0,0,.257.6.6,0,0,0,.26,0,.654.654,0,0,0,0-.257Zm.108.307h-.238a.654.654,0,0,0,0,.257h.238A.654.654,0,0,0,44.807,15.394Zm-.433-1.257a.316.316,0,0,0-.152.154c.111.176.192.176.3,0A1.158,1.158,0,0,0,44.374,14.137Zm0,.308c-.059.028-.152.054-.152.154a.181.181,0,0,0,.152.154.176.176,0,0,0,.148-.146C44.529,14.505,44.436,14.475,44.374,14.445Zm0,.308-.109.026a.288.288,0,0,0,0,.256.4.4,0,0,0,.217,0,.285.285,0,0,0,0-.256Zm0,.334-.131.025a.654.654,0,0,0,0,.257.6.6,0,0,0,.261,0,.654.654,0,0,0,0-.257Zm.13.307h-.239a.654.654,0,0,0,0,.257H44.5A.654.654,0,0,0,44.5,15.394Zm-.456-1.257a.325.325,0,0,0-.152.154c.112.176.193.176.3,0A.32.32,0,0,0,44.048,14.137Zm0,.308c-.058.028-.152.054-.152.154a.181.181,0,0,0,.152.154.177.177,0,0,0,.149-.146C44.2,14.505,44.111,14.475,44.048,14.445Zm0,.308-.108.026a.282.282,0,0,0,0,.256.4.4,0,0,0,.217,0,.288.288,0,0,0,0-.256Zm0,.334-.13.025a.654.654,0,0,0,0,.257.6.6,0,0,0,.26,0,.654.654,0,0,0,0-.257Zm.13.307H43.94a.654.654,0,0,0,0,.257h.238A.654.654,0,0,0,44.178,15.394Zm-.434-1.257a.318.318,0,0,0-.151.154c.111.176.192.176.3,0A1.107,1.107,0,0,0,43.744,14.137Zm0,.308c-.058.028-.151.054-.151.154a.181.181,0,0,0,.151.154.176.176,0,0,0,.149-.146C43.9,14.505,43.807,14.475,43.744,14.445Zm0,.308-.108.026a.285.285,0,0,0,0,.256.4.4,0,0,0,.217,0,.288.288,0,0,0,0-.256Zm0,.334-.13.025a.654.654,0,0,0,0,.257.6.6,0,0,0,.261,0,.654.654,0,0,0,0-.257Zm.109.307h-.239a.654.654,0,0,0,0,.257h.239A.654.654,0,0,0,43.853,15.394Zm-.434-1.257a.32.32,0,0,0-.152.154c.112.176.192.176.3,0A.32.32,0,0,0,43.419,14.137Zm0,.308c-.058.028-.152.054-.152.154a.181.181,0,0,0,.152.154.178.178,0,0,0,.149-.146C43.575,14.505,43.482,14.475,43.419,14.445Zm0,.308-.108.026a.282.282,0,0,0,0,.256.4.4,0,0,0,.217,0,.288.288,0,0,0,0-.256Zm0,.334-.13.025a.654.654,0,0,0,0,.257.6.6,0,0,0,.26,0,.654.654,0,0,0,0-.257Zm.13.307h-.238a.654.654,0,0,0,0,.257h.238A.654.654,0,0,0,43.549,15.394Zm-.434-1.257a.318.318,0,0,0-.151.154c.111.176.192.176.3,0A1.107,1.107,0,0,0,43.115,14.137Zm0,.308c-.06.029-.142.05-.148.146a.133.133,0,0,0,.148.136.17.17,0,0,0,.145-.138C43.274,14.475,43.188,14.462,43.115,14.445Zm0,.308-.108.026a.285.285,0,0,0,0,.256.4.4,0,0,0,.217,0,.288.288,0,0,0,0-.256Zm0,.334-.13.025a.654.654,0,0,0,0,.257.6.6,0,0,0,.261,0,.654.654,0,0,0,0-.257Zm.109.307h-.239a.654.654,0,0,0,0,.257h.239A.654.654,0,0,0,43.224,15.394Zm-.434-1.257a.32.32,0,0,0-.152.154c.112.176.192.176.3,0A.32.32,0,0,0,42.79,14.137Zm0,.308c-.058.028-.152.054-.152.154a.181.181,0,0,0,.152.154.176.176,0,0,0,.148-.146C42.945,14.505,42.853,14.475,42.79,14.445Zm0,.308-.108.026a.282.282,0,0,0,0,.256.4.4,0,0,0,.216,0,.282.282,0,0,0,0-.256Zm0,.334-.13.025a.654.654,0,0,0,0,.257.6.6,0,0,0,.26,0,.654.654,0,0,0,0-.257Zm.13.307h-.238a.618.618,0,0,0,0,.257h.238A.654.654,0,0,0,42.92,15.394Zm-.434-1.257a.325.325,0,0,0-.152.154c.112.176.193.176.3,0A1.107,1.107,0,0,0,42.486,14.137Zm0,.308c-.058.028-.152.054-.152.154a.181.181,0,0,0,.152.154.176.176,0,0,0,.149-.146C42.642,14.505,42.549,14.475,42.486,14.445Zm0,.308-.108.026a.285.285,0,0,0,0,.256.4.4,0,0,0,.217,0,.288.288,0,0,0,0-.256Zm0,.334-.13.025a.654.654,0,0,0,0,.257.6.6,0,0,0,.26,0,.618.618,0,0,0,0-.257Zm.109.307h-.239a.654.654,0,0,0,0,.257H42.6A.654.654,0,0,0,42.6,15.394Zm-.434-2.976h0v0Zm0,.077-.043.051.043.051.043-.051Zm0,.128-.065.051.065.052.065-.052Zm0,.154-.087.077.087.077.087-.077Zm0,.205-.109.1.109.1.108-.1Zm0,.231-.13.129.13.128.13-.128Zm0,.9a.325.325,0,0,0-.152.154c.112.176.192.176.3,0A.325.325,0,0,0,42.161,14.111Zm0,.334c-.058.028-.152.054-.152.154a.181.181,0,0,0,.152.154.176.176,0,0,0,.148-.146C42.316,14.505,42.224,14.475,42.161,14.445Zm0,.308-.109.026a.288.288,0,0,0,0,.256.4.4,0,0,0,.217,0,.282.282,0,0,0,0-.256Zm0,.308-.13.026a.649.649,0,0,0,0,.256.571.571,0,0,0,.26,0,.649.649,0,0,0,0-.256Zm.13.333h-.239a.654.654,0,0,0,0,.257h.239A.654.654,0,0,0,42.291,15.394Zm-.434-2.976h0v0Zm0,.077-.043.051.043.051.044-.051Zm0,.128-.065.051.065.052.065-.052Zm0,.154-.087.077.087.077.087-.077Zm0,.205-.108.1.108.1.109-.1Zm0,.231-.13.129.13.128.13-.128Zm0,.257-.13.128.13.128.13-.128Zm0,.333a.39.39,0,0,0-.152.129c.1.144.2.144.3,0A.383.383,0,0,0,41.857,13.8Zm0,.308a.329.329,0,0,0-.152.154c.112.176.193.176.3,0A.325.325,0,0,0,41.857,14.111Zm0,.334c-.058.028-.152.054-.152.154a.181.181,0,0,0,.152.154.176.176,0,0,0,.149-.146C42.013,14.505,41.92,14.475,41.857,14.445Zm0,.308-.108.026a.285.285,0,0,0,0,.256.4.4,0,0,0,.217,0,.288.288,0,0,0,0-.256Zm0,.308-.13.026a.649.649,0,0,0,0,.256.571.571,0,0,0,.26,0,.649.649,0,0,0,0-.256Zm.109.333h-.239a.654.654,0,0,0,0,.257h.239A.654.654,0,0,0,41.966,15.394Zm-.434-2.976h0v0Zm0,.077-.044.051.044.051.043-.051Zm0,.1-.065.052a.086.086,0,0,0,.13.025Zm0,.18-.087.077.087.077.087-.077Zm0,.18-.109.1.109.1.108-.1Zm0,.256-.13.129.13.128.13-.128Zm0,.257-.13.128.13.128.13-.128Zm0,.333a.383.383,0,0,0-.152.129c.1.144.2.144.3,0A.39.39,0,0,0,41.532,13.8Zm0,.308a.325.325,0,0,0-.152.154c.111.176.192.176.3,0A.329.329,0,0,0,41.532,14.111Zm0,.308c-.058.028-.152.055-.152.154a.181.181,0,0,0,.152.154.176.176,0,0,0,.148-.146C41.687,14.479,41.594,14.449,41.532,14.419Zm0,.334-.109.026a.288.288,0,0,0,0,.256.4.4,0,0,0,.217,0,.282.282,0,0,0,0-.256Zm0,.308-.13.026a.649.649,0,0,0,0,.256.571.571,0,0,0,.26,0,.649.649,0,0,0,0-.256Zm.108.333H41.4a.654.654,0,0,0,0,.257h.238A.654.654,0,0,0,41.64,15.394Zm-.434-2.976h0v0Zm0,.077-.043.051.043.051.044-.051Zm0,.1-.043.077.065.052.065-.052Zm0,.154-.086.077.086.077.087-.077Zm0,.206-.108.1.108.1.109-.1Zm0,.231-.13.128.13.128.131-.128Zm0,.282-.13.128.13.128.131-.128Zm0,.333a.38.38,0,0,0-.151.129c.1.144.2.144.3,0A.383.383,0,0,0,41.206,13.8Zm0,.308a.323.323,0,0,0-.151.154c.111.176.192.176.3,0A.32.32,0,0,0,41.206,14.111Zm0,.308c-.058.028-.151.055-.151.154a.181.181,0,0,0,.151.154.176.176,0,0,0,.149-.146C41.362,14.479,41.269,14.449,41.206,14.419Zm0,.334-.108.026a.285.285,0,0,0,0,.256.4.4,0,0,0,.217,0,.288.288,0,0,0,0-.256Zm0,.308-.13.026a.649.649,0,0,0,0,.256.575.575,0,0,0,.261,0,.649.649,0,0,0,0-.256Zm.131.308H41.1a.649.649,0,0,0,0,.256h.239A.649.649,0,0,0,41.337,15.369Zm.824-3.054h0v0Zm-.3,0h0v0Zm-.325,0h0v0Zm-.3,0h0v0Zm.933-.1h0v0Zm-.3,0h0v0Zm-.325,0h0v0Zm-.3,0h0v0Zm-.325.206h0v0Zm0,.077-.044.051.044.051.043-.051Zm0,.1-.065.052.065.051.065-.051Zm0,.154-.087.077.087.077.087-.077Zm0,.206-.109.1.109.1.108-.1Zm0,.231-.13.128.13.128.13-.128Zm0,.282-.13.128.13.128.13-.128Zm0,.333a.383.383,0,0,0-.152.129c.1.144.2.144.3,0A.39.39,0,0,0,40.9,13.8Zm0,.308a.325.325,0,0,0-.152.154c.111.176.192.176.3,0A.329.329,0,0,0,40.9,14.111Zm0,.308c-.059.028-.152.055-.152.154a.181.181,0,0,0,.152.154.176.176,0,0,0,.148-.146C41.058,14.479,40.965,14.449,40.9,14.419Zm0,.334-.109.026a.288.288,0,0,0,0,.256.4.4,0,0,0,.217,0,.285.285,0,0,0,0-.256Zm0,.308-.13.026a.649.649,0,0,0,0,.256.571.571,0,0,0,.26,0,.649.649,0,0,0,0-.256Zm.13.308h-.239a.649.649,0,0,0,0,.256h.239A.649.649,0,0,0,41.033,15.369Zm-.456-2.977h0v0Zm0,.077-.043.051.043.052.044-.052Zm0,.128-.065.052.065.051.065-.051Zm0,.154-.086.077.086.077.087-.077Zm0,.206-.108.1.108.1.109-.1Zm0,.231-.13.128.13.128.131-.128Zm0,.282-.13.128.13.128.131-.128Zm0,.308a.37.37,0,0,0-.151.128c.1.144.2.144.3,0A.373.373,0,0,0,40.577,13.778Zm0,.333a.323.323,0,0,0-.151.154c.111.176.192.176.3,0A.32.32,0,0,0,40.577,14.111Zm0,.308c-.058.028-.151.055-.151.154a.181.181,0,0,0,.151.154.176.176,0,0,0,.149-.146C40.733,14.479,40.64,14.449,40.577,14.419Zm0,.308-.108.026a.287.287,0,0,0,0,.257.4.4,0,0,0,.217,0,.29.29,0,0,0,0-.257Zm0,.334-.13.026a.649.649,0,0,0,0,.256.575.575,0,0,0,.261,0,.649.649,0,0,0,0-.256Zm.131.308h-.239a.649.649,0,0,0,0,.256h.239A.649.649,0,0,0,40.708,15.369Zm-.434-2.977h0v0Zm0,.077-.044.051.044.052.043-.052Zm0,.128-.065.052.065.051.065-.051Zm0,.154-.087.077.087.077.086-.077Zm0,.206-.109.1.109.1.108-.1Zm0,.231-.13.128.13.128.13-.128Zm0,1.565-.109.026a.288.288,0,0,0,0,.256.4.4,0,0,0,.217,0,.285.285,0,0,0,0-.256Zm0,.308-.13.026a.614.614,0,0,0,0,.256.571.571,0,0,0,.26,0,.649.649,0,0,0,0-.256Zm.108.308h-.238a.614.614,0,0,0,0,.256h.238A.649.649,0,0,0,40.382,15.369Zm.521-3.054h0v0Zm-.3,0h0v0Zm-.325,0h0v0Zm.629-.1h0v0Zm-.3,0h0v0Zm-.325,0h0v0Z"/><path class="b" d="M35.588,22.426l.087-.129a2.788,2.788,0,0,0,3.08.052,2.489,2.489,0,0,1-3.167.077Zm8.888-10.265a.97.97,0,0,1-.928-1.2A1.687,1.687,0,0,1,44.91,9.852l.022.025a1.773,1.773,0,0,0-1.2,1.068A.977.977,0,0,0,44.476,12.161Z"/><path class="i" d="M48.461,17.006c1.31,0-.456-1.843-.456-2.438A2.72,2.72,0,0,0,48.461,17.006Z"/><path class="i" d="M49.531,6.279c-1.061.391-1.362,1-1.562,2.233C48.27,8.047,49.922,6.973,49.531,6.279Z"/><path class="i" d="M50.8,16.9q-.456.006-.542.539c1.431,0-1.455,3-1.54-.205l-.195-.077a4.8,4.8,0,0,1-.152,1.231c.686,0,1.63.906,2.42.33C51.307,18.347,52,16.9,50.8,16.9Z"/><path class="i" d="M52.859,6.092c-1.263-.761-1.508-2.909.446-2.918,2.2-.179.477,2.115.477,1.488-.627.248.314.871.687.783.98-.232,1.079-1.619.441-2.374,0-.065-2.27-.433-2.831.17a1.959,1.959,0,0,0,.247,2.944q-.273.06-.538.142c-1.555-.066-3.779-.312-4.362-1.844,0,1.375-1.694-.527-2.124-.929-1.254-1.174-1.54-2.421.123-2.817.62,2.692,3.766-.814,4.259,1.985,1.6-3.409-7.929-3.321-5.269.21A9.551,9.551,0,0,0,51.253,6.52a4.884,4.884,0,0,0-3.132,4.712c0,6.934,11.259,6.936,11.279,0C59.412,7.391,55.95,5.678,52.859,6.092Zm-1.754,5.4h.009c0-1.8,2.845-2.486,3.3-.726.671,2.576-2.095.778-1.417.778,0-.129-.152-.231-.325-.231-.871-.08.2,2.69,1.909,1.385.306,0,.177-2.4-.645-2.919a2.069,2.069,0,0,0-2.826,1.107c.352-3.043,5.315-2.941,5.315.348C56.429,14.542,51.369,14.642,51.105,11.49Z"/><path class="b" d="M58.531,11.067h.108A4.117,4.117,0,0,0,55.1,7.012v.051a3.991,3.991,0,0,1,3.428,4Zm-7.831.179a3.057,3.057,0,0,0,.217,1.181h0l.022.077-.022-.026-.044.051.044.052.022-.026a2.448,2.448,0,0,0,.26.462l-.065.077.108.1.065-.052a.649.649,0,0,0,.174.18l-.022.025.13.129.022-.026.2.154-.043.051.13.129.065-.077c.065.051.152.077.217.128a.421.421,0,0,0-.108.1c.1.144.2.144.3,0l-.065-.077.109.051-.022.026c.078.11.163.163.26.051a1.51,1.51,0,0,0,.521.128c-.07.01-.092.068-.13.129.111.175.192.175.3,0-.032-.052-.055-.105-.108-.129.065,0,.13.026.2.026l-.065.1c.112.175.192.175.3,0l-.044-.077h.131l-.044.077c.112.175.192.175.3,0l-.044-.077h.131l-.044.1c.112.176.192.176.3,0l-.065-.1h0c.087,0,.152-.026.217-.026-.07.009-.092.067-.13.128.111.176.192.176.3,0-.038-.061-.06-.119-.13-.128.087-.026.2-.026.282-.051l.022.025c.049-.077.127-.062.2-.1.1.109.181.059.26-.052l-.021-.025a.736.736,0,0,0,.2-.1.51.51,0,0,0-.13.128c.1.145.2.145.3,0a.378.378,0,0,0-.151-.128,2.079,2.079,0,0,0,.217-.128l.086.1.13-.128-.065-.077.2-.154.043.051.13-.128-.043-.051c.065-.052.108-.128.173-.18l.087.077.109-.1-.087-.1c.134-.186.21-.443.347-.616a2.977,2.977,0,0,0-1.321-3.69,3.654,3.654,0,0,0-3.95.51,2.674,2.674,0,0,0-.868,2.025ZM58.835,12.4h0v0Zm-.3,0h0v0Zm0,.1-.044.051.044.051.043-.051Zm0,.1-.065.052.065.051.065-.051Zm0,.154-.087.077.087.077.087-.077Zm0,.206-.109.1.109.1.108-.1Zm-.326-.539h0v0Zm0,.077-.043.051.043.051.044-.051Zm0,.1-.065.052.065.051.066-.051Zm0,.154-.086.077.086.077.087-.077Zm0,.206-.108.1.108.1.109-.1Zm0,.256-.108.128.108.129.131-.129Zm0,.257-.13.128.13.128.131-.128ZM57.9,12.4h0v0Zm0,.077-.044.051.044.052.043-.052Zm0,.128-.065.052.065.051.065-.051Zm0,.154-.087.077.087.077.087-.077Zm0,.206-.109.1.109.1.108-.1Zm0,.23-.109.129.109.128.13-.128Zm0,.283-.13.128.13.128.13-.128Zm0,.308a.373.373,0,0,0-.152.128c.1.144.2.144.3,0A.379.379,0,0,0,57.9,13.787Zm0,.333a.32.32,0,0,0-.152.154c.033.052.056.1.108.129-.043.051-.108.1-.151.154-.082-.321-.456.157-.174.179a.649.649,0,0,1-.152.129c-.039-.109-.159-.071-.238-.052-.034.1-.055.138,0,.231a.877.877,0,0,1-.348.077l-.021.128v-.025l-.044.025a.993.993,0,0,0-.021-.179.5.5,0,0,0-.239,0,.649.649,0,0,0,0,.256l.087.026c-.044.026-.109.051-.152.077V15.4h-.217l-.022.129-.043.025A1.165,1.165,0,0,0,56.1,15.4h-.238a.422.422,0,0,0,0,.231.806.806,0,0,1-.326.077v.026h-.043v-.051h-.282v.1h-.043V15.66h-.282v.18h-.044v-.18h-.282v.205h-.043V15.66h-.282v.231h0v-.257h-.282v.257H53.91v-.257h-.282v.257h-.043v-.257H53.3v.257H53.26v-.257h-.282v.231h-.044V15.66h-.282v.18h-.043v-.18h-.282v.128h-.044V15.66h-.216v.051h-.044V15.66a.882.882,0,0,1-.347-.051.654.654,0,0,0,0-.257h-.239a1.326,1.326,0,0,0-.021.154l-.044-.026a1.356,1.356,0,0,0-.021-.154h-.239v.052l-.065-.026v-.026a.25.25,0,0,1-.108-.051l.108-.026a.649.649,0,0,0,0-.256.5.5,0,0,0-.239,0,.881.881,0,0,0-.021.205l-.065-.026a1.359,1.359,0,0,0-.022-.154.508.508,0,0,0-.239,0l-.108-.076h.022a.29.29,0,0,0,0-.257.4.4,0,0,0-.217,0l-.022.077c-.036-.032-.077-.053-.087-.1a.152.152,0,0,1-.087-.051c.29-.01-.062-.527-.173-.128a1.635,1.635,0,0,1-.174-.18c.07-.009.092-.068.13-.128-.077-.122-.209-.234-.282-.026l-.151-.18a.327.327,0,0,0,.108-.1c-.068-.094-.144-.159-.239-.077h0c-.043-.077-.086-.129-.13-.206l.044-.051c-.067-.066-.115-.135-.174-.205l.044.051.13-.128-.13-.128-.087.1a2.524,2.524,0,0,1-.174-.436l.022-.026c-.053-.048-.09-.129-.022-.179l-.065-.052-.022.026a5.1,5.1,0,0,1,.448-3.827,4.49,4.49,0,0,1,2.486-1.952A6.886,6.886,0,0,1,55.3,6.627a4.742,4.742,0,0,1,2.76,1.721,4.932,4.932,0,0,1,.729,4.079l-.043.051.043.026a.1.1,0,0,1-.065.1l.022.026c-.065.205-.13.385-.217.59l-.065-.077-.109.128.109.1a.651.651,0,0,1-.109.18l.022.025a1.479,1.479,0,0,1-.13.206l-.065-.052a.383.383,0,0,0-.152.129.154.154,0,0,0,.087.077l-.131.179-.043-.051ZM57.576,12.4h0v0Zm0,.077-.043.051.043.052.044-.052Zm0,.128-.065.052.065.051.065-.051Zm0,.154-.086.077.086.077.087-.077Zm0,.206-.108.1.108.1.109-.1Zm0,.23-.13.129.13.128.109-.128Zm0,.283-.13.128.13.128.131-.128Zm0,.308a.37.37,0,0,0-.151.128c.087.122.188.167.282.026Zm0,.308a.318.318,0,0,0-.151.154c.111.175.192.175.3,0A.316.316,0,0,0,57.576,14.1ZM57.251,12.4h0v0Zm0,.077-.043.051.043.052.043-.052Zm0,.128-.065.052.065.051.065-.051Zm0,.154-.087.077.087.077.087-.077Zm0,.206-.108.1.108.1.108-.1Zm0,.23-.108.129.108.128.13-.128Zm0,.257-.13.128.13.129.13-.129Zm0,.334a.379.379,0,0,0-.152.128c.1.144.2.144.3,0A.379.379,0,0,0,57.251,13.787Zm0,.308a.32.32,0,0,0-.152.154c.112.175.192.175.3,0A.32.32,0,0,0,57.251,14.1Zm0,.333c-.058.028-.152.055-.152.154a.181.181,0,0,0,.152.154.176.176,0,0,0,.148-.146C57.406,14.488,57.314,14.458,57.251,14.428Zm-.3-2.027h0v0Zm0,.077-.043.051.043.052.044-.052Zm0,.1-.065.051.065.051.065-.051Zm0,.179-.086.077.086.077.087-.077Zm0,.18-.108.1.108.1.109-.1Zm0,.256-.13.129.13.128.13-.128Zm0,.257-.13.128.13.129.13-.129Zm0,.334a.379.379,0,0,0-.152.128c.1.144.2.144.3,0A.373.373,0,0,0,56.947,13.787Zm0,.308a.325.325,0,0,0-.152.154c.112.175.193.175.3,0A.316.316,0,0,0,56.947,14.1Zm0,.308c-.058.027-.152.054-.152.154a.182.182,0,0,0,.152.154.177.177,0,0,0,.149-.146C57.1,14.462,57.01,14.432,56.947,14.4Zm0,.333-.108.026a.285.285,0,0,0,0,.256.382.382,0,0,0,.217,0,.288.288,0,0,0,0-.256ZM58.835,12.3h0v0Zm-.3,0h0v0Zm-.326,0h0v0Zm-.3,0h0v0Zm-.326,0h0v0Zm-.3,0h0v0Zm-.326,0h0v0Zm1.909-.077h0v0Zm-.325,0h0v0Zm-.3,0h0v0Zm-.325,0h0v0Zm-.326,0h0v0Zm-.3,0h0v0Zm-.326,0h0v0Zm-.3.18h0v0Zm0,.077-.044.051.044.052.043-.052Zm0,.1-.065.051.065.051.065-.051Zm0,.179-.087.077.087.077.086-.077Zm0,.18-.109.1.109.1.108-.1Zm0,.256-.131.129.131.128.13-.128Zm0,.257-.131.128.131.129.13-.129Zm0,.334a.373.373,0,0,0-.152.128c.1.144.2.144.3,0A.37.37,0,0,0,56.644,13.787Zm0,.308a.316.316,0,0,0-.152.154c.111.175.192.175.3,0A.318.318,0,0,0,56.644,14.1Zm0,.308c-.059.027-.152.054-.152.154a.182.182,0,0,0,.152.154.177.177,0,0,0,.148-.146C56.8,14.462,56.706,14.432,56.644,14.4Zm0,.333-.109.026a.288.288,0,0,0,0,.256.382.382,0,0,0,.217,0,.285.285,0,0,0,0-.256Zm-.326-1.565-.13.128.13.128.13-.128Zm0,.282-.13.128.13.129.13-.129Zm0,.308a.387.387,0,0,0-.152.128c.1.145.2.145.3,0A.381.381,0,0,0,56.318,13.761Zm0,.334a.325.325,0,0,0-.152.154c.112.175.193.175.3,0A.32.32,0,0,0,56.318,14.1Zm0,.308c-.058.027-.152.054-.152.154a.182.182,0,0,0,.152.154.177.177,0,0,0,.149-.146C56.474,14.462,56.381,14.432,56.318,14.4Zm0,.333-.108.026a.285.285,0,0,0,0,.256.382.382,0,0,0,.217,0,.288.288,0,0,0,0-.256Zm0,.308-.13.026a.649.649,0,0,0,0,.256.571.571,0,0,0,.26,0,.649.649,0,0,0,0-.256Zm-.3-1.591-.131.128.131.129.13-.129Zm0,.308a.381.381,0,0,0-.152.128c.1.145.2.145.3,0A.378.378,0,0,0,56.015,13.761Zm0,.334a.316.316,0,0,0-.152.154c.111.175.192.175.3,0A.318.318,0,0,0,56.015,14.1Zm0,.308c-.059.027-.152.054-.152.154a.182.182,0,0,0,.152.154.177.177,0,0,0,.148-.146C56.17,14.462,56.077,14.432,56.015,14.4Zm0,.333-.109.026a.288.288,0,0,0,0,.256.382.382,0,0,0,.217,0,.285.285,0,0,0,0-.256Zm0,.308-.131.026a.649.649,0,0,0,0,.256.575.575,0,0,0,.261,0,.649.649,0,0,0,0-.256Zm-.326-1.283a.387.387,0,0,0-.152.128c.1.145.2.145.3,0A.381.381,0,0,0,55.689,13.761Zm0,.334a.325.325,0,0,0-.152.154c.112.175.193.175.3,0A.32.32,0,0,0,55.689,14.1Zm0,.308c-.058.027-.152.054-.152.154a.182.182,0,0,0,.152.154.177.177,0,0,0,.149-.146C55.845,14.462,55.752,14.432,55.689,14.4Zm0,.308-.108.025a.284.284,0,0,0,0,.257.4.4,0,0,0,.217,0,.29.29,0,0,0,0-.257Zm0,.333-.13.051a.654.654,0,0,0,0,.257.571.571,0,0,0,.26,0,.654.654,0,0,0,0-.257Zm.13.308h-.238a.654.654,0,0,0,0,.257l.217-.026A.291.291,0,0,0,55.819,15.352ZM55.385,14.1a.318.318,0,0,0-.151.154c.111.175.192.175.3,0A.316.316,0,0,0,55.385,14.1Zm0,.308c-.058.027-.151.054-.151.154a.182.182,0,0,0,.151.154.177.177,0,0,0,.149-.146C55.541,14.462,55.448,14.432,55.385,14.4Zm0,.308-.108.025a.287.287,0,0,0,0,.257.4.4,0,0,0,.217,0,.29.29,0,0,0,0-.257Zm0,.333-.13.026a.649.649,0,0,0,0,.256.575.575,0,0,0,.261,0,.649.649,0,0,0,0-.256Zm.109.308h-.239a.654.654,0,0,0,0,.257h.239A.654.654,0,0,0,55.494,15.352ZM55.06,14.1a.32.32,0,0,0-.152.154c.112.175.192.175.3,0A.32.32,0,0,0,55.06,14.1Zm0,.308c-.058.027-.152.054-.152.154a.182.182,0,0,0,.152.154.179.179,0,0,0,.149-.146C55.216,14.462,55.123,14.432,55.06,14.4Zm0,.308-.108.025a.284.284,0,0,0,0,.257.4.4,0,0,0,.217,0,.29.29,0,0,0,0-.257Zm0,.333-.13.026a.649.649,0,0,0,0,.256.571.571,0,0,0,.26,0,.649.649,0,0,0,0-.256Zm.109.308H54.93a.654.654,0,0,0,0,.257h.239A.654.654,0,0,0,55.169,15.352ZM54.735,14.1a.316.316,0,0,0-.152.154c.111.175.192.175.3,0A.325.325,0,0,0,54.735,14.1Zm0,.308c-.059.027-.152.054-.152.154a.182.182,0,0,0,.152.154.177.177,0,0,0,.148-.146C54.89,14.462,54.8,14.432,54.735,14.4Zm0,.308-.109.025a.29.29,0,0,0,0,.257.4.4,0,0,0,.217,0,.287.287,0,0,0,0-.257Zm0,.333-.13.026a.614.614,0,0,0,0,.256.571.571,0,0,0,.26,0,.649.649,0,0,0,0-.256Zm.13.308h-.239a.654.654,0,0,0,0,.257h.239A.654.654,0,0,0,54.865,15.352Zm-.434-.949c-.058.027-.152.054-.152.154a.182.182,0,0,0,.152.154.177.177,0,0,0,.148-.146C54.586,14.462,54.494,14.432,54.431,14.4Zm0,.308-.108.025a.284.284,0,0,0,0,.257.4.4,0,0,0,.216,0,.284.284,0,0,0,0-.257Zm0,.333-.13.026a.649.649,0,0,0,0,.256.571.571,0,0,0,.26,0,.649.649,0,0,0,0-.256Zm.108.308H54.3a.654.654,0,0,0,0,.257h.238A.618.618,0,0,0,54.539,15.352Zm-.433-.949c-.148.07-.162.312.027.3a.174.174,0,0,0,.146-.151C54.279,14.449,54.169,14.428,54.106,14.4Zm0,.308L54,14.736a.29.29,0,0,0,0,.257.4.4,0,0,0,.217,0,.287.287,0,0,0,0-.257Zm0,.333-.131.026a.649.649,0,0,0,0,.256.575.575,0,0,0,.261,0,.649.649,0,0,0,0-.256Zm.13.308H54a.654.654,0,0,0,0,.257h.239A.654.654,0,0,0,54.236,15.352ZM53.8,14.4c-.058.027-.152.054-.152.154a.182.182,0,0,0,.152.154.177.177,0,0,0,.148-.146C53.957,14.462,53.865,14.432,53.8,14.4Zm0,.308-.109.025a.29.29,0,0,0,0,.257.4.4,0,0,0,.217,0,.284.284,0,0,0,0-.257Zm0,.333-.13.026a.649.649,0,0,0,0,.256.571.571,0,0,0,.26,0,.649.649,0,0,0,0-.256Zm.108.308h-.238a.654.654,0,0,0,0,.257h.238A.654.654,0,0,0,53.91,15.352Zm-.433-.949c-.059.027-.152.054-.152.154a.182.182,0,0,0,.152.154.177.177,0,0,0,.148-.146C53.632,14.462,53.539,14.432,53.477,14.4Zm0,.308-.109.025a.29.29,0,0,0,0,.257.4.4,0,0,0,.217,0,.287.287,0,0,0,0-.257Zm0,.333-.131.026a.649.649,0,0,0,0,.256.575.575,0,0,0,.261,0,.649.649,0,0,0,0-.256Zm.13.308h-.261a.654.654,0,0,0,0,.257h.239A1.478,1.478,0,0,0,53.607,15.352Zm-.434-.949c-.058.027-.152.054-.152.154a.182.182,0,0,0,.152.154.177.177,0,0,0,.148-.146C53.328,14.462,53.235,14.432,53.173,14.4Zm0,.308-.109.025a.29.29,0,0,0,0,.257.4.4,0,0,0,.217,0,.284.284,0,0,0,0-.257Zm0,.333-.13.026a.649.649,0,0,0,0,.256.571.571,0,0,0,.26,0,.649.649,0,0,0,0-.256Zm.108.308h-.26a.654.654,0,0,0,0,.257h.239A1.477,1.477,0,0,0,53.281,15.352ZM52.847,14.1a.318.318,0,0,0-.151.154c.111.175.192.175.3,0A.316.316,0,0,0,52.847,14.1Zm0,.308c-.058.027-.151.054-.151.154a.182.182,0,0,0,.151.154A.177.177,0,0,0,53,14.565C53,14.462,52.91,14.432,52.847,14.4Zm0,.308-.108.025a.287.287,0,0,0,0,.257.4.4,0,0,0,.217,0,.29.29,0,0,0,0-.257Zm0,.333-.13.026a.649.649,0,0,0,0,.256.575.575,0,0,0,.261,0,.649.649,0,0,0,0-.256Zm.131.308h-.239a.654.654,0,0,0,0,.257h.239A.654.654,0,0,0,52.978,15.352ZM52.544,14.1a.32.32,0,0,0-.152.154c.111.175.192.175.3,0A.325.325,0,0,0,52.544,14.1Zm0,.308c-.059.027-.152.054-.152.154a.182.182,0,0,0,.152.154.177.177,0,0,0,.148-.146C52.7,14.462,52.606,14.432,52.544,14.4Zm0,.308-.109.025a.29.29,0,0,0,0,.257.4.4,0,0,0,.217,0,.287.287,0,0,0,0-.257Zm0,.333-.13.026a.649.649,0,0,0,0,.256.571.571,0,0,0,.26,0,.649.649,0,0,0,0-.256Zm.108.308h-.26a.654.654,0,0,0,0,.257h.239A1.477,1.477,0,0,0,52.652,15.352ZM52.218,14.1a.318.318,0,0,0-.151.154c.111.175.192.175.3,0A.316.316,0,0,0,52.218,14.1Zm0,.308c-.058.027-.151.054-.151.154a.182.182,0,0,0,.151.154.177.177,0,0,0,.149-.146C52.374,14.462,52.281,14.432,52.218,14.4Zm0,.308-.108.025a.287.287,0,0,0,0,.257.4.4,0,0,0,.217,0,.29.29,0,0,0,0-.257Zm0,.333-.13.026a.649.649,0,0,0,0,.256.575.575,0,0,0,.261,0,.649.649,0,0,0,0-.256Zm.109.308h-.239a.654.654,0,0,0,0,.257h.239A.654.654,0,0,0,52.327,15.352Zm-.434-1.591a.387.387,0,0,0-.152.128c.1.145.2.145.3,0A.387.387,0,0,0,51.893,13.761Zm0,.334a.32.32,0,0,0-.152.154c.112.175.192.175.3,0A.32.32,0,0,0,51.893,14.1Zm0,.308c-.058.027-.152.054-.152.154a.182.182,0,0,0,.152.154.177.177,0,0,0,.148-.146C52.048,14.462,51.956,14.432,51.893,14.4Zm0,.308-.108.025a.284.284,0,0,0,0,.257.4.4,0,0,0,.216,0,.284.284,0,0,0,0-.257Zm0,.333-.13.026a.649.649,0,0,0,0,.256.571.571,0,0,0,.26,0,.649.649,0,0,0,0-.256Zm.13.308h-.26a.654.654,0,0,0,0,.257H52A1.387,1.387,0,0,0,52.023,15.352Zm-.455-1.9-.131.128.131.129.13-.129Zm0,.308a.381.381,0,0,0-.152.128c.1.145.2.145.3,0A.378.378,0,0,0,51.568,13.761Zm0,.308a.316.316,0,0,0-.152.154c.111.176.192.176.3,0A.318.318,0,0,0,51.568,14.069Zm0,.334c-.059.027-.152.054-.152.154a.182.182,0,0,0,.152.154.177.177,0,0,0,.148-.146C51.723,14.462,51.63,14.432,51.568,14.4Zm0,.308-.109.025a.29.29,0,0,0,0,.257.4.4,0,0,0,.217,0,.287.287,0,0,0,0-.257Zm0,.333-.131.026a.649.649,0,0,0,0,.256.575.575,0,0,0,.261,0,.649.649,0,0,0,0-.256Zm-.3-1.873-.13.128.13.128.13-.128Zm0,.282-.13.128.13.129.13-.129Zm0,.308a.387.387,0,0,0-.152.128c.1.145.2.145.3,0A.387.387,0,0,0,51.264,13.761Zm0,.308a.32.32,0,0,0-.152.154c.112.176.192.176.3,0A.32.32,0,0,0,51.264,14.069Zm0,.334c-.058.027-.152.054-.152.154a.182.182,0,0,0,.152.154.177.177,0,0,0,.148-.146C51.419,14.462,51.327,14.432,51.264,14.4Zm0,.308-.109.025a.29.29,0,0,0,0,.257.4.4,0,0,0,.217,0,.284.284,0,0,0,0-.257Zm0,.307-.13.026a.654.654,0,0,0,0,.257.6.6,0,0,0,.26,0,.654.654,0,0,0,0-.257Zm-.325-2.463-.066.051.066.052L51,12.606Zm0,.18-.087.077.087.077.086-.077Zm0,.179-.109.1.109.1.108-.1Zm0,.257-.131.128.131.128.13-.128Zm0,.256-.131.129.131.128.13-.128Zm0,.334a.381.381,0,0,0-.152.128c.1.145.2.145.3,0A.378.378,0,0,0,50.939,13.761Zm0,.308a.316.316,0,0,0-.152.154c.111.176.192.176.3,0A.318.318,0,0,0,50.939,14.069Zm0,.308c-.059.028-.152.054-.152.154a.181.181,0,0,0,.152.154.176.176,0,0,0,.148-.146C51.094,14.437,51,14.407,50.939,14.377Zm0,.334-.109.025a.29.29,0,0,0,0,.257.4.4,0,0,0,.217,0,.287.287,0,0,0,0-.257Zm-.3-2.336h0v0Zm0,.077-.044.052.044.051.043-.051Zm0,.1-.065.051.065.052.065-.052Zm0,.18-.087.077.087.077.087-.077Zm0,.179-.109.1.109.1.108-.1Zm0,.257-.13.128.13.128.13-.128Zm0,.256-.13.129.13.128.13-.128Zm0,.334a.381.381,0,0,0-.152.128c.1.145.2.145.3,0A.387.387,0,0,0,50.635,13.761Zm0,.308a.32.32,0,0,0-.152.154c.111.175.211.185.282-.026C50.726,14.136,50.7,14.078,50.635,14.069Zm0,.308c-.058.028-.152.054-.152.154a.181.181,0,0,0,.152.154.176.176,0,0,0,.148-.146C50.79,14.437,50.7,14.407,50.635,14.377Zm0,.334-.109.025a.29.29,0,0,0,0,.257.4.4,0,0,0,.217,0,.284.284,0,0,0,0-.257Zm0-2.438h0v0Zm0-.1h0v0Zm-.326.205h0v0Zm0,.077-.043.052.043.051.044-.051Zm0,.1-.065.051.065.052.066-.052Zm0,.18-.086.077.086.077.087-.077Zm0,.179-.108.1.108.1.109-.1Zm0,.257-.13.128.13.128.131-.128Zm0,.256-.13.129.13.128.131-.128Zm0,.334a.385.385,0,0,0-.151.128c.1.145.2.145.3,0A.381.381,0,0,0,50.309,13.761Zm0,.308a.318.318,0,0,0-.151.154c.111.176.192.176.3,0A.316.316,0,0,0,50.309,14.069Zm0,.308c-.058.028-.151.054-.151.154a.181.181,0,0,0,.151.154.176.176,0,0,0,.149-.146C50.465,14.437,50.372,14.407,50.309,14.377Zm-.3-2.027h0v0Zm0,.1-.044.052.044.051.043-.051Zm0,.1-.065.051.065.052.065-.052Zm0,.154-.087.077.087.077.087-.077Zm0,.205-.109.1.109.1.108-.1Zm0,.231-.13.128.13.129.13-.129Zm0,.282-.13.129.13.128.13-.128Zm0,.308a.383.383,0,0,0-.152.129c.1.144.2.144.3,0A.39.39,0,0,0,50.006,13.735Zm0,.334a.32.32,0,0,0-.152.154c.111.176.192.176.3,0A.325.325,0,0,0,50.006,14.069ZM49.68,12.35h0v0Zm0,.077-.043.051.043.051.044-.051Zm0,.128-.065.051.065.052.065-.052Zm0,.154-.086.077.086.077.087-.077Zm0,.205-.108.1.108.1.109-.1Zm0,.231-.13.128.13.129.131-.129Zm0,.282-.13.129.13.128.131-.128Zm0,.308a.38.38,0,0,0-.151.129c.1.144.2.144.3,0A.383.383,0,0,0,49.68,13.735Zm-.325-1.385h0v0Zm0,.077-.043.051.043.051.043-.051Zm0,.128-.065.051.065.052.065-.052Zm0,.154-.087.077.087.077.087-.077Zm0,.205-.108.1.108.1.109-.1Zm0,.231-.13.128.13.129.13-.129Zm0,.282-.13.129.13.128.13-.128Zm-.3-1.077h0v0Zm0,.077-.043.051.043.051.044-.051Zm0,.128-.065.051.065.052.065-.052Zm0,.154-.086.077.086.077.087-.077Zm0,.205-.108.1.108.1.109-.1Zm-.325-.564h0v0Zm0,.077-.043.051.043.051.043-.051Zm1.583-.154h0v0Zm-.3,0h0v0Zm-.326,0h0v0Zm-.3,0h0v0Zm-.326,0h0v0Zm-.325,0h0v0Zm1.583-.1h0v0Zm-.3,0h0v0Zm-.326,0h0v0Zm-.3,0h0v0Zm-.326,0h0v0Zm-.3,0h0v0Z"/><path class="b" d="M49.442,6.447V6.5A7.419,7.419,0,0,0,48.27,7.756,3.337,3.337,0,0,1,49.442,6.447Zm3.21,5.252c.144.647.436,1.112.939.958a1.617,1.617,0,0,0,1.035-1.18c.105.18-.187.684-.29.828a1.381,1.381,0,0,1-.687.525c-.576.189-.909-.372-1-1.131Zm1.41-6.458a.977.977,0,0,0,.745-1.216,1.773,1.773,0,0,0-1.2-1.068l.021-.025a1.69,1.69,0,0,1,1.363,1.107.97.97,0,0,1-.929,1.2ZM46.283,1.257a2.488,2.488,0,0,1,3.146.1,2.784,2.784,0,0,0-3.059.052Z"/><path class="a" d="M61.412,14.149c-.686-.71.336-1.495.921-1.495l.043-.1c.4-.025.8-.065,1.19-.129a2.587,2.587,0,0,0,.094-1.4,1.716,1.716,0,0,0-.749-1.009,15.6,15.6,0,0,1-3.042.277,2.216,2.216,0,0,0-.2,1.047,3.529,3.529,0,0,0,.452,1.242c.578.007,1.3.02,2.054-.017a1.2,1.2,0,0,0-1.163,1.09c.054,1.857,2.413,1.283,1.577.287C62.462,13.793,61.93,14.686,61.412,14.149Z"/><path class="b" d="M63.2,12.181a.259.259,0,0,0,.276.044l.009-.046,0,0-.065-.051.065-.052.019.015.012-.076-.031.036L63.438,12l.043-.051.033.039a2.035,2.035,0,0,0-.074-.887,1.36,1.36,0,0,0-.208-.389.9.9,0,0,1-.25-.02v-.026H60.034a4.032,4.032,0,0,0,.145,1.562.169.169,0,0,0,.07-.048.239.239,0,0,0,.325,0,.24.24,0,0,0,.326,0,.239.239,0,0,0,.325,0,.24.24,0,0,0,.326,0,.239.239,0,0,0,.325,0,.239.239,0,0,0,.325,0,.24.24,0,0,0,.326,0l-.065-.051.065-.052.065.052-.065.051a.239.239,0,0,0,.325,0l-.065-.051.065-.052.065.052-.065.051A.262.262,0,0,0,63.2,12.181Zm-.043-.231L63.2,12l-.043.052L63.112,12Zm0,.128.065.052-.065.051-.065-.051Zm-2.82.1-.065-.051.065-.052-.044-.051.044-.051.043.051-.043.051.065.052Zm.3,0-.065-.051.065-.052-.043-.051.043-.051.044.051-.044.051.066.052Zm.326-.231.043.051-.043.052L60.921,12Zm0,.231L60.9,12.13l.065-.052.065.052Zm.3-.231.043.051-.043.052L61.225,12Zm0,.231L61.2,12.13l.066-.052.065.052Zm.325-.231.043.051-.043.052L61.551,12Zm0,.231-.065-.051.065-.052.065.052Zm.3-.231.043.051-.043.052L61.854,12Zm0,.231-.065-.051.065-.052.065.052Zm.325-.231.043.051-.043.052L62.18,12Zm0,.231-.065-.051.065-.052.065.052Zm.3-.128L62.483,12l.044-.051L62.57,12Zm.325,0L62.809,12l.043-.051L62.9,12Z"/><path class="b" d="M62.451,14.379c-.272.262-.823.526-1.02.006A.994.994,0,0,0,62.451,14.379Z"/></svg>