<svg xmlns="http://www.w3.org/2000/svg"
          xmlns:xlink="http://www.w3.org/1999/xlink" width="30" height="30" viewBox="0 0 30 30">
          <defs>
            <clipPath id="a">
              <rect width="30" height="30" fill="none" />
            </clipPath>
          </defs>
          <g clip-path="url(#a)">
            <g clip-path="url(#a)">
              <circle cx="15" cy="15" r="15" fill="#8f80dc" />
              <g fill="none" stroke="#000" stroke-linejoin="round" stroke-width="1.2" stroke-dasharray="3 0"
                opacity="0.35">
                <circle cx="15" cy="15" r="15" stroke="none" />
                <circle cx="15" cy="15" r="14.4" fill="none" />
              </g>
              <g opacity="0.5">
                <g transform="translate(0.2 1)">
                  <line x2="5" transform="translate(7.5 8)" fill="none" stroke="#000" stroke-linecap="round"
                    stroke-width="1.4" />
                  <line x2="5" transform="translate(7.5 6)" fill="none" stroke="#000" stroke-linecap="round"
                    stroke-width="1.4" />
                  <line x2="5" transform="translate(7.5 11)" fill="none" stroke="#000" stroke-linecap="round"
                    stroke-width="1.4" />
                  <line x2="5" transform="translate(7.5 14)" fill="none" stroke="#000" stroke-linecap="round"
                    stroke-width="1.4" />
                  <line x2="5" transform="translate(7.5 17)" fill="none" stroke="#000" stroke-linecap="round"
                    stroke-width="1.4" />
                  <line x2="5" transform="translate(7.5 20)" fill="none" stroke="#000" stroke-linecap="round"
                    stroke-width="1.4" />
                  <line x2="5" transform="translate(7.5 22)" fill="none" stroke="#000" stroke-linecap="round"
                    stroke-width="1.4" />
                </g>
                <path d="M22.5,7.7H14.92V22.3H22.5" transform="translate(-0.2)" fill="none" stroke="#000"
                  stroke-linecap="round" stroke-width="1.4" />
                <path
                  d="M4.518,4.628A3.13,3.13,0,0,1,7.338,6.356a3.166,3.166,0,0,1-5.641,0A3.13,3.13,0,0,1,4.518,4.628m0-.628A3.781,3.781,0,0,0,1,6.356a3.8,3.8,0,0,0,7.036,0A3.781,3.781,0,0,0,4.518,4Zm0,1.571a.786.786,0,1,1-.8.785.793.793,0,0,1,.8-.785m0-.628A1.414,1.414,0,1,0,5.957,6.356,1.429,1.429,0,0,0,4.518,4.942Z"
                  transform="translate(14.998 8.603)" />
              </g>
            </g>
          </g>
        </svg>