<svg xmlns="http://www.w3.org/2000/svg" xmlns:xlink="http://www.w3.org/1999/xlink" width="30" height="30"
    viewBox="0 0 30 30">
    <defs>
        <clipPath id="a">
            <rect width="30" height="30" fill="none" />
        </clipPath>
    </defs>
    <g clip-path="url(#a)">
        <g clip-path="url(#a)">
            <circle cx="15" cy="15" r="15" fill="#dc8380" />
            <g fill="none" stroke="#000" stroke-linejoin="round" stroke-width="1.2" opacity="0.35">
                <circle cx="15" cy="15" r="15" stroke="none" />
                <circle cx="15" cy="15" r="14.4" fill="none" />
            </g>
            <path
                d="M12,3a1,1,0,0,0-1,1v8a1,1,0,0,0,2,0V4A1,1,0,0,0,12,3Zm5.14,2.86a.99.99,0,0,0-.01,1.39A6.864,6.864,0,0,1,19,11.82a7.084,7.084,0,0,1-6.91,7.17A6.991,6.991,0,0,1,6.87,7.24.99.99,0,1,0,5.43,5.88,8.919,8.919,0,0,0,3,11.74a9.1,9.1,0,0,0,8.71,9.25,9,9,0,0,0,9.29-9,8.891,8.891,0,0,0-2.42-6.11A1,1,0,0,0,17.14,5.86Z"
                transform="translate(3 3.4)" opacity="0.5" />
        </g>
    </g>
</svg>