<svg xmlns="http://www.w3.org/2000/svg" viewBox="0 0 180 40"><defs><style>.a{fill:#a42980;}.b{opacity:0.45;}.c{fill:#7129a4;}.d{fill:#2948a4;}.e{fill:#29a4a4;}.f{fill:#57a429;}.g{fill:#a48b29;}.h{fill:#a47129;}.i{fill:#992626;}</style></defs><title>logo</title><path class="a" d="M4.553,14.7c.633-.656,1.34-2.676,1.787-2.945C3.164,10.723-3.018,15,1.852,17.449.432,14.834,3.779,15.5,4.553,14.7Zm.738-2.547.042.221a4.638,4.638,0,0,0-4.152,2.561A4.09,4.09,0,0,1,5.291,12.149Z"/><path class="a" d="M14.144,33.7c-.313.083-.645.17-.983.244A1.2,1.2,0,0,0,14.144,33.7Z"/><path class="a" d="M11.965,31.759c0-1.611-2.576-.831-2.2.916.356,1.656,1.922,1.589,3.4,1.267C11.765,33.72,10.32,31.626,11.965,31.759Z"/><path class="a" d="M29.326,11.357c-1.311,0-6.443-.823-7.321,0a.659.659,0,0,0-.095.132,2.754,2.754,0,0,0-.806-.709c2.754-1.088.078-3.565,1.133-5.786C16.5,4.39,19.8,9.8,21.7,12.151a40.09,40.09,0,0,0,.156,5.7H14.327c0-2.075-.592-5.637,1.755-6.625H6.873A2.491,2.491,0,0,0,8.647,8.969q.7-2.1-.336-2.076c0,1.61-2.069,2.337-1.56,4.332H6.709c.016.006.031.019.047.027l0,.014.013-.005c1.951.957,2.63,7.444,2.036,12.255-.068-2.726-3.6-2.188-5.111-2a.507.507,0,0,0,.42.31C2.429,23.6,5.436,25.418,6.969,24.342c0-1.543-2.6.344-2.6-1.722,0-2.119,4.2-.992,4.2.971H8.8c-.328,2.585-1.024,4.67-2.091,5.12,3.058,0,5.892.023,8.3,1.477.137.286-.062.611-.062,1.262a3.055,3.055,0,0,1-.8,2.248,7.211,7.211,0,0,1,1.47-.3,18.38,18.38,0,0,0-.2-2.942h0c-.021-.042-.009-.067-.029-.109-.023-.087-.088-.169-.113-.256h0a11.489,11.489,0,0,1-.9-3.133V22.266h7.689c0,2,.524,5.233-1.732,6.184h9C26.319,27.183,26.3,12.63,29.326,11.357Z"/><path class="b" d="M26.218,13.94h-.084l-.126,6.89h.252Zm.335,8.127h0v0Zm0,.133-.083.088.083.088.084-.088Zm0,.22-.125.089.125.088.126-.088Zm0,.265-.167.133.167.132.168-.132Zm0,.354-.209.176.209.177.21-.177Zm0,.4-.251.221.251.221.252-.221Zm0,.486-.251.221.251.221.252-.221Zm0,.53a.363.363,0,0,0-.251.265c.2.248.387.248.587,0Zm0,.574a.384.384,0,0,0-.251.221c.215.3.371.3.587,0C26.786,25.138,26.711,25.034,26.553,25.026Zm0,.53c-.133.057-.265.076-.251.265a.334.334,0,0,0,.293.265.324.324,0,0,0,.287-.251C26.9,25.64,26.686,25.6,26.553,25.556Zm0,.53-.209.044a.636.636,0,0,0,.042.442.849.849,0,0,0,.419,0,.444.444,0,0,0,0-.442Zm0,.574-.251.045a1.438,1.438,0,0,0,.042.4,1.253,1.253,0,0,0,.5,0,1,1,0,0,0,0-.442Zm.252.53h-.461a1.223,1.223,0,0,0,0,.486h.461A1.242,1.242,0,0,0,26.805,27.19Zm-.839-5.123h0v0Zm0,.133-.084.088.084.088.084-.088Zm0,.22-.126.089.126.088.126-.088Zm0,.265-.168.133.168.132.168-.132Zm0,.354-.21.176.21.177.21-.177Zm0,.4-.251.221.251.221.252-.221Zm0,.486-.251.221.251.221.252-.221Zm0,.53a.593.593,0,0,0-.293.265c.2.248.387.248.587,0A2.108,2.108,0,0,0,25.966,24.452Zm0,.574a.593.593,0,0,0-.293.265c.215.3.371.3.587,0A.6.6,0,0,0,25.966,25.026Zm0,.53c-.113.048-.293.094-.293.265,0,.13.179.265.293.265a.325.325,0,0,0,.287-.251C26.267,25.659,26.087,25.607,25.966,25.556Zm0,.53-.21.044a.449.449,0,0,0,0,.442.853.853,0,0,0,.42,0,.447.447,0,0,0,0-.442Zm0,.574-.251.045a.966.966,0,0,0,0,.441,1.253,1.253,0,0,0,.5,0,1,1,0,0,0,0-.441Zm.21.53h-.461a1.223,1.223,0,0,0,0,.486h.461A1.242,1.242,0,0,0,26.176,27.19Zm-.839-5.123h0v0Zm0,.133-.084.088.084.088.084-.088Zm0,.22-.126.089.126.088.126-.088Zm0,.265-.168.133.168.132.168-.132Zm0,.354-.21.176.21.177.21-.177Zm0,.4-.252.221.252.221.252-.221Zm0,.486-.252.221.252.221.252-.221Zm0,.53a.725.725,0,0,0-.294.221c.2.248.388.248.588,0A.725.725,0,0,0,25.337,24.452Zm0,.53a.6.6,0,0,0-.294.265c.216.3.372.3.588,0A.6.6,0,0,0,25.337,24.982Zm0,.574c-.561.018.12.908.336.221A.4.4,0,0,0,25.337,25.556Zm0,.53-.21.044a.447.447,0,0,0,0,.442.853.853,0,0,0,.42,0,.447.447,0,0,0,0-.442Zm0,.574-.252.045a1,1,0,0,0,0,.441,1.258,1.258,0,0,0,.5,0,1,1,0,0,0,0-.441Zm.252.53h-.462a1,1,0,0,0,0,.442h.462A1,1,0,0,0,25.589,27.19Zm-.839-5.123h0v0Zm0,.133-.084.088.084.088.084-.088Zm0,.22-.126.089.126.088.126-.088Zm0,.265-.168.133.168.132.168-.132Zm0,.354-.21.176.21.177.21-.177Zm0,.4-.252.221.252.221L25,23.657Zm0,.486-.252.221.252.221L25,24.143Zm0,.53a.725.725,0,0,0-.294.221c.2.248.388.248.587,0A.722.722,0,0,0,24.75,24.452Zm0,.53a.6.6,0,0,0-.294.265c.216.3.372.3.587,0A.593.593,0,0,0,24.75,24.982Zm0,.574c-.657.138.109.808.293.221C24.953,25.65,24.911,25.569,24.75,25.556Zm0,.53-.21.044a.447.447,0,0,0,0,.442.853.853,0,0,0,.42,0,.449.449,0,0,0,0-.442Zm0,.53-.252.044a1,1,0,0,0,0,.442,1.253,1.253,0,0,0,.5,0,1,1,0,0,0,0-.442Zm.21.574H24.5a1,1,0,0,0,0,.442h.462A1,1,0,0,0,24.96,27.19Zm-.839-5.123h0v0Zm0,.133-.084.088.084.088.084-.088Zm0,.22L24,22.509l.126.088.125-.088Zm0,.265-.168.133.168.132.167-.132Zm0,.31-.21.176.21.177.209-.177Zm0,.441-.252.221.252.221.251-.221Zm0,.442-.252.221.252.221.251-.221Zm0,.574a.725.725,0,0,0-.294.221c.2.248.388.248.587,0A.729.729,0,0,0,24.121,24.452Zm0,.53a.591.591,0,0,0-.294.265c.215.3.372.3.587,0A.593.593,0,0,0,24.121,24.982Zm0,.574c-.131.028-.3.046-.287.235a.322.322,0,0,0,.287.251.314.314,0,0,0,.28-.237C24.427,25.607,24.261,25.586,24.121,25.556Zm0,.53-.21.044a.444.444,0,0,0,0,.442.849.849,0,0,0,.419,0,.444.444,0,0,0,0-.442Zm0,.53-.252.044a1,1,0,0,0,0,.442,1.253,1.253,0,0,0,.5,0,1,1,0,0,0,0-.442Zm.209.574h-.461a1,1,0,0,0,0,.442h.461A1,1,0,0,0,24.33,27.19Zm-.839-5.123h0v0Zm0,.133-.083.088.083.088.084-.088Zm0,.176-.083.133.125.088.126-.088Zm0,.309-.125.133.167.132.168-.132Zm0,.31-.209.176.209.177.21-.177Zm0,.441-.251.221.251.221.252-.221Zm0,.442-.251.221.251.221.252-.221Zm0,.574a.942.942,0,0,0-.251.221c.2.248.388.248.587,0A.742.742,0,0,0,23.491,24.452Zm0,.53a.719.719,0,0,0-.251.265c.215.3.372.3.587,0A.619.619,0,0,0,23.491,24.982Zm0,.53c-.583.186.145.872.336.265A.619.619,0,0,0,23.491,25.512Zm0,.574-.209.044a.444.444,0,0,0,0,.442.849.849,0,0,0,.419,0,.444.444,0,0,0,0-.442Zm0,.53-.251.044a1,1,0,0,0,0,.442,1.253,1.253,0,0,0,.5,0,1,1,0,0,0,0-.442Zm.252.53h-.461a1,1,0,0,0,0,.442h.461A1,1,0,0,0,23.743,27.146Zm2.81-5.256h0v0Zm-.587,0h0v0Zm-.629,0h0v0Zm-.587,0h0v0Zm-.629,0h0v0Zm-.588,0h0v0Zm3.062-.132h0v0Zm-.629,0h0v0Zm-.629,0h0v0Zm-.587,0h0v0Zm-.629,0h0v0Zm-.588,0h0v0Zm-.629.309h0v0Zm0,.133-.084.088.084.088.084-.088Zm0,.176-.126.133.126.088.126-.088Zm0,.309-.168.133.168.132.168-.132Zm0,.31-.21.176.21.177.21-.177Zm0,.441-.21.221.21.221.252-.221Zm0,.442-.251.221V21.758H13.467v1.258c0,.255.118.927-.042,1.127a.685.685,0,0,1,0,.574.608.608,0,0,1,0,.53c.085.1.041.3.042.431s0,.312,0,.482a4.278,4.278,0,0,0,0,.9h0v.088h0a1,1,0,0,0,0,.442h.084v.088h-.126v.486h.251l.042.088h-.293v.177l-.084-.044V28.25a1.148,1.148,0,0,1-.587-.088v-.486h-.546v.354h-.084v-.265h-.545v.22H11.5v-.22h-.5v.176h-.084v-.176h-.545v.176h-.042v-.176H9.775v.176H9.692v-.176H9.146v.176H9.1v-.176H8.769l.042-.089H9.02a.629.629,0,0,0,.042-.441h0a3.455,3.455,0,0,0,.168-.707v.044a.853.853,0,0,0,.42,0,.449.449,0,0,0,0-.442.576.576,0,0,0-.378,0v-.176c.144.113.462.074.462-.177s-.317-.287-.462-.177v-.176c.221.142.323.017.462-.177-.128-.179-.253-.338-.462-.177v-.22a.257.257,0,0,0,.42-.133c-.133-.161-.279-.274-.462-.132v-.31l.168.133.252-.221L9.4,23.966,9.23,24.1v-.354l.21.089.252-.221-.252-.221-.168.133v-.354l.168.133.21-.177-.21-.177-.168.133v-.309l.168.176.168-.132-.168-.133-.168.089V14.713a4.36,4.36,0,0,0-.587-2.495H14.1a6.612,6.612,0,0,0-.587,3.653V18.71h9.185V13.679a3.168,3.168,0,0,0-.209-1.461h5.033a4.909,4.909,0,0,0-.587,2.706v9.595a15.952,15.952,0,0,0,.084,2.186h0a1,1,0,0,0,0,.441h.126l.042.089h-.168a1,1,0,0,0,0,.441h.377l.042.089h-.461v.176h-.084v-.132H26.3v.176h-.084v-.176h-.545v.176h-.084v-.176h-.546v.176H24.96v-.176h-.546v.176H24.33v-.176h-.545v.176h0v-.176H23.24v.176h-.084v-.176h-.545v.176h-.084v-.176h-.378l.042-.089h.336a1.256,1.256,0,0,0,0-.485h-.084l.042-.089h.042a4.208,4.208,0,0,0,.126-.751c.094.258.275.225.5.177a.447.447,0,0,0,0-.442c-.21-.044-.431-.087-.5.177,0-.132.041-.265.041-.442.094.338.73.1.462-.265-.162,0-.437-.026-.5.177v-.4c.14.357.395.165.545-.045-.15-.209-.405-.4-.545-.044V24.85c.181.243.376.165.545-.045-.169-.209-.364-.287-.545-.044v-.486l.251.221.252-.221Zm0,2.738-.251.044a1,1,0,0,0,0,.442,1.253,1.253,0,0,0,.5,0,1,1,0,0,0,0-.442Zm.252.574h-.462a1,1,0,0,0,0,.442h.462A1,1,0,0,0,23.156,27.19Zm-.252-5.3h0v0Zm0-.132h0v0Zm-9.773.309h0v0Zm0,.133-.084.088.084.088.084-.088Zm0,.176-.126.133.126.088.126-.088Zm0,.309-.168.133.168.132.168-.132Zm0,.31-.21.176.21.177.21-.177Zm0,.441-.252.177.252.221.252-.221Zm0,.442-.252.221.252.221.252-.221Zm0,.574a.725.725,0,0,0-.294.221c.2.248.388.248.588,0A.725.725,0,0,0,13.131,24.452Zm0,.53a.6.6,0,0,0-.294.265c.216.3.372.3.588,0A.6.6,0,0,0,13.131,24.982Zm0,.53c-.651.274.124.8.294.265A.6.6,0,0,0,13.131,25.512Zm0,.574-.21.044a.449.449,0,0,0,0,.442.853.853,0,0,0,.42,0C13.419,26.367,13.425,26.086,13.131,26.086Zm0,.53-.252.044a1,1,0,0,0,0,.442,1.258,1.258,0,0,0,.5,0,1,1,0,0,0,0-.442Zm.21.574h-.462a1,1,0,0,0,0,.442h.462A1,1,0,0,0,13.341,27.19Zm.042.53h-.546v.486h.546Zm-.881-5.7h0v0Zm0,.177-.084.088.084.088.084-.088Zm0,.176-.126.133.126.088.126-.088Zm0,.265-.168.133.168.176.168-.132Zm0,.354-.21.176.21.177.21-.177Zm0,.4-.252.221.252.221.252-.221Zm0,.486-.252.221.252.221.252-.221Zm0,.574a.725.725,0,0,0-.294.221c.2.248.388.248.587,0A.716.716,0,0,0,12.5,24.452Zm0,.53a.6.6,0,0,0-.294.265c.216.3.372.3.587,0A.593.593,0,0,0,12.5,24.982Zm0,.53c-.584.186.145.872.335.265A.617.617,0,0,0,12.5,25.512Zm0,.574-.21.044a.447.447,0,0,0,0,.442.853.853,0,0,0,.42,0,.449.449,0,0,0,0-.442Zm0,.53-.252.044a1,1,0,0,0,0,.442,1.258,1.258,0,0,0,.5,0,1,1,0,0,0,0-.442Zm.252.53h-.462a1,1,0,0,0,0,.442h.462A1,1,0,0,0,12.754,27.146Zm-.881-5.123h0v0Zm0,.132-.084.089.084.088.084-.088Zm0,.221-.126.089.126.088L12,22.465Zm0,.265-.168.133.168.176.167-.176Zm0,.354-.21.176.21.177.209-.177Zm0,.4-.252.221.252.221.251-.221Zm0,.486-.252.221.252.221.251-.221Zm0,.53a.364.364,0,0,0-.252.265.725.725,0,0,0,.294.221.96.96,0,0,0,.251-.221A2.1,2.1,0,0,0,11.873,24.408Zm0,.574a.385.385,0,0,0-.252.221.591.591,0,0,0,.294.265.719.719,0,0,0,.251-.265C12.076,25.076,12.033,25,11.873,24.982Zm0,.53c-.584.186.144.872.335.265A.621.621,0,0,0,11.873,25.512Zm0,.53-.21.044a.647.647,0,0,0,.042.442.849.849,0,0,0,.419,0,.444.444,0,0,0,0-.442Zm0,.574-.252.044a1.481,1.481,0,0,0,.042.4,1.29,1.29,0,0,0,.5,0,1,1,0,0,0,0-.442Zm.251.53h-.461a1.242,1.242,0,0,0,0,.486h.461A1.242,1.242,0,0,0,12.124,27.146Zm-.839-5.123h0v0Zm0,.132-.083.089.083.088.084-.088Zm0,.221-.125.089.125.088.126-.088Zm0,.265-.167.133.167.132.168-.132Zm0,.354-.209.176.209.177.21-.177Zm0,.4-.251.221.251.221.252-.221Zm0,.486-.251.221.251.221.252-.221Zm0,.53a.729.729,0,0,0-.293.221c.2.248.388.248.587,0A.725.725,0,0,0,11.285,24.408Zm0,.574a.593.593,0,0,0-.293.265c.215.3.372.3.587,0A.591.591,0,0,0,11.285,24.982Zm0,.53c-.651.274.125.8.294.265A.591.591,0,0,0,11.285,25.512Zm0,.53-.209.044c-.079.208-.1.493.223.438.273-.046.236-.266.154-.482Zm0,.574-.251.044a1,1,0,0,0,0,.442,1.253,1.253,0,0,0,.5,0,1,1,0,0,0,0-.442Zm.21.53h-.461a1,1,0,0,0,0,.442H11.5A1,1,0,0,0,11.5,27.146Zm1.636-5.256h0v0Zm-.629,0h0v0Zm-.629,0h0v0Zm-.588,0h0v0Zm1.846-.176h0v0Zm-.629,0h0v0Zm-.629,0h0v0Zm-.588,0h0v0Zm-.629.309h0v0Zm0,.132-.084.089.084.088.084-.088Zm0,.221-.126.089.126.088.126-.088Zm0,.265-.167.133.167.132.168-.132Zm0,.354-.209.176.209.177.21-.177Zm0,.4-.251.221.251.221.252-.221Zm0,.486-.251.221.251.221.252-.221Zm0,.53a.729.729,0,0,0-.293.221c.2.248.387.248.587,0A.725.725,0,0,0,10.656,24.408Zm0,.574a.593.593,0,0,0-.293.265c.215.3.371.3.587,0A.591.591,0,0,0,10.656,24.982Zm0,.53c-.583.186.145.872.336.265A.623.623,0,0,0,10.656,25.512Zm0,.53-.209.044-.084.221c.271.381.679.2.5-.265Zm0,.574-.251.044a1,1,0,0,0,0,.442,1.253,1.253,0,0,0,.5,0,1,1,0,0,0,0-.442Zm.252.53h-.461a1,1,0,0,0,0,.442h.461A1,1,0,0,0,10.908,27.146Zm-.839-5.123h0v0Zm0,.132-.084.089.084.088.084-.088Zm0,.221-.126.089.126.088.126-.088Zm0,.265-.168.133.168.132.168-.132Zm0,.354-.21.176.21.177.21-.177Zm0,.4-.252.221.252.221.252-.221Zm0,.486-.252.221.252.221.252-.221Zm0,.53a.725.725,0,0,0-.294.221c.2.248.388.248.588,0A.725.725,0,0,0,10.069,24.408Zm0,.53a.6.6,0,0,0-.294.265c.216.3.372.3.588,0A.591.591,0,0,0,10.069,24.938Zm0,.574c-.113.048-.294.093-.294.265,0,.13.18.265.294.265a.325.325,0,0,0,.287-.251C10.37,25.615,10.19,25.563,10.069,25.512Zm0,.53-.21.044c-.079.208-.1.493.223.438.273-.046.237-.266.155-.482Zm0,.574-.252.044a1,1,0,0,0,0,.442,1.258,1.258,0,0,0,.5,0,1,1,0,0,0,0-.442Zm.21.53H9.817a1,1,0,0,0,0,.442h.462A1,1,0,0,0,10.279,27.146ZM9.44,22.023h0v0Zm0,.132-.084.089.084.088.084-.088Zm0,.221-.126.089.126.088.126-.088Zm0,4.24-.252.044a1,1,0,0,0,0,.442,1.258,1.258,0,0,0,.5,0,1,1,0,0,0,0-.442Zm.252.53H9.23a1,1,0,0,0,0,.442h.462A1,1,0,0,0,9.692,27.146Zm.964-5.256h0v0Zm-.587,0h0v0Zm-.629,0h0v0Zm1.216-.176h0v0Zm-.587,0h0v0Zm-.629,0h0v0Zm18.036,6.139Z"/><path class="b" d="M20.849,10.407c-1.415-1.277-.942-3.614.21-4.9a3.976,3.976,0,0,0,.084,4.77Z"/><path class="c" d="M31.172,34.113c-.031-.046,8.889,1.281,4.4,3.859a6.351,6.351,0,0,0,1.3-.4c-3.694,5.64-10.306-.644-7.467-6.272-1.534.823-2.633,3.141-4.539,4.148-1.287.68-4.645,2.394-4.645-.808a1.467,1.467,0,0,1,1.51-1.5c-.267-3.1-6.121-.685-3.062,3.18a1.734,1.734,0,0,1-.042-1.413c.7,5.7,7.925.272,9.562-1.573a17.612,17.612,0,0,1-.755,2.827.663.663,0,0,1,.545-.265c0,7.234,14.63,3.955,9.405-2.519C35.9,31.537,29.027,30.917,31.172,34.113Z"/><path class="c" d="M35.942,6.056c1.568-.815-1.922-1.579-1.117-.762-.59-.6-2.186.644-1.753-1.532a4.111,4.111,0,0,1,.233-.792C32.122,4.647,33.254,7.454,35.942,6.056Z"/><path class="c" d="M33.305,2.97a2.7,2.7,0,0,1,1.908-1.093A1.588,1.588,0,0,0,33.305,2.97Z"/><path class="c" d="M44.955,12.592a3.5,3.5,0,0,0,3.822.914c1.6-.524,3.522-2.215,1.643-4.109-1.515-1.527-3.72.518-2.6,1.093.472.242,5.8-.023,1.544,2.617-3.747,2.323-7.258-5.87-8.925-8.006C38.165,2.188,35.158,0,31.454,0c-3.208,0-7.337,1.641-6.712,5.626.634,4.036,6.273,5.1,8.18,1.529-4.291,2.259-3.222-4.95-7.592-3.18C26.8-.684,33.4-.207,36.529,1.9a4.617,4.617,0,0,0-1.316-.022c2.11.386,5.012,3.606,5.663,4.614.41.635,2.122,3.355,2.563,4.08a2.706,2.706,0,0,0-.318-.114c0,2.332-5.813.562-6.963.53,4.317,1.3-5.975,17.7-7.34,20.405a14.666,14.666,0,0,1,9.018-2.739c-2.072-1.018-.674-2.552.263-3.047.711-.377,6.007-.48,6.857,0,1.7.958-.04,1.276.766,2.871,1.68,3.322,6.173-1.014,8.305,2.429C52.32,24.864,47.88,18.372,44.955,12.592Zm-5.693,9.351,2.265-4.814a4.888,4.888,0,0,1,.923,3.224c.682,0,1.172.986,1.3,1.59Z"/><path class="b" d="M34.645,21.876h0v0Zm.587,0h0v0Zm.629,0h0v0Zm-1.216.177h0v0Zm.587,0h0v0Zm.629,0h0v0Zm-3.4,5.83h-.546v.486h.546Zm-.042-.574H31.96a1,1,0,0,0,0,.442h.462A1,1,0,0,0,32.422,27.309Zm.587,0h-.462a1,1,0,0,0,0,.442h.462A1,1,0,0,0,33.009,27.309Zm-.21-.53-.21.044a1,1,0,0,0,0,.442.853.853,0,0,0,.42,0,1,1,0,0,0,0-.442Zm0-.53-.21.044a.449.449,0,0,0,0,.442.853.853,0,0,0,.42,0,.447.447,0,0,0,0-.442Zm.839,1.06h-.461a1,1,0,0,0,0,.442h.461A1,1,0,0,0,33.638,27.309Zm-.252-.53-.209.044a1,1,0,0,0,0,.442.849.849,0,0,0,.419,0,1,1,0,0,0,0-.442Zm0-.53-.209.044a.444.444,0,0,0,0,.442.849.849,0,0,0,.419,0,.447.447,0,0,0,0-.442Zm0-.574c-.112.047-.293.093-.293.265,0,.13.18.265.293.265a.324.324,0,0,0,.287-.251C33.687,25.778,33.507,25.726,33.386,25.675Zm0-.53a.589.589,0,0,0-.293.265c.215.3.371.3.587,0A.587.587,0,0,0,33.386,25.145Zm0-.53a.384.384,0,0,0-.251.221c.2.248.387.248.587,0A.734.734,0,0,0,33.386,24.615Zm.839,2.694h-.461a1,1,0,0,0,0,.442h.461A1,1,0,0,0,34.225,27.309Zm-.209-.53-.21.044a1,1,0,0,0,0,.442.849.849,0,0,0,.419,0,1,1,0,0,0,0-.442Zm0-.53-.21.044a.444.444,0,0,0,0,.442.849.849,0,0,0,.419,0,.444.444,0,0,0,0-.442Zm0-.574c-.113.047-.294.093-.294.265,0,.13.18.265.294.265a.326.326,0,0,0,.287-.251C34.316,25.778,34.137,25.726,34.016,25.675Zm0-.53a.587.587,0,0,0-.294.265c.215.3.372.3.587,0A.589.589,0,0,0,34.016,25.145Zm0-.53a.383.383,0,0,0-.252.221c.2.248.388.248.587,0A.736.736,0,0,0,34.016,24.615Zm0-.574-.252.22.252.221.251-.221Zm0-.442-.21.221.21.221.209-.221Zm.838,3.754h-.461a1,1,0,0,0,0,.442h.461A1,1,0,0,0,34.854,27.353Zm-.209-.574-.21.044a.632.632,0,0,0-.042.442.849.849,0,0,0,.419,0,1,1,0,0,0,0-.442Zm0-.53c-.285.06-.313.171-.21.442a.873.873,0,0,0,.419,0,.444.444,0,0,0,0-.442Zm0-.53c-.124.052-.242.076-.294.221C34.525,26.526,35.314,25.86,34.645,25.719Zm0-.574a.587.587,0,0,0-.294.265c.216.3.372.3.587,0A1.338,1.338,0,0,0,34.645,25.145Zm0-.53a.717.717,0,0,0-.294.221c.2.248.388.248.587,0C34.842,24.759,34.747,24.683,34.645,24.615Zm0-.574-.294.265.252.22.251-.22Zm0-.442-.21.221.21.221.209-.221Zm0-.442-.21.177.21.177.209-.177Zm0-.309-.168.133.168.132.167-.132Zm0-.265-.126.088.126.089.126-.089Zm0-.221-.084.089.084.088.084-.088Zm0-.132h0v0Zm.839,5.123h-.462a1,1,0,0,0,0,.442h.462A1,1,0,0,0,35.484,27.353Zm-.252-.574-.21.044a1,1,0,0,0,0,.442,1.09,1.09,0,0,0,.462,0,1,1,0,0,0,0-.442Zm0-.53-.21.044a.447.447,0,0,0,0,.442.853.853,0,0,0,.42,0,.449.449,0,0,0,0-.442Zm0-.53c-.113.047-.294.093-.294.265,0,.13.18.265.294.265A.325.325,0,0,0,35.519,26C35.533,25.822,35.353,25.77,35.232,25.719Zm0-.574a.591.591,0,0,0-.294.265c.216.3.372.3.588,0A.6.6,0,0,0,35.232,25.145Zm0-.53a.385.385,0,0,0-.252.221c.2.248.388.248.587,0A.726.726,0,0,0,35.232,24.615Zm0-.53-.252.221.252.22.252-.22Zm0-.486-.21.221.21.221.252-.221Zm0-.4-.21.177.21.177.21-.177Zm0-.353-.168.133.168.132.168-.132Zm0-.265-.126.088.126.089.126-.089Zm0-.221-.084.089.084.088.084-.088Zm0-.132h0v0Zm.839,5.123h-.462a1,1,0,0,0,0,.442h.462A1,1,0,0,0,36.071,27.353Zm-.21-.53h-.252a1,1,0,0,0,0,.442,1.09,1.09,0,0,0,.462,0,1,1,0,0,0,0-.442Zm0-.574-.21.044a.449.449,0,0,0,0,.442.853.853,0,0,0,.42,0C36.149,26.53,36.155,26.249,35.861,26.249Zm0-.53c-.651.274.124.8.294.265C36.077,25.847,36.035,25.718,35.861,25.719Zm0-.574a.6.6,0,0,0-.294.265c.216.3.372.3.588,0A.591.591,0,0,0,35.861,25.145Zm0-.53a.717.717,0,0,0-.294.221c.2.248.388.248.588,0A.717.717,0,0,0,35.861,24.615Zm0-.53-.252.221.252.22.252-.22Zm0-.486-.252.221.21.221.252-.221Zm0-.4-.21.177.21.177.21-.177Zm0-.353-.168.133.168.132.168-.132Zm0-.265-.126.088.126.089.126-.089Zm0-.221-.084.089.084.088.084-.088Zm0-.132h0v0Zm.587-.309h0v0Zm.629,0h0v0Zm.588,0h0v0Zm.629,0h0v0Zm-1.846.176h0v0Zm.629,0h0v0Zm.588,0h0v0Zm.629,0h0v0Zm-1.846,3.048a.589.589,0,0,0-.293.265c.215.3.371.3.587,0A.587.587,0,0,0,36.448,25.145Zm0-.53a.384.384,0,0,0-.251.221c.2.248.387.248.587,0A.734.734,0,0,0,36.448,24.615Zm0-.53-.251.221.251.22.252-.22Zm0-.486-.209.221.209.221.252-.221Zm0-.4-.209.177.209.133.21-.177Zm0-.353-.167.133.167.132.168-.132Zm0-.265-.126.088.126.089.126-.089Zm0-.221-.084.089.084.088.084-.088Zm0-.132h0v0Zm.629,1.855-.251.221.251.22.252-.22Zm0-.486-.209.221.209.221.252-.221Zm0-.4-.209.177.209.177.21-.177Zm0-.353-.167.133.167.132.168-.132Zm0-.265-.125.088.125.089.126-.089Zm0-.221-.083.089.083.088.084-.088Zm0-.132h0v0Zm.588,1.855-.252.221.252.22.251-.22Zm0-.486-.21.221.21.221.251-.221Zm0-.4-.21.177.21.177.209-.177Zm0-.353-.168.133.168.132.168-.132Zm0-.265-.126.088.126.089.126-.089Zm0-.221-.084.089.084.088.084-.088Zm0-.132h0v0Zm.629,1.855-.252.221.252.22.252-.22Zm0-.486-.21.221.21.221.252-.221Zm0-.4-.21.177.21.177.21-.177Zm0-.353-.168.133.168.132.168-.132Zm0-.618h0v0Zm.629,1.855-.252.221.252.22.252-.22Zm0-.442-.21.221.21.221.252-.221Zm0-.442-.21.177.21.177.21-.177Zm0-.309-.168.133.168.132.168-.132Zm.587,1.193-.251.221.251.22.252-.22Zm0-.442-.209.221.209.221.252-.221Zm0-.442-.209.177.209.177.21-.177Zm0-.309-.126.133.168.132.168-.132Zm.629,1.237-.251.221.251.221.252-.221Zm0-.486-.209.221.209.221.252-.221Zm0-.4-.209.176.209.177.21-.177Zm0-.354-.167.133.167.132.168-.132Zm.588,1.237-.252.221.252.221.251-.221Zm0-.486-.21.221.21.221.251-.221Zm0-.4-.21.176.21.177.209-.177Zm0-.354-.168.133.168.132.167-.132Zm.629,1.237-.294.221.252.221.252-.221Zm0-.486-.21.221.21.221.252-.221Zm0-.4-.21.176.21.177.21-.177Zm0-.354-.168.177.168.132.126-.132Zm.587,1.237-.252.265.252.221.252-.221Zm0-.442-.21.221.21.221.252-.221Zm0-.441-.21.176.21.177.21-.177Zm0-.31-.126.133.168.132.168-.132Zm3.062-.927h0v0Zm.629,0h0v0Zm.587,0h0v0Zm.63,0h0v0Zm.629,0h0v0Zm.587,0h0v0Zm-3.062.177h0v0Zm.629,0h0v0Zm.587,0h0v0Zm.63,0h0v0Zm.587,0h0v0Zm.629,0h0v0Zm-5.495,1.943-.293.265.251.221.252-.221Zm0-.442-.251.177.251.221.21-.221Zm0-.441-.209.176.209.177.21-.177Zm0-.31-.167.133.167.132.168-.132Zm.629,1.193-.293.265.252.221.251-.221Zm0-.442-.251.221.251.221.21-.221Zm0-.441-.209.176.209.177.21-.177Zm0-.31-.167.133.167.132.168-.132Zm.588,1.237-.252.221.252.221.251-.221Zm0-.486-.21.221.252.221.209-.221Zm0-.4-.21.176.21.177L44,23.466Zm0-.354-.168.133.168.132.167-.132Zm.629,1.237-.294.221.252.221.252-.221Zm0-.486-.252.221.252.221.21-.221Zm0-.4-.21.176.21.177.21-.177Zm0-.354-.168.133.168.132.168-.132Zm.587,1.237-.252.221.252.221.252-.221Zm0-.486-.252.221.252.221.21-.221Zm0-.4-.168.176.21.177.21-.177Zm0-.354-.126.133.168.132.168-.132Zm0-.441-.042.044-3.314-7.111-3.313,7.111-.084-.044-.084.088.084.088.084-.044-.042.133-.126.088.126.088.126-.088-.084-.088h.545l-.084.088.126.088.126-.088-.084-.088h.545l-.126.044.126.088.126-.088-.084-.088H40.1l-.084.088.125.088.126-.088-.084-.088h.546l-.084.088.126.088.125-.088-.083-.088h.545l-.084.088.126.088.126-.088-.084-.088h.545L41.9,22.8l.126.088.126-.088-.084-.088h.545l-.084.088.126.088.126-.088-.084-.088h.462l-.084.088.125.088.126-.088-.084-.088h.546l-.084.088.126.088.125-.088-.083-.088h.545l-.084.088.126.088.126-.088-.084-.088h.545l-.084.088.126.088.126-.088a.339.339,0,0,1-.126-.221l.042.044.084-.088Zm0-.177h0v0Zm.629,1.855-.251.221.251.221.252-.221Zm0-.442-.251.221.251.221.21-.221Zm0-.441-.209.176.209.177.21-.177Zm0-.309-.168.132.168.133.168-.133Zm0-.31-.126.089.126.088.126-.088Zm0-.176-.084.088.084.088.084-.088Zm0-.133h0v0Zm.587,1.811-.251.221.251.221.252-.221Zm0-.442-.251.221.251.221.252-.221Zm0-.441-.209.176.209.177.21-.177Zm0-.309-.125.132.167.133.168-.133Zm0-.265L46.1,22.8l.125.088.126-.088Zm0-.221-.083.088.083.088.084-.088Zm0-.133h0v0Zm.63,2.915a.591.591,0,0,0-.294.265c.216.3.372.3.587,0A.593.593,0,0,0,46.851,25.277Zm0-.53a.725.725,0,0,0-.294.221c.2.248.388.248.587,0C47.048,24.892,46.953,24.815,46.851,24.747Zm0-.53-.252.221.252.221.251-.221Zm0-.486-.252.221.252.221.209-.221Zm0-.4-.21.177.21.176.209-.176Zm0-.353-.168.132.168.133.167-.133Zm0-.265-.126.088.126.088.125-.088Zm0-.221-.084.088.084.088.084-.088Zm0-.133h0v0ZM31.289,28.59v.353l-.084.044A.793.793,0,0,1,31.289,28.59Zm0,0,.042-.089h.5v-.485h-.251l.042-.089h.167a2.1,2.1,0,0,1,.126-.662v.088a.853.853,0,0,0,.42,0,1,1,0,0,0,0-.442,1.821,1.821,0,0,0-.252-.044l.042-.088h0l.21-.044c.064-.169.106-.238,0-.4l.168-.309c.011.268.385.25.488.075a.259.259,0,0,0-.363-.34l.084-.132c.162.108.29-.1.378-.221-.053-.074-.087-.158-.168-.177l.377-.751.084.089.252-.221-.21-.177.378-.751.168.133.209-.177-.209-.177-.126.089.084-.177a.507.507,0,0,0,.209-.132l-.084-.089,4.036-8.124a3.627,3.627,0,0,0,.411-2.829,32.821,32.821,0,0,0,3.488.258c.494.01.989.007,1.484.007.274,0,.331.112.513.335s.336.429.492.653A17.266,17.266,0,0,1,45.6,15.206l2.947,5.767.565,1.105c.13.255.188.276.084.549l.125.089.042-.045.462.928-.126.132.252.221L50,23.908l.125.309-.209-.176-.252.22.252.221.251-.221.21.4-.084.177a.714.714,0,0,0,.294.22l.042.089c-.163-.109-.29.1-.378.221.121.169.379.423.5.088a1.62,1.62,0,0,1,.118.249c.023.09,0,.147.013.22.043.187.2.178.246.326-.3-.018-.236.307-.168.486a.853.853,0,0,0,.42,0v-.044a1.788,1.788,0,0,1,.209.618h.126l.042.088h-.21a1,1,0,0,0,0,.442h.42l.042.088h-.5v.486h.545v-.4a.506.506,0,0,1,.084.353h.126l.042.088h-.168v.265h-.084v-.265h-.545v.221h-.084v-.221h-.546v.221h-.084v-.265h-.5v.265h-.084v-.309h-.545v.309h-.084v-.309h-.545v.4h-.084v-.4H48.4v.442h-.084v-.442h-.546v.442h0v-.4h-.545v.265c-.137-.144-.054-.314,0-.486v.221h.545v-.486h-.5v-.088h.462a1,1,0,0,0,0-.442H47.27v-.088a1.29,1.29,0,0,0,.5,0,1,1,0,0,0,0-.442,1.29,1.29,0,0,0-.5,0l-.042.177c-.087-.276-.071-.5-.168-.751h-.084l-.041-.132c.384-.028.111-.651-.21-.442l-.378-.751a.416.416,0,0,0,.168-.132.717.717,0,0,0-.294-.221.942.942,0,0,0-.251.221l.126.132H45.8l.126-.132c-.161-.2-.421-.317-.545,0l.125.132h-.293l.126-.132c-.2-.249-.388-.249-.588,0l.126.132h-.293l.125-.132a2.04,2.04,0,0,0-.293-.265.362.362,0,0,0-.252.265l.126.132H44l.126-.132c-.2-.249-.387-.249-.587,0l.126.132h-.294l.126-.132c-.161-.2-.42-.317-.545,0l.126.132H42.74l.126-.132c-.161-.2-.421-.317-.545,0l.125.132h-.293l.126-.132c-.2-.249-.388-.249-.588,0l.126.132h-.293l.125-.132c-.161-.2-.42-.317-.545,0l.126.132h-.294l.126-.132c-.2-.249-.387-.249-.587,0l.126.132h-.294l.126-.132c-.161-.2-.42-.317-.545,0l.126.132H39.72l.084-.132a.717.717,0,0,0-.294-.221.942.942,0,0,0-.251.221l.125.132h-.293l.126-.132c-.162-.2-.421-.317-.546,0l.126.132H38.5l.125-.132c-.2-.249-.387-.249-.587,0l.126.132h-.294L38,24.836a2.04,2.04,0,0,0-.293-.265.587.587,0,0,0-.294.265l.126.132h-.294l.126-.132c-.161-.2-.42-.317-.545,0a.54.54,0,0,0,.21.176,3.827,3.827,0,0,0-.378.751c-.369-.275-.643.374-.21.4-.046.147-.179.1-.222.275-.032.131.033.236.023.379a3.977,3.977,0,0,0-.01,1.068h0v.088h-.084v.177h-.084v-.177h-.545v.221h-.084v-.221H34.9v.221h-.084v-.221h-.461v.31h-.084v-.31h-.545v.354h-.084v-.354h-.545v.442h-.084v-.486h-.545v.486h.083v.044h-.083v-.044h-.546v.177h-.084v-.177ZM47.48,26.381l-.21.045a.445.445,0,0,0,0,.441.853.853,0,0,0,.42,0,.447.447,0,0,0,0-.441Zm0-.53c-.113.048-.294.094-.294.265,0,.131.18.265.294.265a.325.325,0,0,0,.287-.251C47.78,25.954,47.6,25.9,47.48,25.851Zm0-.574a.6.6,0,0,0-.294.265c.216.3.372.3.587,0A.593.593,0,0,0,47.48,25.277Zm0-.53a.725.725,0,0,0-.294.221c.2.248.388.248.587,0C47.677,24.892,47.582,24.815,47.48,24.747Zm0-.53-.252.221.252.221.252-.221Zm0-.486-.252.221.252.221.252-.221Zm0-.4-.21.177.21.176.21-.176Zm0-.353-.168.132.168.133.168-.133Zm0-.265-.126.088.126.088.126-.088Zm0-.221-.084.088.084.088.084-.088Zm0-.133h0v0Zm.881,5.654h-.5V28.5H48.4Zm-.042-.53h-.462a1,1,0,0,0,0,.441h.462A1,1,0,0,0,48.319,27.486Zm-.252-.53L47.815,27a1,1,0,0,0,0,.441,1.258,1.258,0,0,0,.5,0,1,1,0,0,0,0-.441Zm0-.575-.21.045a.447.447,0,0,0,0,.441.853.853,0,0,0,.42,0,.445.445,0,0,0,0-.441Zm0-.53c-.113.048-.294.094-.294.265,0,.131.18.265.294.265a.325.325,0,0,0,.287-.251C48.368,25.954,48.188,25.9,48.067,25.851Zm0-.53a.6.6,0,0,0-.294.265c.216.3.372.3.588,0A.6.6,0,0,0,48.067,25.321Zm0-.574a.725.725,0,0,0-.294.221c.2.248.388.248.588,0A.725.725,0,0,0,48.067,24.747Zm0-.53-.252.221.252.221.252-.221Zm0-.486-.21.221.252.221.252-.221Zm0-.4-.168.177.21.176.21-.176Zm0-.353-.168.132.168.133.168-.133Zm0-.265-.126.088.126.088.126-.088Zm0-.221-.084.088.084.088.084-.088Zm0-.133h0v0Zm.629-.309h0v0Zm0,.177h0v0Zm.252,5.83h-.5v.486h.545Zm0-.751h-.461a.97.97,0,0,0,0,.442h.461A1,1,0,0,0,48.948,27.309Zm-.252-.53-.251.044a1,1,0,0,0,0,.442,1.29,1.29,0,0,0,.5,0,1,1,0,0,0,0-.442Zm0-.53-.209.044a.444.444,0,0,0,0,.442.849.849,0,0,0,.419,0,.447.447,0,0,0,0-.442Zm0-.574c-.112.047-.293.093-.293.265,0,.13.179.265.293.265a.324.324,0,0,0,.287-.251C49,25.778,48.817,25.726,48.7,25.675Zm0-.53a.589.589,0,0,0-.293.265c.215.3.371.3.587,0A.591.591,0,0,0,48.7,25.145Zm0-.574a.359.359,0,0,0-.251.265c.2.248.387.248.587,0A1.342,1.342,0,0,0,48.7,24.571Zm0-.53-.251.22.251.221.252-.221Zm0-.486-.251.221L48.7,24l.252-.22Zm0-.4-.209.177.209.177.21-.177Zm0-.353-.168.132.168.133.168-.133Zm0-.265-.084.132.126.089.126-.089Zm0-.177-.084.044.084.089.084-.089Zm0-.176h0v0Zm.881,5.7h-.545v.486h.545Zm-.042-.574h-.461a1.223,1.223,0,0,0,0,.486h.461A1.242,1.242,0,0,0,49.535,27.309Zm-.21-.53-.251.044a1,1,0,0,0,0,.442,1.29,1.29,0,0,0,.5,0,1,1,0,0,0,0-.442Zm0-.53c-.284.06-.312.171-.209.442a.873.873,0,0,0,.419,0,.444.444,0,0,0,0-.442Zm0-.574c-.112.047-.293.093-.293.265,0,.13.18.265.293.265a.324.324,0,0,0,.287-.251C49.626,25.778,49.446,25.726,49.325,25.675Zm0-.53a.72.72,0,0,0-.293.221c.215.3.372.3.587,0C49.523,25.289,49.427,25.213,49.325,25.145Zm0-.53a.72.72,0,0,0-.293.221c.2.248.388.248.587,0C49.523,24.759,49.427,24.683,49.325,24.615Zm0-.574-.293.265.251.22.252-.22Zm0-.442-.251.221.251.221.252-.221Zm0-.442-.209.177.209.177.21-.177Zm0-.309-.167.133.167.132.168-.132Zm.881,5.035h-.545v.486h.545Zm-.042-.53H49.7a1,1,0,0,0,0,.442h.461A1,1,0,0,0,50.164,27.353Zm-.251-.574-.252.044a2.259,2.259,0,0,0,.042.442,1.29,1.29,0,0,0,.5,0,1,1,0,0,0,0-.442Zm0-.53-.21.044a.447.447,0,0,0,0,.442.849.849,0,0,0,.419,0,.444.444,0,0,0,0-.442Zm0-.53c-.113.047-.294.093-.294.265,0,.13.18.265.294.265A.326.326,0,0,0,50.2,26C50.213,25.822,50.034,25.77,49.913,25.719Zm0-.574a.587.587,0,0,0-.294.265c.216.3.372.3.587,0A.589.589,0,0,0,49.913,25.145Zm0-.53a.383.383,0,0,0-.252.221c.2.248.388.248.587,0A.731.731,0,0,0,49.913,24.615Zm.88,3.268h-.5v.486h.545Zm-.041-.53H50.29a1,1,0,0,0,0,.442h.462A1,1,0,0,0,50.752,27.353Zm-.21-.574-.252.044a2.259,2.259,0,0,0,.042.442,1.29,1.29,0,0,0,.5,0,1,1,0,0,0,0-.442Zm0-.53-.21.044a.447.447,0,0,0,0,.442.853.853,0,0,0,.42,0,.449.449,0,0,0,0-.442Zm0-.53c-.113.047-.294.093-.294.265,0,.13.18.265.294.265A.325.325,0,0,0,50.829,26C50.842,25.822,50.663,25.77,50.542,25.719Zm.881,2.164h-.546v.486h.546Zm-.042-.53h-.462a1,1,0,0,0,0,.442h.462A1,1,0,0,0,51.381,27.353Zm-.21-.574-.252.044a1,1,0,0,0,0,.442,1.3,1.3,0,0,0,.5,0,1,1,0,0,0,0-.442ZM43.956,13.75h-.083c1.183,2.119,2.187,4.357,3.257,6.541l.518,1.055H47.9l-3.387-6.5C44.323,14.48,44.14,14.115,43.956,13.75Z"/><path class="b" d="M25.219,4.362l.293-.088a5.088,5.088,0,0,0,4.111,3.8c-1.9-.207-4.3-1.43-4.4-3.71ZM35.543,5.519c-.3.789-1.547.448-2.238-.091C33.994,5.624,34.9,5.984,35.543,5.519Zm12.668,4.618c-.143,0-.394-.218-.335-.4.043-.132.4-.3.5-.357a1.858,1.858,0,0,1,1.174-.151,1.621,1.621,0,0,1,1.259,1.523,1.452,1.452,0,0,0-2.6-.618Zm-27.3,22.905A2.169,2.169,0,0,0,19.439,35.3h0a2.145,2.145,0,0,1-.21-1.684C19.485,32.774,20.225,32.8,20.907,33.042Zm11.114,1.122a.682.682,0,0,1-.587-.574c2.272-1.4,5.572.5,5.62,3.268-.348-2.251-3.051-4.085-5.033-2.694Z"/><path class="d" d="M52.339,17.659c1.365.169,3.84.912,4.027-1.458H56.24c0,1.881-3.58,1.993-3.09-.066.349-1.47,2.419.264,2.419-1.214-1.463-1.055-4.52.628-2.81,2.429A.506.506,0,0,0,52.339,17.659Z"/><path class="d" d="M67.02,23.574,67.1,23.4c4.733-.263,9.933-1.548,8.454-7.277-1.6-6.187-10.779-4.6-15.248-4.6a47.209,47.209,0,0,1-6.627-.354c2.758.769,3.768,8.971,2.76,13.873-.379-1.909-2.4-3.07-2.005-5.128-3.37,1.109,2,3.8,1.8,5.966-.381,1.366-.952,2.367-1.721,2.691h9.186c-1.835-.773-1.9-3.375-1.72-5.123,1.2,0,2.915.056,4.724-.025-1.279.135-2.249.914-2.249,1.877.1,3.2,4.664,2.208,3.048.494-.241-.256-1.27,1.281-2.272.356C63.913,24.924,65.888,23.574,67.02,23.574Zm-5.075-4.063c.024-1.91-.332-2.664.836-3.357a13.288,13.288,0,0,1,5.5,0C74.338,19.446,63.541,19.511,61.945,19.511Z"/><path class="b" d="M74.021,18.917l.21.044c1.067-2.808-1.494-5.217-3.859-5.785v.044c2.344.395,4.629,3.118,3.649,5.7ZM68.275,20.2c1.722.363,2.853-1.65,2.36-3.232a2.21,2.21,0,0,0-1.584-1.575,3.955,3.955,0,0,0-.954-.007c-1.7.038-3.4,0-5.1,0H61.186v4.77h7.089Zm-7.928-7.862H67a18.421,18.421,0,0,1,2.906.1,6.159,6.159,0,0,1,4.734,3.36,4.9,4.9,0,0,1-2.25,6.129l-.042-.045-.042.045.042.044a6.172,6.172,0,0,1-1.761.706l.042-.044-.126-.088-.126.088.084.044c-.168.045-.378.089-.545.133h0c-.158.04-.478.13-.588-.044-.1.169-.5.135-.629,0a.557.557,0,0,1-.671,0,.505.505,0,0,1-.629,0,.505.505,0,0,1-.629,0,.505.505,0,0,1-.629,0,.506.506,0,0,1-.63,0,.505.505,0,0,1-.629,0,.505.505,0,0,1-.629,0,.505.505,0,0,1-.629,0,.505.505,0,0,1-.629,0,.505.505,0,0,1-.629,0,.506.506,0,0,1-.63,0,.505.505,0,0,1-.629,0l-.168.132c.116.075.084.184.084.309l-.126.089.126.088c0,.216,0,.224-.167.353.259.2.186.338-.042.53.121.1.258.165.209.354a.6.6,0,0,0-.209.176.538.538,0,0,0,.209.177v.177a.558.558,0,0,0-.209.221c.063.089.107.179.209.22v.133a.223.223,0,0,0,0,.442v.088h-.126c-.071.188-.125.491.168.486v.088l-.251.044a1,1,0,0,0,0,.442,1.548,1.548,0,0,0,.377.044l.042.088h-.21a1,1,0,0,0,0,.442h.462l.042-.221a1.13,1.13,0,0,0,.167.309h-.083v.177h-.042v-.177h-.546v.177h-.084v-.177h-.545v.177h-.084v-.177H59.76v.177h-.084v-.177h-.545v.177h-.084v-.177H58.5v.177h0v-.177h-.546v.177h-.084v-.177h-.545v.177h-.084v-.177H56.7v.177h-.084v-.177h-.168l.042-.088h.084a5.023,5.023,0,0,1,.168-.574,1.07,1.07,0,0,0,.461,0,1,1,0,0,0,0-.442,1.9,1.9,0,0,0-.335-.044v-.088a1.461,1.461,0,0,0,.293-.044c.072-.188.126-.492-.167-.486h0v-.044h0c.345-.146.347-.384,0-.53v-.089a.589.589,0,0,0,.293-.265.593.593,0,0,0-.293-.265v-.088a.381.381,0,0,1,.251-.088.72.72,0,0,0-.293-.221c-.011-.146.153-.223.251-.309-.3-.261-.3-.268,0-.53-.257-.226-.313-.213-.042-.442-.214-.181-.277-.212-.042-.4-.083-.066-.183-.1-.167-.22l.125-.089-.125-.088a.172.172,0,0,1,.084-.177.134.134,0,0,1-.042-.221.11.11,0,0,1,0-.176.111.111,0,0,1,0-.177c-.137-.153-.042-.677-.042-.873V14.786a4.351,4.351,0,0,0-.881-2.67A34.939,34.939,0,0,0,60.347,12.336ZM71.672,22.23h0v0Zm-.587,0h0v0Zm0,.132L71,22.451l.084.088.084-.088Zm.587-.265h0v0Zm-.587,0h0v0Zm.587-.176h0v0Zm-.587,0h0v0Zm-.629.309h0v0Zm0,.132-.084.089.084.088.084-.088Zm-.587-.132h0v0Zm0,.132-.084.089.084.088.084-.088Zm0,.221-.126.088.126.089L70,22.671Zm-.629-.353h0v0Zm0,.132-.084.089.084.088.083-.088Zm0,.221-.126.088.126.089.125-.089Zm-.63-.353h0v0Zm0,.132-.084.089.084.088.084-.088Zm0,.221-.126.088.126.089.126-.089Zm-.587-.353h0v0Zm0,.132-.084.089.084.088.084-.088Zm0,.221-.126.088.126.089.126-.089Zm-.629-.353h0v0Zm0,.132-.084.089.084.088.084-.088Zm0,.221-.126.088.126.089.126-.089Zm-.587-.353h0v0Zm0,.132-.084.089.084.088.084-.088Zm0,.221-.126.088.126.089.126-.089Zm-.629-.353h0v0Zm0,.132-.084.089.084.088.083-.088Zm0,.221-.126.088.126.089.125-.089Zm-.588-.353h0v0Zm0,.132-.084.089.084.088.084-.088Zm0,.221-.126.088.126.089.126-.089Zm-.629-.353h0v0Zm0,.132-.084.089.084.088.084-.088Zm0,.221-.126.088.126.089.126-.089Zm5.5-.486h0v0Zm-.587,0h0v0Zm-.629,0h0v0Zm-.588,0h0v0Zm-.629,0h0v0Zm-.587,0h0v0Zm-.629,0h0v0Zm-.629,0h0v0Zm-.588,0h0v0Zm-.629,0h0v0Zm5.537-.176h0v0Zm-.629,0h0v0Zm-.588,0h0v0Zm-.629,0h0v0Zm-.629,0h0v0Zm-.587,0h0v0Zm-.629,0h0v0Zm-.588,0h0v0Zm-.629,0h0v0Zm-.587,0h0v0Zm-.629.309h0v0Zm0,.132-.084.089.084.088.084-.088Zm0,.221-.126.088.126.089.126-.089Zm-.629-.353h0v0Zm0,.176-.084.089.084.088.084-.088Zm0,.177-.126.088.126.089.126-.089Zm-.588-.353h0v0Zm0,.176-.083.089.083.088.084-.088Zm0,.177-.125.088.125.089.126-.089Zm-.629-.309h0v0Zm0,.132-.084.089.084.088.084-.088Zm0,.177-.126.088.126.089.126-.089Zm-.587-.309h0v0Zm0,.132-.084.089.084.088.084-.088Zm0,.177-.126.088.126.089.126-.089Zm-.629-.309h0v0Zm0,.132-.084.089.084.088L61.4,22.5Zm0,.177-.126.088.126.089.126-.089Zm-.587-.309h0v0Zm0,.132-.084.089.084.088.084-.088Zm0,.177-.126.088.126.089.126-.089Zm0,.309-.168.133.168.132.167-.132Zm0,.309-.21.177.21.177.209-.177Zm0,.442-.252.221.252.221.251-.221Zm0,.442-.252.221.252.22.251-.22Zm0,.574a.725.725,0,0,0-.294.221c.2.248.388.248.587,0A.729.729,0,0,0,60.725,24.659Zm0,.53a.587.587,0,0,0-.294.265c.216.3.372.3.587,0A.589.589,0,0,0,60.725,25.189Zm0,.53c-.113.047-.294.093-.294.265,0,.13.18.265.294.265A.326.326,0,0,0,61.012,26C61.025,25.822,60.846,25.77,60.725,25.719Zm0,.574-.21.044a.447.447,0,0,0,0,.442.849.849,0,0,0,.419,0,.444.444,0,0,0,0-.442Zm0,.53-.252.044a1,1,0,0,0,0,.442,1.29,1.29,0,0,0,.5,0,1,1,0,0,0,0-.442Zm.209.53h-.461a1,1,0,0,0,0,.442h.419A2.185,2.185,0,0,0,60.934,27.353ZM60.1,22.23h0v0Zm0,.176-.084.089.084.088.083-.088Zm0,.177-.126.088.126.089.125-.089Zm0,.265-.168.133.168.132.167-.132Zm0,.353-.21.177.21.177.209-.177Zm0,.4-.252.221.252.221.251-.221Zm0,.486-.252.221.252.22.251-.22Zm0,.53a.717.717,0,0,0-.294.221c.2.248.388.248.587,0A.72.72,0,0,0,60.1,24.615Zm0,.574a.587.587,0,0,0-.294.265c.215.3.372.3.587,0A.589.589,0,0,0,60.1,25.189Zm0,.53c-.113.047-.294.093-.294.265,0,.13.18.265.294.265A.326.326,0,0,0,60.383,26C60.4,25.822,60.217,25.77,60.1,25.719Zm0,.574-.21.044a.444.444,0,0,0,0,.442.849.849,0,0,0,.419,0,.444.444,0,0,0,0-.442Zm0,.53-.252.044a1,1,0,0,0,0,.442,1.29,1.29,0,0,0,.5,0,1,1,0,0,0,0-.442Zm.251.53h-.461a1,1,0,0,0,0,.442h.461A1,1,0,0,0,60.347,27.353Zm-.839-5.123h0v0Zm0,.132-.084.089.084.088.084-.088Zm0,.221-.126.088.126.089.126-.089Zm0,.265-.167.133.167.132.168-.132Zm0,.353-.209.177.209.177.21-.177Zm0,.4-.251.221.251.221.252-.221Zm0,.486-.251.221.251.22.252-.22Zm0,.53a.72.72,0,0,0-.293.221c.2.248.387.248.587,0A.717.717,0,0,0,59.508,24.615Zm0,.574a.589.589,0,0,0-.293.265c.215.3.371.3.587,0A.591.591,0,0,0,59.508,25.189Zm0,.53c-.112.047-.293.093-.293.265,0,.13.18.265.293.265A.324.324,0,0,0,59.8,26C59.809,25.822,59.629,25.77,59.508,25.719Zm0,.53-.209.044a.444.444,0,0,0,0,.442.849.849,0,0,0,.419,0,.447.447,0,0,0,0-.442Zm0,.574-.251.044a1,1,0,0,0,0,.442,1.29,1.29,0,0,0,.5,0,2.467,2.467,0,0,0-.042-.486Zm.21.53h-.461a1,1,0,0,0,0,.442h.461A1,1,0,0,0,59.718,27.353Zm-.839-5.123h0v0Zm0,.132-.084.089.084.088.084-.088Zm0,.221-.126.088.126.089.126-.089Zm0,.265-.168.133.168.132.168-.132Zm0,.353-.21.177.21.177.21-.177Zm0,.4-.252.221.252.221.252-.221Zm0,.486-.252.221.252.22.252-.22Zm0,.53a.717.717,0,0,0-.294.221c.2.248.388.248.588,0A.717.717,0,0,0,58.879,24.615Zm0,.574a.6.6,0,0,0-.294.265c.216.3.372.3.588,0A.591.591,0,0,0,58.879,25.189Zm0,.53c-.113.047-.294.093-.294.265,0,.13.18.265.294.265A.325.325,0,0,0,59.166,26C59.18,25.822,59,25.77,58.879,25.719Zm0,.53-.21.044a.449.449,0,0,0,0,.442.853.853,0,0,0,.42,0,.447.447,0,0,0,0-.442Zm0,.574-.252.044a1,1,0,0,0,0,.442,1.3,1.3,0,0,0,.5,0,1,1,0,0,0,0-.442Zm.252.53h-.462a1,1,0,0,0,0,.442h.462A1,1,0,0,0,59.131,27.353ZM64.374,22.1h0v0Zm-.587,0h0v0Zm-.63,0h0v0Zm-.587,0h0v0Zm-.629,0h0v0Zm-.587,0h0v0Zm-.629,0h0v0Zm-.588,0h0v0Zm-.629,0h0v0Zm-.629,0h0v0Zm5.537-.176h0v0Zm-.629,0h0v0Zm-.588,0h0v0Zm-.629,0h0v0Zm-.629,0h0v0Zm-.587,0h0v0Zm-.629,0h0v0Zm-.588,0h0v0Zm-.629,0h0v0Zm-.587,0h0v0Zm-.629.309h0v0Zm0,.132-.084.089.084.088.084-.088Zm0,.221-.126.088.126.089.126-.089Zm0,.265-.168.133.168.132.168-.132Zm0,.353-.21.177.21.177.21-.177Zm0,.4-.252.221.252.221.252-.221Zm0,.486-.252.221.252.22.252-.22Zm0,.53a.717.717,0,0,0-.294.221c.2.248.388.248.587,0A.707.707,0,0,0,58.292,24.615Zm0,.53A.591.591,0,0,0,58,25.41c.216.3.372.3.587,0A.589.589,0,0,0,58.292,25.145Zm0,.574c-.113.047-.294.093-.294.265,0,.13.18.265.294.265A.325.325,0,0,0,58.579,26C58.592,25.822,58.413,25.77,58.292,25.719Zm0,.53-.21.044a.447.447,0,0,0,0,.442.853.853,0,0,0,.42,0,.449.449,0,0,0,0-.442Zm0,.574-.252.044a1,1,0,0,0,0,.442,1.3,1.3,0,0,0,.5,0,1,1,0,0,0,0-.442Zm.252.53h-.462a1,1,0,0,0,0,.442h.378Zm-.839-5.123h0v0Zm0,.132-.084.089.084.088.084-.088Zm0,.221-.126.088.126.089.125-.089Zm0,.265-.168.133.168.132.167-.132Zm0,.353-.21.177.21.177.209-.177Zm0,.4-.252.221.252.221.251-.221Zm0,.486-.252.221.252.22.251-.22Zm0,.53a.717.717,0,0,0-.294.221c.2.248.388.248.587,0A.72.72,0,0,0,57.705,24.615Zm0,.53a.587.587,0,0,0-.294.265c.216.3.372.3.587,0A.589.589,0,0,0,57.705,25.145Zm0,.574c-.113.047-.294.093-.294.265,0,.13.18.265.294.265A.326.326,0,0,0,57.992,26C58.005,25.822,57.826,25.77,57.705,25.719Zm0,.53-.21.044a.447.447,0,0,0,0,.442.849.849,0,0,0,.419,0,.444.444,0,0,0,0-.442Zm0,.53-.252.044a1,1,0,0,0,0,.442,1.29,1.29,0,0,0,.5,0,1,1,0,0,0,0-.442Zm.209.574h-.461a1,1,0,0,0,0,.442h.461A1,1,0,0,0,57.914,27.353Zm-.587,0h-.461a1,1,0,0,0,0,.442h.419A2.259,2.259,0,0,0,57.327,27.353Zm.965-5.256h0v0Zm-.587,0h0v0Zm.587-.176h0v0Zm-.587,0h0v0Z"/><path class="b" d="M54.852,22.848c-.629-.265-1.523-1.026-.964-1.811A2.378,2.378,0,0,0,54.852,22.848Z"/><path class="e" d="M71.906,28.583l.042-.221a4.868,4.868,0,0,0-4.824,2.076A5.588,5.588,0,0,1,71.906,28.583Z"/><path class="e" d="M67.292,31.586c.115-.061-2.644.319-2.726.839C64.566,33.944,67.068,32.058,67.292,31.586Z"/><path class="e" d="M85.748,17.877a2.475,2.475,0,0,0,.323,3.924c1.533,1.09,2.833-1.039,1.858-1.186,0,.758-1.384.261-1.384-.486.381-5.619,6.285,1.011,6.8,1.458C92.954,17.658,85.748,16.6,85.748,17.877Z"/><path class="e" d="M73.835,30.42c1.427.839,2.1,1.564,1.636,3.242A2.248,2.248,0,0,0,73.835,30.42Z"/><path class="e" d="M70.121,31.233c1.049,2.208,2.475,2.561,4.824,2.826V35.1C73.36,35.1,71.862,30.01,70.121,31.233Z"/><path class="e" d="M82.914,24.284V13.816c0-4.218,6.687-2.849,4.038-.082.173-.182-5.057-.264-1.018,1.187a2.114,2.114,0,0,0,1.907-3.172c-.949-1.855-3.975-.52-5.285-.347a54.2,54.2,0,0,1-7.108.206c2.074.874,2.742,7.342,2,12.191-.452-1.69-2.582-1.119-3.74-.976a.457.457,0,0,0,.419.31c-1.558,1.913,1.395,3.452,2.852,2.429,0-1.567-2.571.368-2.558-1.59.013-2.071,2.371-.891,2.991.053-.439,2.681-1.316,4.824-2.637,5.161L75.5,29.1c-2.659.954-5.184,1.206-8.065,2.261.335.044.713,1.263,1.006,1.44-6.847,8.348,11.24,9.2,8.431,3.622-.993,4.809-6.685-3.2-7.885,1.431-5.872-6.183,6.69-8.585,11.88-9.321,4.006-.337,8.189-.374,11.609.826,0-2.473.629-5.079.629-7.42h-.378C92.729,25.424,84.933,24.284,82.914,24.284Z"/><path class="b" d="M81.717,14.059h-.084l-.125,6.89h.251ZM91.868,24.615a.717.717,0,0,0-.294.221c.2.248.388.248.588,0A.717.717,0,0,0,91.868,24.615Zm0,.53a.591.591,0,0,0-.294.265c.216.3.372.3.588,0A.6.6,0,0,0,91.868,25.145Zm0,.53c-.113.047-.294.093-.294.265,0,.13.18.265.294.265a.325.325,0,0,0,.287-.251C92.169,25.778,91.989,25.726,91.868,25.675Zm0,.574-.21.044a.447.447,0,0,0,0,.442.853.853,0,0,0,.42,0,.449.449,0,0,0,0-.442Zm0,.53-.252.044a1,1,0,0,0,0,.442,1.074,1.074,0,0,0,.462,0v.088h-.42a1,1,0,0,0,0,.442h.378v.088h-.42v.486h.378v.088h-.378l-.335-.088h.251v-.486h-.545v.4H90.9v-.4h-.545v.309h-.084v-.265h-.545v.221h-.084v-.221H89.1V28.1h-.084v-.177h-.462V28.1H88.47v-.177h-.545V28.1h-.084v-.177H87.3V28.1h-.084v-.177h-.545V28.1h-.084v-.177h-.545V28.1h0v-.177h-.546V28.1h-.084v-.177h-.545V28.1h-.084v-.177h-.545V28.1H84.15v-.177h-.545V28.1h-.084v-.177h-.545V28.1h-.084v-.177h-.546V28.1h-.083v-.177h-.546V28.1h-.084v-.177h-.545V28.1H81v-.177h-.419V28.1H80.5v-.177h-.545v.221h-.084v-.221h-.546v.221h-.084v-.221H78.7v.265h-.084v-.265h-.545v.309h0v-.309h-.5c.089-.152.317-.088.461-.088a1,1,0,0,0,0-.442h-.168l.042-.088h.126a2.78,2.78,0,0,0,0-.4c.013-.308.086-.61.084-.927.1.262.607.281.581-.058-.029-.372-.494-.246-.581.014v-.486c.224.278.394.226.587-.044-.215-.3-.372-.3-.587,0v-.53c.238.187.384.209.587-.044-.2-.249-.388-.249-.587,0v-.53l.252.22.251-.22-.251-.221-.252.221V14.979a4.581,4.581,0,0,0-.587-2.643,22.322,22.322,0,0,0,5.411-.309c-.822,1.385-.588,3.256-.588,4.828v7.406l-.251-.22-.252.22.252.221.251-.221v.53c-.144-.113-.48-.3-.5.045.2.248.388.248.587,0v.132c.139,0,.262.087.378.088s.225-.112.385-.088a1.252,1.252,0,0,0,.328.044,1.245,1.245,0,0,1,.39-.037c.048.009.106.081.155.081s.115-.076.168-.088c.161-.035.27.052.406.059a2.759,2.759,0,0,0,.335-.059c.148-.012.251.072.376.075s.226-.106.386-.075c.05.01.118.057.162.059.086,0,.1-.032.2-.045a1.034,1.034,0,0,1,.333-.007c.06.012.11.071.168.075s.127-.07.176-.082c.164-.039.28.078.414.075.11,0,.211-.075.341-.075s.233.076.34.075c.143,0,.252-.109.425-.075.058.012.121.088.178.088s.12-.078.179-.088c.17-.028.3.09.437.082.15-.01.247-.117.426-.082s.207.118.384,0a.945.945,0,0,1,.307.051c.071.022.112.075.181.068.14-.015.21-.183.351-.207.125.317.384.2.546,0l-.084-.089a2.56,2.56,0,0,0,.293-.088l-.167.177c.132.16.278.274.461.132-.2-.118-.353-.285-.545-.4.177-.047.431-.278.587-.089l.252-.22-.042-.045a1.487,1.487,0,0,0,.419-.309v.133l-.252.221.21.176c0,.187-.147.228-.251.354a.282.282,0,0,0,.167.132,1.2,1.2,0,0,1-.126.4c.165.1.043.365.042.53h0l-.125.927v-.088Zm-.587-1.634a.587.587,0,0,0-.294.265c.216.3.372.3.587,0A.589.589,0,0,0,91.281,25.145Zm0,.53c-.113.047-.294.093-.294.265,0,.13.18.265.294.265a.326.326,0,0,0,.287-.251C91.581,25.778,91.4,25.726,91.281,25.675Zm0,.574-.21.044a.447.447,0,0,0,0,.442.849.849,0,0,0,.419,0,.444.444,0,0,0,0-.442Zm0,.53-.252.044a1,1,0,0,0,0,.442,1.29,1.29,0,0,0,.5,0,1,1,0,0,0,0-.442Zm.209.53h-.461a1,1,0,0,0,0,.442h.461A1,1,0,0,0,91.49,27.309Zm-.838-2.164a.587.587,0,0,0-.294.265c.215.3.372.3.587,0A.589.589,0,0,0,90.652,25.145Zm0,.53c-.117.049-.275.087-.288.251s.155.248.288.235a.319.319,0,0,0,.28-.238C90.958,25.726,90.792,25.7,90.652,25.675Zm0,.574-.21.044a.444.444,0,0,0,0,.442.849.849,0,0,0,.419,0,.444.444,0,0,0,0-.442Zm0,.53-.252.044a1,1,0,0,0,0,.442,1.29,1.29,0,0,0,.5,0,1,1,0,0,0,0-.442Zm.251.53h-.461a1,1,0,0,0,0,.442H90.9A1,1,0,0,0,90.9,27.309Zm-.839-2.164a.589.589,0,0,0-.293.265c.215.3.371.3.587,0A.591.591,0,0,0,90.064,25.145Zm0,.53c-.112.047-.293.093-.293.265,0,.13.18.265.293.265a.324.324,0,0,0,.287-.251C90.365,25.778,90.185,25.726,90.064,25.675Zm0,.574-.209.044a.444.444,0,0,0,0,.442.849.849,0,0,0,.419,0,.447.447,0,0,0,0-.442Zm0,.53-.251.044a1,1,0,0,0,0,.442,1.29,1.29,0,0,0,.5,0,1,1,0,0,0,0-.442Zm.21.53h-.461a1,1,0,0,0,0,.442h.461A1,1,0,0,0,90.274,27.309Zm-.839-2.164a.6.6,0,0,0-.294.265c.216.3.372.3.588,0A.591.591,0,0,0,89.435,25.145Zm0,.53c-.113.047-.294.093-.294.265,0,.13.18.265.294.265a.325.325,0,0,0,.287-.251C89.736,25.778,89.556,25.726,89.435,25.675Zm0,.574-.21.044a.449.449,0,0,0,0,.442.853.853,0,0,0,.42,0,.447.447,0,0,0,0-.442Zm0,.53-.252.044a1,1,0,0,0,0,.442,1.3,1.3,0,0,0,.5,0,1,1,0,0,0,0-.442Zm.252.53h-.462a1,1,0,0,0,0,.442h.462A1,1,0,0,0,89.687,27.309Zm-.839-2.164a.591.591,0,0,0-.294.265c.216.3.372.3.587,0A.589.589,0,0,0,88.848,25.145Zm0,.53c-.113.047-.294.093-.294.265,0,.13.18.265.294.265a.325.325,0,0,0,.287-.251C89.148,25.778,88.969,25.726,88.848,25.675Zm0,.574-.21.044a.447.447,0,0,0,0,.442.853.853,0,0,0,.42,0,.449.449,0,0,0,0-.442Zm0,.53-.252.044a1,1,0,0,0,0,.442,1.3,1.3,0,0,0,.5,0,1,1,0,0,0,0-.442Zm.21.53H88.6a1,1,0,0,0,0,.442h.462A1,1,0,0,0,89.058,27.309Zm-.839-2.164a.591.591,0,0,0-.294.265c.216.3.372.3.587,0A.589.589,0,0,0,88.219,25.145Zm0,.53c-.113.047-.294.093-.294.265,0,.13.18.265.294.265a.326.326,0,0,0,.287-.251C88.519,25.778,88.34,25.726,88.219,25.675Zm0,.574-.21.044a.447.447,0,0,0,0,.442.849.849,0,0,0,.419,0,.444.444,0,0,0,0-.442Zm0,.53-.252.044a1,1,0,0,0,0,.442,1.29,1.29,0,0,0,.5,0,1,1,0,0,0,0-.442Zm.209.53h-.461a1,1,0,0,0,0,.442h.461A1,1,0,0,0,88.428,27.309Zm-.838-2.164a.587.587,0,0,0-.294.265c.215.3.372.3.587,0A.589.589,0,0,0,87.59,25.145Zm0,.53c-.113.047-.294.093-.294.265,0,.13.18.265.294.265a.326.326,0,0,0,.287-.251C87.89,25.778,87.711,25.726,87.59,25.675Zm0,.574-.21.044a.444.444,0,0,0,0,.442.849.849,0,0,0,.419,0,.444.444,0,0,0,0-.442Zm0,.53-.252.044a1,1,0,0,0,0,.442,1.29,1.29,0,0,0,.5,0,1,1,0,0,0,0-.442Zm.251.53H87.38a1,1,0,0,0,0,.442h.461A1,1,0,0,0,87.841,27.309ZM87,25.145a.589.589,0,0,0-.293.265c.215.3.371.3.587,0A.587.587,0,0,0,87,25.145Zm0,.53c-.112.047-.293.093-.293.265,0,.13.18.265.293.265a.324.324,0,0,0,.287-.251C87.3,25.778,87.123,25.726,87,25.675Zm0,.574-.209.044a.444.444,0,0,0,0,.442.849.849,0,0,0,.419,0,.447.447,0,0,0,0-.442Zm0,.53-.251.044a1,1,0,0,0,0,.442,1.29,1.29,0,0,0,.5,0,1,1,0,0,0,0-.442Zm.21.53h-.461a1,1,0,0,0,0,.442h.461A1,1,0,0,0,87.212,27.309Zm-.839-2.164a.589.589,0,0,0-.293.265c.215.3.371.3.587,0A2.047,2.047,0,0,0,86.373,25.145Zm0,.53c-.113.047-.293.093-.293.265,0,.13.179.265.293.265a.325.325,0,0,0,.287-.251C86.674,25.778,86.494,25.726,86.373,25.675Zm0,.53-.21.044a.449.449,0,0,0,0,.442.877.877,0,0,0,.42,0,.447.447,0,0,0,0-.442Zm0,.574-.252.044a1,1,0,0,0,0,.442,1.3,1.3,0,0,0,.5,0,1,1,0,0,0,0-.442Zm.252.53h-.462a1,1,0,0,0,0,.442h.462A1,1,0,0,0,86.625,27.309Zm-.881-2.164a.591.591,0,0,0-.294.265c.216.3.372.3.588,0A.6.6,0,0,0,85.744,25.145Zm0,.53c-.113.047-.294.093-.294.265,0,.13.18.265.294.265a.325.325,0,0,0,.287-.251C86.045,25.778,85.865,25.726,85.744,25.675Zm0,.53-.21.044a.447.447,0,0,0,0,.442.877.877,0,0,0,.42,0,.447.447,0,0,0,0-.442Zm0,.574-.252.044a1,1,0,0,0,0,.442,1.3,1.3,0,0,0,.5,0,1,1,0,0,0,0-.442Zm.252.53h-.462a1,1,0,0,0,0,.442H86A1,1,0,0,0,86,27.309Zm-.839-2.164a.591.591,0,0,0-.294.265c.216.3.372.3.587,0A2.04,2.04,0,0,0,85.157,25.145Zm0,.53c-.113.047-.294.093-.294.265,0,.13.18.265.294.265a.325.325,0,0,0,.287-.251C85.457,25.778,85.278,25.726,85.157,25.675Zm0,.53-.21.044a.447.447,0,0,0,0,.442.873.873,0,0,0,.419,0,.444.444,0,0,0,0-.442Zm0,.574-.252.044a1,1,0,0,0,0,.442,1.29,1.29,0,0,0,.5,0,1,1,0,0,0,0-.442Zm.209.53h-.461a1,1,0,0,0,0,.442h.461A1,1,0,0,0,85.366,27.309Zm-.838-2.164a.587.587,0,0,0-.294.265c.215.3.372.3.587,0A.589.589,0,0,0,84.528,25.145Zm0,.53c-.113.047-.294.093-.294.265,0,.13.18.265.294.265a.326.326,0,0,0,.287-.251C84.828,25.778,84.649,25.726,84.528,25.675Zm0,.53-.21.044a.444.444,0,0,0,0,.442.873.873,0,0,0,.419,0,.444.444,0,0,0,0-.442Zm0,.574-.252.044a1,1,0,0,0,0,.442,1.29,1.29,0,0,0,.5,0,1,1,0,0,0,0-.442Zm.251.53h-.461a1,1,0,0,0,0,.442h.461A1,1,0,0,0,84.779,27.309Zm-.839-2.164a.589.589,0,0,0-.293.265c.215.3.371.3.587,0A2.047,2.047,0,0,0,83.94,25.145Zm0,.53c-.117.049-.274.087-.287.251s.154.248.287.235a.319.319,0,0,0,.281-.238C84.247,25.726,84.081,25.7,83.94,25.675Zm0,.53-.209.044a.444.444,0,0,0,0,.442.873.873,0,0,0,.419,0,.447.447,0,0,0,0-.442Zm0,.574-.251.044a1,1,0,0,0,0,.442,1.29,1.29,0,0,0,.5,0,1,1,0,0,0,0-.442Zm.21.53h-.461a1,1,0,0,0,0,.442h.461A1,1,0,0,0,84.15,27.309Zm-.839-2.164a.589.589,0,0,0-.293.265c.215.3.371.3.587,0A.591.591,0,0,0,83.311,25.145Zm0,.53c-.113.047-.293.093-.293.265,0,.13.179.265.293.265a.325.325,0,0,0,.287-.251C83.612,25.778,83.432,25.726,83.311,25.675Zm0,.53-.21.044a.449.449,0,0,0,0,.442.877.877,0,0,0,.42,0,.447.447,0,0,0,0-.442Zm0,.574-.252.044a1,1,0,0,0,0,.442,1.3,1.3,0,0,0,.5,0,1,1,0,0,0,0-.442Zm.252.53H83.1a1,1,0,0,0,0,.442h.462A1,1,0,0,0,83.563,27.309Zm-.839-2.164a.591.591,0,0,0-.294.265c.216.3.372.3.588,0A2.1,2.1,0,0,0,82.724,25.145Zm0,.53c-.113.047-.294.093-.294.265,0,.13.18.265.294.265a.325.325,0,0,0,.287-.251C83.025,25.778,82.845,25.726,82.724,25.675Zm0,.53-.21.044a.447.447,0,0,0,0,.442.877.877,0,0,0,.42,0,.449.449,0,0,0,0-.442Zm0,.574-.252.044a1,1,0,0,0,0,.442,1.3,1.3,0,0,0,.5,0,1,1,0,0,0,0-.442Zm.21.53h-.462a1,1,0,0,0,0,.442h.462A1,1,0,0,0,82.934,27.309ZM82.1,22.186h0v0Zm0,.132-.084.088.084.089.084-.089Zm0,.221-.126.088.126.089.126-.089Zm0,.265-.168.132.168.133.168-.133Zm0,.353-.21.177.21.177.209-.177Zm0,.4-.252.221L82.1,24l.251-.22Zm0,1.546a.591.591,0,0,0-.294.265c.216.3.372.3.587,0A.589.589,0,0,0,82.1,25.1Zm0,.574c-.113.047-.294.093-.294.265,0,.13.18.265.294.265a.325.325,0,0,0,.287-.251C82.4,25.778,82.216,25.726,82.1,25.675Zm0,.53-.21.044a.447.447,0,0,0,0,.442.873.873,0,0,0,.419,0,.444.444,0,0,0,0-.442Zm0,.53-.252.044a1,1,0,0,0,0,.442,1.29,1.29,0,0,0,.5,0,1,1,0,0,0,0-.442Zm.251.574h-.461a1,1,0,0,0,0,.442h.461A1,1,0,0,0,82.346,27.309Zm-.838-5.123h0v0Zm0,.132-.084.088.084.089.083-.089Zm0,.221-.126.088.126.089.125-.089Zm0,.265-.168.132.168.133.167-.133Zm0,.353-.21.177.21.177.209-.177Zm0,.4-.252.221.252.22.251-.22Zm0,.441-.252.221.252.221.251-.221Zm0,.575a.714.714,0,0,0-.294.22c.2.249.388.249.587,0A.718.718,0,0,0,81.508,24.571Zm0,.53a.587.587,0,0,0-.294.265c.215.3.372.3.587,0A.589.589,0,0,0,81.508,25.1Zm0,.574c-.113.047-.294.093-.294.265,0,.13.18.265.294.265a.326.326,0,0,0,.287-.251C81.808,25.778,81.629,25.726,81.508,25.675Zm0,.53-.21.044a.444.444,0,0,0,0,.442.873.873,0,0,0,.419,0,.444.444,0,0,0,0-.442Zm0,.53-.252.044a1,1,0,0,0,0,.442,1.29,1.29,0,0,0,.5,0,1,1,0,0,0,0-.442Zm.209.574h-.461a1,1,0,0,0,0,.442h.461A1,1,0,0,0,81.717,27.309Zm-.839-5.123h0v0Zm0,.132-.084.088.084.089.084-.089Zm0,.177-.125.088a.176.176,0,0,0,.251.044Zm0,.309-.167.132.167.133.168-.133Zm0,.309-.209.177.209.176.21-.176Zm0,.442-.251.221.251.22.252-.22Zm0,.441-.251.221.251.221.252-.221Zm0,.575a.718.718,0,0,0-.293.22c.2.249.387.249.587,0A.714.714,0,0,0,80.878,24.571Zm0,.53a.589.589,0,0,0-.293.265c.215.3.371.3.587,0A.587.587,0,0,0,80.878,25.1Zm0,.53c-.112.047-.293.093-.293.265,0,.13.18.265.293.265a.325.325,0,0,0,.287-.252C81.179,25.734,81,25.682,80.878,25.631Zm0,.574-.209.044a.444.444,0,0,0,0,.442.873.873,0,0,0,.419,0,.447.447,0,0,0,0-.442Zm0,.53-.251.044a1,1,0,0,0,0,.442,1.29,1.29,0,0,0,.5,0,1,1,0,0,0,0-.442Zm.21.574h-.461a1,1,0,0,0,0,.442h.461A1,1,0,0,0,81.088,27.309Zm-.839-5.123h0v0Zm0,.132-.084.088.084.089.084-.089Zm0,.177-.084.132.126.089.126-.089Zm0,.265-.168.132.168.133.168-.133Zm0,.353-.21.177.21.176.21-.176Zm0,.4-.251.22.251.221.252-.221Zm0,.485L80,24.217l.251.221.252-.221Zm0,.575a.7.7,0,0,0-.293.22c.2.249.387.249.587,0A.714.714,0,0,0,80.249,24.571Zm0,.53a.589.589,0,0,0-.293.265c.215.3.371.3.587,0A.591.591,0,0,0,80.249,25.1Zm0,.53c-.113.047-.293.093-.293.265,0,.13.179.265.293.265a.326.326,0,0,0,.287-.252C80.55,25.734,80.37,25.682,80.249,25.631Zm0,.574-.21.044a.449.449,0,0,0,0,.442.877.877,0,0,0,.42,0,.447.447,0,0,0,0-.442Zm0,.53L80,26.779a.97.97,0,0,0,0,.442,1.29,1.29,0,0,0,.5,0,1,1,0,0,0,0-.442Zm.252.53h-.462a1,1,0,0,0,0,.441H80.5A1,1,0,0,0,80.5,27.265ZM82.1,22.009h0v0Zm-.587,0h0v0Zm-.63,0h0v0Zm-.587,0h0v0Zm1.8-.177h0v0Zm-.587,0h0v0Zm-.63,0h0v0Zm-.587,0h0v0Zm-.629.354h0v0Zm0,.132-.084.088.084.089.084-.089Zm0,.177-.126.088.126.088.126-.088Zm0,.265-.168.132.168.133.168-.133Zm0,.353-.21.177.21.176.21-.176Zm0,.4-.252.22.252.221.252-.221Zm0,.485-.252.221.252.221.252-.221Zm0,.575a.714.714,0,0,0-.294.22c.2.249.388.249.588,0A.714.714,0,0,0,79.662,24.571Zm0,.53a.591.591,0,0,0-.294.265c.216.3.372.3.588,0A.6.6,0,0,0,79.662,25.1Zm0,.53c-.113.047-.294.093-.294.265,0,.13.18.265.294.265a.326.326,0,0,0,.287-.252C79.963,25.734,79.783,25.682,79.662,25.631Zm0,.574-.21.044a.447.447,0,0,0,0,.442.877.877,0,0,0,.42,0,.449.449,0,0,0,0-.442Zm0,.53-.252.044a1,1,0,0,0,0,.442,1.3,1.3,0,0,0,.5,0,1,1,0,0,0,0-.442Zm.252.53h-.462a1,1,0,0,0,0,.441h.462A1,1,0,0,0,79.914,27.265Zm-.881-5.124h0v0Zm0,.133-.084.088.084.089.084-.089Zm0,.221-.126.088.126.088.126-.088Zm0,.265-.168.132.168.133.168-.133Zm0,.353-.21.177.21.176.209-.176Zm0,.4-.252.22.252.221.251-.221Zm0,.485-.252.221.252.221.251-.221Zm0,.53a.725.725,0,0,0-.294.221c.2.248.388.248.587,0A.722.722,0,0,0,79.033,24.526Zm0,.575a.591.591,0,0,0-.294.265c.216.3.372.3.587,0A.589.589,0,0,0,79.033,25.1Zm0,.53c-.113.047-.294.093-.294.265,0,.13.18.265.294.265a.326.326,0,0,0,.287-.252C79.333,25.734,79.154,25.682,79.033,25.631Zm0,.53-.21.044a.445.445,0,0,0,0,.441.849.849,0,0,0,.419,0,.442.442,0,0,0,0-.441Zm0,.574-.252.044a1,1,0,0,0,0,.442,1.29,1.29,0,0,0,.5,0,1,1,0,0,0,0-.442Zm.251.53h-.461a1,1,0,0,0,0,.441h.461A1,1,0,0,0,79.284,27.265Zm-.838-5.124h0v0Zm0,.133-.084.088.084.089.083-.089Zm0,.221-.126.088.126.088.125-.088Zm0,.265-.168.132.168.133.167-.133Zm0,.353-.21.177.21.176.209-.176Zm0,.4-.252.22.252.221.251-.221Zm0,2.694-.21.044a.444.444,0,0,0,0,.442.873.873,0,0,0,.419,0,.444.444,0,0,0,0-.442Zm0,.53-.252.044a1,1,0,0,0,0,.442,1.29,1.29,0,0,0,.5,0,1,1,0,0,0,0-.442Zm.209.53h-.461a1,1,0,0,0,0,.441h.461A1,1,0,0,0,78.655,27.265Zm1.007-5.256h0v0Zm-.587,0h0v0Zm-.629,0h0v0Zm1.216-.177h0v0Zm-.587,0h0v0Zm-.629,0h0v0Z"/><path class="b" d="M69.385,38.324l.168-.221a5.957,5.957,0,0,0,5.956.089c-1.819,1.149-4.337,1.595-6.124.132Zm17.827-16.58a1.73,1.73,0,0,1-1.8-2.07c.3-1.151,1.639-1.7,2.634-1.905l.042.044a3.332,3.332,0,0,0-2.322,1.838A1.691,1.691,0,0,0,87.212,21.744Z"/><path class="f" d="M94.516,30.111c2.534,0-.88-3.171-.88-4.2A4.276,4.276,0,0,0,94.516,30.111Z"/><path class="f" d="M96.669,11.649c-2.05.673-2.633,1.713-3.02,3.843C94.231,14.691,97.426,12.844,96.669,11.649Z"/><path class="f" d="M99.047,29.934A.993.993,0,0,0,98,30.862c2.768,0-2.815,5.157-2.978-.354l-.378-.132a7.413,7.413,0,0,1-.293,2.12c1.327,0,3.152,1.559,4.679.567C100.02,32.419,101.353,29.934,99.047,29.934Z"/><path class="f" d="M103.106,11.327c-2.444-1.31-2.916-5.006.861-5.022,4.246-.308.923,3.641.923,2.562-1.213.425.607,1.5,1.328,1.346,1.9-.4,2.087-2.786.853-4.085,0-.113-4.389-.745-5.473.293a3.143,3.143,0,0,0,.477,5.067q-.528.1-1.04.243c-3-.261-7.291,0-8.417-2.632,0,2.367-3.269-.175-3.807-.914-1.3-1.783-1.8-4.251-.111-6.025,1.2,4.632,6.932-2.3,7.885,2.517,3.1-5.867-12.506-7.262-9.358,1.988,1.578,4.64,7.669,4.933,12.773,5.4-3.43,1.269-6.057,3.972-6.057,8.11,0,11.935,21.771,11.939,21.811,0C115.776,13.562,109.082,10.614,103.106,11.327Zm-3.392,9.291h.017c0-3.094,5.5-4.28,6.388-1.25,1.3,4.434-4.051,1.338-2.739,1.338,0-.22-.293-.4-.629-.4-1.684-.136.4,4.63,3.691,2.385.592,0,.343-4.128-1.247-5.025a4.205,4.205,0,0,0-5.465,1.906c.682-5.238,10.278-5.062,10.278.6C110.008,25.87,100.224,26.043,99.714,20.618Z"/><path class="b" d="M114.072,19.889h.21c-.126-3.622-2.684-6.228-6.837-6.978V13c4.111.707,6.5,3.312,6.627,6.89ZM98.93,20.2a4.751,4.751,0,0,0,.42,2.032h0l.042.132-.042-.044-.084.088.084.089.042-.044a4.164,4.164,0,0,0,.5.795l-.126.132.21.177.126-.089a1.153,1.153,0,0,0,.335.31l-.042.044.252.221.042-.045.377.265-.083.089.251.221.126-.133c.126.088.294.133.42.221a.808.808,0,0,0-.21.177c.2.248.388.248.587,0l-.126-.133.21.088-.042.045c.151.19.316.281.5.088a3.223,3.223,0,0,0,1.007.221c-.134.016-.177.116-.252.221.216.3.372.3.588,0-.064-.09-.108-.18-.21-.221.126,0,.252.044.377.044l-.126.177c.216.3.372.3.588,0l-.084-.133h.252l-.084.133c.215.3.371.3.587,0l-.084-.133h.252l-.084.177c.215.3.371.3.587,0l-.126-.177h0c.168,0,.294-.044.42-.044-.135.016-.178.116-.252.221.215.3.372.3.587,0-.074-.105-.117-.205-.252-.221.168-.044.378-.044.546-.088l.042.044c.095-.134.245-.107.377-.177.187.188.351.1.5-.088l-.042-.044a1.507,1.507,0,0,0,.377-.177.946.946,0,0,0-.252.221c.2.248.388.248.588,0a.725.725,0,0,0-.294-.221,3.719,3.719,0,0,0,.419-.221l.168.177.252-.221-.126-.133.378-.265.083.089.252-.221-.084-.088c.126-.089.21-.221.336-.31l.168.133.209-.177-.167-.176c.26-.32.406-.762.671-1.06a4.883,4.883,0,0,0-2.554-6.351,7.774,7.774,0,0,0-7.639.877A4.389,4.389,0,0,0,98.93,20.2Zm15.73,1.988h0v0Zm-.588,0h0v0Zm0,.176-.084.089.084.088.084-.088Zm0,.177-.125.088.125.089.126-.089Zm0,.265-.167.132.167.133.168-.133Zm0,.353-.209.177.209.177.21-.177Zm-.629-.927h0v0Zm0,.132-.084.089.084.088.084-.088Zm0,.177-.126.088.126.089.126-.089Zm0,.265-.168.132.168.133.168-.133Zm0,.353-.21.177.21.177.21-.177Zm0,.442-.21.221.21.221.252-.221Zm0,.442-.251.22.251.221.252-.221Zm-.587-1.855h0v0Zm0,.132-.084.088.084.089.084-.089Zm0,.221-.126.088.126.089.126-.089Zm0,.265-.168.132.168.133.168-.133Zm0,.353-.21.177.21.177.21-.177Zm0,.4-.21.221.21.22.252-.22Zm0,.486-.252.22.252.221.252-.221Zm0,.53a.714.714,0,0,0-.294.22c.2.249.388.249.588,0A.714.714,0,0,0,112.856,24.571Zm0,.574a.591.591,0,0,0-.294.265c.064.089.108.179.21.221-.084.088-.21.176-.294.265-.156-.552-.88.27-.335.309a1.315,1.315,0,0,1-.294.221c-.075-.187-.308-.121-.461-.089-.064.169-.106.237,0,.4a1.852,1.852,0,0,1-.671.132l-.042.221v-.044l-.084.044a1.542,1.542,0,0,0-.042-.309,1.055,1.055,0,0,0-.461,0,1,1,0,0,0,0,.442l.167.044c-.084.044-.209.088-.293.132v-.044h-.42l-.042.221-.083.044a2.179,2.179,0,0,0-.042-.265h-.462a.667.667,0,0,0,0,.4,1.754,1.754,0,0,1-.629.132v.044H108.2v-.088h-.545v.177h-.084V27.8h-.545V28.1h-.084V27.8H106.4v.353h-.083V27.8h-.546v.4h0v-.441h-.545v.441h-.084v-.441h-.545v.441h-.084v-.441h-.545v.441h-.084v-.441h-.545v.4h-.084V27.8h-.546V28.1h-.084V27.8h-.545v.221h-.084V27.8h-.419v.088h-.084V27.8a1.893,1.893,0,0,1-.671-.089,1,1,0,0,0,0-.441h-.462a2.149,2.149,0,0,0-.042.265l-.083-.044a2.149,2.149,0,0,0-.042-.265h-.462v.088l-.126-.044v-.044a.534.534,0,0,1-.209-.089l.209-.044a1,1,0,0,0,0-.442,1.086,1.086,0,0,0-.461,0A1.324,1.324,0,0,0,99.1,27l-.126-.044a1.975,1.975,0,0,0-.042-.265,1.055,1.055,0,0,0-.461,0l-.21-.133H98.3a.444.444,0,0,0,0-.442.873.873,0,0,0-.419,0l-.042.133c-.071-.056-.15-.091-.168-.177a.294.294,0,0,1-.168-.088c.561-.018-.12-.907-.335-.221a2.85,2.85,0,0,1-.336-.309c.134-.016.177-.116.252-.221-.15-.21-.4-.4-.546-.044l-.293-.309a.624.624,0,0,0,.21-.177c-.133-.161-.279-.274-.462-.132h0c-.084-.133-.168-.221-.252-.354l.084-.088c-.129-.113-.221-.233-.335-.353l.084.088.251-.221-.251-.221-.168.177a4.016,4.016,0,0,1-.336-.751l.042-.044c-.1-.082-.174-.222-.042-.309l-.126-.089-.041.045a7.915,7.915,0,0,1,.865-6.586,8.6,8.6,0,0,1,4.807-3.36,14.9,14.9,0,0,1,7.253-.258,9.392,9.392,0,0,1,5.337,2.964,7.736,7.736,0,0,1,1.41,7.019l-.084.088.084.044a.182.182,0,0,1-.126.177l.042.044a10.386,10.386,0,0,1-.42,1.016l-.125-.133-.21.221.21.177a1.14,1.14,0,0,1-.21.309l.042.044a2.462,2.462,0,0,1-.252.354l-.126-.089a.729.729,0,0,0-.293.221.288.288,0,0,0,.167.133l-.251.309-.084-.089Zm-.629-2.959h0v0Zm0,.132-.084.088.084.089.084-.089Zm0,.221-.126.088.126.089.126-.089Zm0,.265-.168.132.168.133.168-.133Zm0,.353-.21.177.21.177.21-.177Zm0,.4-.252.221.252.22.21-.22Zm0,.486-.252.22.252.221.251-.221Zm0,.53a.714.714,0,0,0-.294.22c.169.21.364.288.545.045Zm0,.53a.591.591,0,0,0-.294.265c.216.3.372.3.587,0A.589.589,0,0,0,112.227,25.1Zm-.629-2.915h0v0Zm0,.132-.084.088.084.089.084-.089Zm0,.221-.126.088.126.089.125-.089Zm0,.265-.168.132.168.133.167-.133Zm0,.353-.21.177.21.177.209-.177Zm0,.4-.21.221.21.22.251-.22Zm0,.441-.252.221.252.221.251-.221Zm0,.575a.714.714,0,0,0-.294.22c.2.249.388.249.587,0A.718.718,0,0,0,111.6,24.571Zm0,.53a.587.587,0,0,0-.294.265c.216.3.372.3.587,0A.589.589,0,0,0,111.6,25.1Zm0,.574c-.113.047-.294.093-.294.265,0,.13.18.265.294.265a.326.326,0,0,0,.287-.251C111.9,25.778,111.719,25.726,111.6,25.675Zm-.588-3.489h0v0Zm0,.132-.083.088.083.089.084-.089Zm0,.177-.125.088.125.088.126-.088Zm0,.309-.167.132.167.133.168-.133Zm0,.309-.209.177.209.176.21-.176Zm0,.442-.251.221.251.22.252-.22Zm0,.441-.251.221.251.221.252-.221Zm0,.575a.718.718,0,0,0-.293.22c.2.249.388.249.587,0A.714.714,0,0,0,111.01,24.571Zm0,.53a.589.589,0,0,0-.293.265c.215.3.372.3.587,0A.587.587,0,0,0,111.01,25.1Zm0,.53c-.112.047-.293.093-.293.265,0,.13.18.265.293.265a.325.325,0,0,0,.287-.252C111.311,25.734,111.131,25.682,111.01,25.631Zm0,.574-.209.044a.444.444,0,0,0,0,.442.873.873,0,0,0,.419,0,.444.444,0,0,0,0-.442Zm3.65-4.2h0v0Zm-.588,0h0v0Zm-.629,0h0v0Zm-.587,0h0v0Zm-.629,0h0v0Zm-.587,0h0v0Zm-.63,0h0v0Zm3.692-.133h0v0Zm-.63,0h0v0Zm-.587,0h0v0Zm-.629,0h0v0Zm-.629,0h0v0Zm-.587,0h0v0Zm-.63,0h0v0Zm-.587.31h0v0Zm0,.132-.084.088.084.089.084-.089Zm0,.177-.126.088.126.088.126-.088Zm0,.309-.168.132.168.133.168-.133Zm0,.309-.21.177.21.176.21-.176Zm0,.442-.251.221.251.22.252-.22Zm0,.441-.251.221.251.221.252-.221Zm0,.575a.711.711,0,0,0-.293.22c.2.249.387.249.587,0A.714.714,0,0,0,110.423,24.571Zm0,.53a.589.589,0,0,0-.293.265c.215.3.371.3.587,0A.591.591,0,0,0,110.423,25.1Zm0,.53c-.113.047-.293.093-.293.265,0,.13.179.265.293.265a.326.326,0,0,0,.287-.252C110.724,25.734,110.544,25.682,110.423,25.631Zm0,.574-.21.044a.449.449,0,0,0,0,.442.877.877,0,0,0,.42,0,.447.447,0,0,0,0-.442Zm-.629-2.694-.252.22.252.221.252-.221Zm0,.485-.252.221.252.221.252-.221Zm0,.53a.725.725,0,0,0-.294.221c.2.248.388.248.588,0A.725.725,0,0,0,109.794,24.526Zm0,.575a.6.6,0,0,0-.294.265c.216.3.372.3.588,0A.591.591,0,0,0,109.794,25.1Zm0,.53c-.113.047-.294.093-.294.265,0,.13.18.265.294.265a.326.326,0,0,0,.287-.252C110.1,25.734,109.915,25.682,109.794,25.631Zm0,.574-.21.044a.447.447,0,0,0,0,.442.877.877,0,0,0,.42,0,.447.447,0,0,0,0-.442Zm0,.53-.252.044a1,1,0,0,0,0,.442,1.3,1.3,0,0,0,.5,0,1,1,0,0,0,0-.442ZM109.207,24l-.252.221.252.221.251-.221Zm0,.53a.725.725,0,0,0-.294.221c.2.248.388.248.587,0A.722.722,0,0,0,109.207,24.526Zm0,.575a.591.591,0,0,0-.294.265c.216.3.372.3.587,0A.589.589,0,0,0,109.207,25.1Zm0,.53c-.113.047-.294.093-.294.265,0,.13.18.265.294.265a.326.326,0,0,0,.287-.252C109.507,25.734,109.328,25.682,109.207,25.631Zm0,.574-.21.044a.447.447,0,0,0,0,.442.877.877,0,0,0,.42,0,.449.449,0,0,0,0-.442Zm0,.53-.252.044a1,1,0,0,0,0,.442,1.29,1.29,0,0,0,.5,0,1,1,0,0,0,0-.442Zm-.629-2.209a.725.725,0,0,0-.294.221c.2.248.388.248.587,0A.729.729,0,0,0,108.578,24.526Zm0,.575a.587.587,0,0,0-.294.265c.215.3.372.3.587,0A.589.589,0,0,0,108.578,25.1Zm0,.53c-.113.047-.294.093-.294.265,0,.13.18.265.294.265a.327.327,0,0,0,.287-.252C108.878,25.734,108.7,25.682,108.578,25.631Zm0,.53-.21.044a.442.442,0,0,0,0,.441.849.849,0,0,0,.419,0,.442.442,0,0,0,0-.441Zm0,.574-.252.088a1,1,0,0,0,0,.442,1.29,1.29,0,0,0,.5,0,1,1,0,0,0,0-.442Zm.251.53h-.461a1,1,0,0,0,0,.441l.419-.044C108.841,27.521,108.9,27.414,108.829,27.265ZM107.99,25.1a.589.589,0,0,0-.293.265c.215.3.372.3.587,0A.587.587,0,0,0,107.99,25.1Zm0,.53c-.112.047-.293.093-.293.265,0,.13.18.265.293.265a.325.325,0,0,0,.287-.252C108.291,25.734,108.111,25.682,107.99,25.631Zm0,.53-.209.044a.442.442,0,0,0,0,.441.849.849,0,0,0,.419,0,.442.442,0,0,0,0-.441Zm0,.574-.251.044a1,1,0,0,0,0,.442,1.29,1.29,0,0,0,.5,0,1,1,0,0,0,0-.442Zm.21.53h-.461a1,1,0,0,0,0,.441h.461A1,1,0,0,0,108.2,27.265Zm-.839-2.164a.589.589,0,0,0-.293.265c.215.3.371.3.587,0A.591.591,0,0,0,107.361,25.1Zm0,.53c-.113.047-.293.093-.293.265,0,.13.179.265.293.265a.326.326,0,0,0,.287-.252C107.662,25.734,107.482,25.682,107.361,25.631Zm0,.53-.21.044a.447.447,0,0,0,0,.441.853.853,0,0,0,.42,0,.445.445,0,0,0,0-.441Zm0,.574-.251.044a1,1,0,0,0,0,.442,1.29,1.29,0,0,0,.5,0,1,1,0,0,0,0-.442Zm.21.53h-.461a1,1,0,0,0,0,.441h.461A1,1,0,0,0,107.571,27.265Zm-.839-2.164a.6.6,0,0,0-.294.265c.216.3.372.3.588,0A.591.591,0,0,0,106.732,25.1Zm0,.53c-.113.047-.294.093-.294.265,0,.13.18.265.294.265a.326.326,0,0,0,.287-.252C107.033,25.734,106.853,25.682,106.732,25.631Zm0,.53-.21.044a.445.445,0,0,0,0,.441.853.853,0,0,0,.42,0,.445.445,0,0,0,0-.441Zm0,.574-.252.044a1,1,0,0,0,0,.442,1.3,1.3,0,0,0,.5,0,1,1,0,0,0,0-.442Zm.252.53h-.462a1,1,0,0,0,0,.441h.462A1,1,0,0,0,106.984,27.265Zm-.839-1.634c-.113.047-.294.093-.294.265,0,.13.18.265.294.265a.326.326,0,0,0,.287-.252C106.445,25.734,106.266,25.682,106.145,25.631Zm0,.53-.21.044a.445.445,0,0,0,0,.441.853.853,0,0,0,.42,0,.447.447,0,0,0,0-.441Zm0,.574-.252.044a1,1,0,0,0,0,.442,1.29,1.29,0,0,0,.5,0,.97.97,0,0,0,0-.442Zm.21.53h-.462a1,1,0,0,0,0,.441h.462A1,1,0,0,0,106.355,27.265Zm-.839-1.634c-.285.121-.313.536.052.525.114,0,.283-.13.283-.26C105.851,25.71,105.639,25.674,105.516,25.631Zm0,.53-.21.044a.442.442,0,0,0,0,.441.849.849,0,0,0,.419,0,.442.442,0,0,0,0-.441Zm0,.574-.252.044a1,1,0,0,0,0,.442,1.29,1.29,0,0,0,.5,0,1,1,0,0,0,0-.442Zm.251.53h-.461a1,1,0,0,0,0,.441h.461A1,1,0,0,0,105.767,27.265Zm-.839-1.634c-.112.047-.293.093-.293.265,0,.13.18.265.293.265a.325.325,0,0,0,.287-.252C105.229,25.734,105.049,25.682,104.928,25.631Zm0,.53-.209.044a.442.442,0,0,0,0,.441.849.849,0,0,0,.419,0,.442.442,0,0,0,0-.441Zm0,.574-.251.044a1,1,0,0,0,0,.442,1.29,1.29,0,0,0,.5,0,1,1,0,0,0,0-.442Zm.21.53h-.461a1,1,0,0,0,0,.441h.461A1,1,0,0,0,105.138,27.265Zm-.839-1.634c-.112.047-.293.093-.293.265,0,.13.179.265.293.265a.325.325,0,0,0,.287-.252C104.6,25.734,104.42,25.682,104.3,25.631Zm0,.53-.209.044a.442.442,0,0,0,0,.441.849.849,0,0,0,.419,0,.445.445,0,0,0,0-.441Zm0,.574-.251.044a1,1,0,0,0,0,.442,1.29,1.29,0,0,0,.5,0,1,1,0,0,0,0-.442Zm.252.53h-.5a1,1,0,0,0,0,.441h.461A2.249,2.249,0,0,0,104.551,27.265Zm-.839-1.634c-.113.047-.294.093-.294.265,0,.13.18.265.294.265a.326.326,0,0,0,.287-.252C104.013,25.734,103.833,25.682,103.712,25.631Zm0,.53-.21.044a.445.445,0,0,0,0,.441.853.853,0,0,0,.42,0,.445.445,0,0,0,0-.441Zm0,.574-.252.044a1,1,0,0,0,0,.442,1.3,1.3,0,0,0,.5,0,1,1,0,0,0,0-.442Zm.21.53h-.5a1,1,0,0,0,0,.441h.462A2.249,2.249,0,0,0,103.922,27.265Zm-.839-2.164a.591.591,0,0,0-.294.265c.216.3.372.3.587,0A.589.589,0,0,0,103.083,25.1Zm0,.53c-.113.047-.294.093-.294.265,0,.13.18.265.294.265a.326.326,0,0,0,.287-.252C103.383,25.734,103.2,25.682,103.083,25.631Zm0,.53-.21.044a.445.445,0,0,0,0,.441.853.853,0,0,0,.42,0,.447.447,0,0,0,0-.441Zm0,.574-.252.044a1,1,0,0,0,0,.442,1.3,1.3,0,0,0,.5,0,1,1,0,0,0,0-.442Zm.252.53h-.462a1,1,0,0,0,0,.441h.462A1,1,0,0,0,103.335,27.265ZM102.5,25.1a.587.587,0,0,0-.294.265c.215.3.372.3.587,0A.589.589,0,0,0,102.5,25.1Zm0,.53c-.113.047-.294.093-.294.265,0,.13.18.265.294.265a.327.327,0,0,0,.287-.252C102.8,25.734,102.617,25.682,102.5,25.631Zm0,.53-.21.044a.442.442,0,0,0,0,.441.849.849,0,0,0,.419,0,.442.442,0,0,0,0-.441Zm0,.574-.252.044a1,1,0,0,0,0,.442,1.29,1.29,0,0,0,.5,0,1,1,0,0,0,0-.442Zm.209.53h-.5a1,1,0,0,0,0,.441h.461A2.175,2.175,0,0,0,102.705,27.265Zm-.839-2.164a.589.589,0,0,0-.293.265c.215.3.372.3.587,0A.587.587,0,0,0,101.866,25.1Zm0,.53c-.112.047-.293.093-.293.265,0,.13.18.265.293.265a.325.325,0,0,0,.287-.252C102.167,25.734,101.987,25.682,101.866,25.631Zm0,.53-.209.044a.442.442,0,0,0,0,.441.849.849,0,0,0,.419,0,.442.442,0,0,0,0-.441Zm0,.574-.251.044a1,1,0,0,0,0,.442,1.29,1.29,0,0,0,.5,0,1,1,0,0,0,0-.442Zm.21.53h-.461a1,1,0,0,0,0,.441h.461A1,1,0,0,0,102.076,27.265Zm-.839-2.739a.729.729,0,0,0-.293.221c.2.248.387.248.587,0A.725.725,0,0,0,101.237,24.526Zm0,.575a.589.589,0,0,0-.293.265c.215.3.371.3.587,0A.591.591,0,0,0,101.237,25.1Zm0,.53c-.112.047-.293.093-.293.265,0,.13.179.265.293.265a.325.325,0,0,0,.287-.252C101.538,25.734,101.358,25.682,101.237,25.631Zm0,.53-.209.044a.442.442,0,0,0,0,.441.849.849,0,0,0,.419,0,.445.445,0,0,0,0-.441Zm0,.574-.251.044a1,1,0,0,0,0,.442,1.29,1.29,0,0,0,.5,0,1,1,0,0,0,0-.442Zm.252.53h-.5a1,1,0,0,0,0,.441h.461A2.249,2.249,0,0,0,101.489,27.265ZM100.608,24l-.252.221.252.221.252-.221Zm0,.53a.725.725,0,0,0-.294.221c.2.248.388.248.588,0A.725.725,0,0,0,100.608,24.526Zm0,.53a.6.6,0,0,0-.294.265c.216.3.372.3.588,0A.6.6,0,0,0,100.608,25.056Zm0,.575c-.113.047-.294.093-.294.265,0,.13.18.265.294.265a.326.326,0,0,0,.287-.252C100.909,25.734,100.729,25.682,100.608,25.631Zm0,.53-.21.044a.447.447,0,0,0,0,.441.853.853,0,0,0,.42,0,.445.445,0,0,0,0-.441Zm0,.574-.252.044a1,1,0,0,0,0,.442,1.3,1.3,0,0,0,.5,0,1,1,0,0,0,0-.442Zm-.587-3.224-.252.22.252.221.252-.221Zm0,.485-.252.221.252.221.252-.221Zm0,.53a.725.725,0,0,0-.294.221c.2.248.388.248.587,0A.716.716,0,0,0,100.021,24.526Zm0,.53a.6.6,0,0,0-.294.265c.216.3.372.3.587,0A.6.6,0,0,0,100.021,25.056Zm0,.575c-.113.047-.294.093-.294.265,0,.13.18.265.294.265a.326.326,0,0,0,.287-.252C100.321,25.734,100.142,25.682,100.021,25.631Zm0,.53-.21.044a.445.445,0,0,0,0,.441.853.853,0,0,0,.42,0,.447.447,0,0,0,0-.441Zm0,.53-.252.044a1,1,0,0,0,0,.441,1.258,1.258,0,0,0,.5,0,1,1,0,0,0,0-.441Zm-.629-4.24-.126.088.126.088.126-.088Zm0,.309-.168.132.168.133.167-.133Zm0,.309-.21.177.21.176.209-.176Zm0,.442-.252.22.252.221.251-.221Zm0,.441-.252.221.252.221.251-.221Zm0,.574a.725.725,0,0,0-.294.221c.2.248.388.248.587,0A.729.729,0,0,0,99.392,24.526Zm0,.53a.6.6,0,0,0-.294.265c.216.3.372.3.587,0A.6.6,0,0,0,99.392,25.056Zm0,.53c-.113.048-.294.094-.294.265,0,.131.18.265.294.265a.326.326,0,0,0,.287-.251C99.692,25.689,99.513,25.637,99.392,25.586Zm0,.575-.21.044a.445.445,0,0,0,0,.441.849.849,0,0,0,.419,0,.442.442,0,0,0,0-.441Zm-.588-4.02h0v0Zm0,.133-.083.088.083.089.084-.089Zm0,.177-.125.088.125.088.126-.088Zm0,.309-.167.132.167.133.168-.133Zm0,.309-.209.177.209.176.21-.176Zm0,.442-.251.22.251.221.252-.221Zm0,.441-.251.221.251.221.252-.221Zm0,.574a.729.729,0,0,0-.293.221c.2.248.388.248.587,0A.725.725,0,0,0,98.8,24.526Zm0,.53a.6.6,0,0,0-.293.265c.214.3.408.318.545-.044C98.982,25.173,98.939,25.072,98.8,25.056Zm0,.53c-.112.048-.293.094-.293.265,0,.131.18.265.293.265a.326.326,0,0,0,.288-.251C99.105,25.689,98.926,25.637,98.8,25.586Zm0,.575-.209.044a.442.442,0,0,0,0,.441.849.849,0,0,0,.419,0,.442.442,0,0,0,0-.441Zm0-4.2h0v0Zm0-.177h0v0Zm-.629.353h0v0Zm0,.133-.084.088.084.089.084-.089Zm0,.177-.126.088.126.088.126-.088Zm0,.309-.168.132.168.133.168-.133Zm0,.309-.209.177.209.176.21-.176Zm0,.442-.251.22.251.221.252-.221Zm0,.441-.251.221.251.221.252-.221Zm0,.574a.729.729,0,0,0-.293.221c.2.248.387.248.587,0A.725.725,0,0,0,98.175,24.526Zm0,.53a.6.6,0,0,0-.293.265c.215.3.371.3.587,0A.6.6,0,0,0,98.175,25.056Zm0,.53c-.112.048-.293.094-.293.265,0,.131.18.265.293.265a.324.324,0,0,0,.287-.251C98.476,25.689,98.3,25.637,98.175,25.586ZM97.588,22.1h0v0Zm0,.177-.084.088.084.089.084-.089Zm0,.177-.126.088.126.088.126-.088Zm0,.265-.168.132.168.133.168-.133Zm0,.353-.21.177.21.176.21-.176Zm0,.4-.252.221.252.221.252-.221Zm0,.486-.252.221.252.221.252-.221Zm0,.53a.725.725,0,0,0-.294.221c.2.248.388.248.588,0A.725.725,0,0,0,97.588,24.482Zm0,.574a.6.6,0,0,0-.294.265c.216.3.372.3.588,0A.6.6,0,0,0,97.588,25.056ZM96.959,22.1h0v0Zm0,.133-.084.088.084.088.084-.088Zm0,.221-.126.088.126.088.126-.088Zm0,.265-.168.132.168.133.168-.133Zm0,.353-.21.177.21.176.21-.176Zm0,.4-.252.221.252.221.252-.221Zm0,.486-.252.221.252.221.252-.221Zm0,.53a.725.725,0,0,0-.294.221c.2.248.388.248.587,0A.716.716,0,0,0,96.959,24.482ZM96.33,22.1h0v0Zm0,.133-.084.088.084.088.084-.088Zm0,.221-.126.088.126.088.126-.088Zm0,.265-.168.132.168.133.167-.133Zm0,.353-.21.177.21.176.209-.176Zm0,.4-.252.221.252.221.251-.221Zm0,.486-.252.221.252.221.251-.221ZM95.742,22.1h0v0Zm0,.133-.083.088.083.088.084-.088Zm0,.221-.125.088.125.088.126-.088Zm0,.265-.167.132.167.133.168-.133Zm0,.353-.209.177.209.176.21-.176Zm-.629-.972h0v0Zm0,.133-.084.088.084.088.084-.088Zm3.062-.265h0v0Zm-.587,0h0v0Zm-.629,0h0v0Zm-.587,0h0v0Zm-.63,0h0v0Zm-.629,0h0v0Zm3.062-.177h0v0Zm-.587,0h0v0Zm-.629,0h0v0Zm-.587,0h0v0Zm-.63,0h0v0Zm-.587,0h0v0Z"/><path class="b" d="M96.5,11.939v.088a13.566,13.566,0,0,0-2.265,2.164A6.029,6.029,0,0,1,96.5,11.939Zm6.208,9.01c.278,1.113.979,1.707,1.951,1.441a2.437,2.437,0,0,0,1.866-1.794c.2.31-.362,1.177-.56,1.425a1.948,1.948,0,0,1-1.2.667c-1.113.324-1.892-.432-2.062-1.739Zm2.727-11.086a1.691,1.691,0,0,0,1.441-2.093,3.332,3.332,0,0,0-2.322-1.838l.042-.044c.995.2,2.337.754,2.634,1.906a1.73,1.73,0,0,1-1.8,2.069ZM89.577,1.3c1.765-1.446,4.291-.955,6.082.177a5.942,5.942,0,0,0-5.915.088Z"/><path class="g" d="M120.9,24.974c-1.53-1.342.752-2.823,2.059-2.823l.1-.191c.883-.046,1.78-.123,2.657-.244a4.171,4.171,0,0,0,.21-2.641,3.339,3.339,0,0,0-1.672-1.9,40.905,40.905,0,0,1-6.8.522,3.658,3.658,0,0,0-.452,1.978,6.066,6.066,0,0,0,1.011,2.345c1.291.012,2.9.039,4.589-.033-1.477.148-2.6,1-2.6,2.059.121,3.506,5.388,2.422,3.522.542C123.25,24.3,122.061,25.989,120.9,24.974Z"/><path class="b" d="M127.658,21.015l.008-.008-.012,0Z"/><path class="b" d="M124.9,21.258a.666.666,0,0,0,.616.084c.007-.029.013-.059.02-.088l-.006,0-.145-.1.145-.1.042.028c.01-.048.019-.1.026-.145l-.068.068-.1-.1.1-.1.074.073a3.293,3.293,0,0,0-.165-1.675,2.508,2.508,0,0,0-.465-.734,2.326,2.326,0,0,1-.558-.039V18.4h-6.586a6.5,6.5,0,0,0,.323,2.949.359.359,0,0,0,.157-.09.609.609,0,0,0,.727,0,.609.609,0,0,0,.727,0,.609.609,0,0,0,.727,0,.609.609,0,0,0,.727,0,.609.609,0,0,0,.727,0,.608.608,0,0,0,.726,0,.609.609,0,0,0,.727,0l-.145-.1.145-.1.145.1-.145.1a.609.609,0,0,0,.727,0l-.145-.1.145-.1.145.1-.145.1A.67.67,0,0,0,124.9,21.258Zm-.1-.436.1.1-.1.1-.1-.1Zm0,.242.146.1-.146.1-.145-.1Zm-6.3.194-.145-.1.145-.1-.1-.1.1-.1.1.1-.1.1.146.1Zm.679,0-.146-.1.146-.1-.1-.1.1-.1.1.1-.1.1.145.1Zm.726-.436.1.1-.1.1-.1-.1Zm0,.436-.145-.1.145-.1.146.1Zm.679-.436.1.1-.1.1-.1-.1Zm0,.436-.146-.1.146-.1.145.1Zm.727-.436.1.1-.1.1-.1-.1Zm0,.436-.146-.1.146-.1.145.1Zm.678-.436.1.1-.1.1-.1-.1Zm0,.436-.145-.1.145-.1.145.1Zm.727-.436.1.1-.1.1-.1-.1Zm0,.436-.146-.1.146-.1.145.1Zm.678-.243-.1-.1.1-.1.1.1Zm.727,0-.1-.1.1-.1.1.1Z"/><path class="b" d="M123.225,25.408c-.607.495-1.838.993-2.278.011A2.57,2.57,0,0,0,123.225,25.408Z"/><path class="h" d="M131.625,35.987c1.211,2.375,2.907,2.762,5.572,3.053v-.048C135.374,38.992,133.628,34.652,131.625,35.987Z"/><path class="h" d="M127.432,15.479c1.559,0-3.44-3.941-3.44-4.216h-.049C124.343,13.662,125.108,14.634,127.432,15.479Z"/><path class="h" d="M141.756,27.956c-5.634.664-1.823-3.441-1.823-2.5,1.1-.157-.309-2.467-2.118-1.28-1.523,1-1.878,2.679-.4,4.042,0-.5,3.3.529,3.634.533a4.385,4.385,0,0,0,4.458-4.313C144.484,25.227,144.009,27.691,141.756,27.956Z"/><path class="h" d="M141.094,10.294l0,0c-3.448,0-11.308-2.55-6.542-7.317,1.57,4.934,8-2.358,9.11,2.762,3.039-5.47-7.733-6.775-10.336-2.465-2.23,3.693.374,6,3.548,7.023h-10.8c.923.366,3.339,5.422,1.441,5.422,1.666,2.593,1.355,12.012-1.441,13.7,1.14-.3,6.926-1.907,7.144.569-.666,1.5-2.128,3.983-2.891,5.244-.576-.764-2.943-2.2-2.943-.742,0,.393,2.111.839,2.826.926-1.427,2.27-3.461,3.882-7.582,3.95-2.782.045-9.124-3.367-4.188-5.768,1.138-.553,3.215-.323,3.957.857,1.3,2.066-1.215,2.092-1.215,1.634-1.29.43.374,1.452.92,1.551,3.137.566,2.585-2.879,1.194-4.119-2.986-2.659-8.921.315-6.564,4.232,2.069,3.438,8.524,2.134,11.339.587A13.908,13.908,0,0,0,134.7,27.007c-.035.061-.068.122-.1.183a45.015,45.015,0,0,0-.021-4.72c3.8,0,8.388-.841,10.756,2V18.047h-10.66V14.8c3.8,0,10.035-1.189,13.083,1.647V10.294Z"/><path class="b" d="M133,13.758h-.1l-.146,5.039h.291Zm11.483,7.947h0v0Zm0,.145-.1.1.1.1.1-.1Zm-.727-.145h0v0Zm0,.145-.1.1.1.1.1-.1Zm-.726-.145h0v0Zm-.679,0h0c-.164.055-.594.122-.727,0a.888.888,0,0,1-.726,0c-.15.119-.487.048-.679.048v-.048a.89.89,0,0,1-.727,0,.888.888,0,0,1-.726,0,.89.89,0,0,1-.727,0,.89.89,0,0,1-.727,0,.89.89,0,0,1-.727,0,.89.89,0,0,1-.727,0,.888.888,0,0,1-.726,0,.89.89,0,0,1-.727,0,.549.549,0,0,1-.533,0,.092.092,0,0,1-.1.048c0,.146.057.377-.049.485a.267.267,0,0,1-.048.387c.133.082.1.2.1.339l-.145.1.145.1c0,.237,0,.246-.194.388.3.224.215.37-.048.581.14.113.3.181.242.388a.7.7,0,0,0-.242.194.626.626,0,0,0,.242.194V25.1a.628.628,0,0,0-.242.243c.073.1.124.2.242.242a.244.244,0,0,0,0,.485v.145h-.145a.465.465,0,0,0,0,.484h.145v.1l-.194.049a1.042,1.042,0,0,0,0,.484h.194v.1h-.194a1.046,1.046,0,0,0,0,.485h.145V28h-.193v.484h.145v.1h-.145v.388c-.147-.1-.1-.282-.1-.436-.194,0-.433.056-.582-.1h.582v-.533h-.63v.581l-.1-.048v-.485h-.63v.291h-.1v-.291h-.63v.194h-.1v-.194h-.63v.194h-.1v-.194h-.485V28.2h-.1v-.242h-.63v.291h-.1v-.291h-.63v.388h-.1c0-.191.1-.362.1-.533v.1h.533a1.02,1.02,0,0,0,0-.485h-.387v-.1a1.639,1.639,0,0,0,.339-.048,1.046,1.046,0,0,0,0-.485l-.242-.048h0v-.1h0l.242-.048a.467.467,0,0,0,0-.485l-.242-.048h0c.4-.16.4-.421,0-.582v-.1a.67.67,0,0,0,.339-.291.672.672,0,0,0-.339-.29v-.1a.837.837,0,0,0,.339-.242.83.83,0,0,0-.339-.243c-.013-.16.177-.244.29-.339l-.29-.242h0l.242-.242-.242-.243h0l.242-.194c-.248-.2-.32-.232-.049-.436-.1-.072-.211-.109-.193-.242l.145-.1-.145-.1a.187.187,0,0,1,.1-.194c-.105-.061-.131-.158-.049-.242a.119.119,0,0,1,0-.194.118.118,0,0,1,0-.193c-.155-.161-.048-.723-.048-.93V13.38a4.458,4.458,0,0,0-.679-2.626h18.8v3.78a12.551,12.551,0,0,0-5.7-.824h-7.578V18.6h10.9v3.585l-.145-.1-.146.1.146.1.145-.1v.291l-.145-.1-.049.048a3.4,3.4,0,0,0-1.356-.581,3.319,3.319,0,0,0-.679-.1h0Zm2.132-.146h0v0Zm-.727,0h0v0Zm-.726,0h0v0Zm-.679,0h0v0Zm-.727,0h0v0Zm-.678,0h0v0Zm-.727,0h0v0Zm-.678,0h0v0Zm-.727,0h0v0Zm-.727,0h0v0Zm6.4-.193h0v0Zm-.727,0h0v0Zm-.678,0h0v0Zm-.727,0h0v0Zm-.678,0h0v0Zm-.727,0h0v0Zm-.727,0h0v0Zm-.678,0h0v0Zm-.727,0h0v0Zm-.678,0h0v0Zm-4.943.339h0v0Zm0,.145-.1.1.1.1.1-.1Zm0,.242-.145.1.145.1.146-.1Zm0,.291-.193.145.193.146.194-.146Zm0,.388-.242.193.242.194.243-.194Zm0,.436-.242.242.242.242.291-.242Zm0,.533-.29.242.29.242.291-.242Zm0,.581a.837.837,0,0,0-.339.242.384.384,0,0,0,.679,0A.833.833,0,0,0,133.193,24.321Zm0,.63a.678.678,0,0,0-.339.291c.249.332.43.332.679,0A.677.677,0,0,0,133.193,24.951Zm0,.582c-.13.052-.339.1-.339.29,0,.143.208.291.339.291a.369.369,0,0,0,.332-.276C133.541,25.646,133.333,25.588,133.193,25.533Zm0,.581-.242.048a.469.469,0,0,0,0,.485,1.046,1.046,0,0,0,.485,0,.469.469,0,0,0,0-.485Zm0,.63-.242.048a1.046,1.046,0,0,0,0,.485,1.311,1.311,0,0,0,.533,0,1.046,1.046,0,0,0,0-.485Zm.243.581H132.9a1.046,1.046,0,0,0,0,.485h.533A1.046,1.046,0,0,0,133.436,27.325Zm-.969-5.62h0v0Zm0,.145-.1.1.1.1.1-.1Zm0,.242-.146.1.146.1.145-.1Zm0,.291-.194.145.194.146.193-.146Zm0,.388-.243.193.243.194.242-.194Zm0,.436-.243.242.243.242.29-.242Zm0,.533-.291.242.291.242.29-.242Zm0,.581a.84.84,0,0,0-.34.242.384.384,0,0,0,.679,0A.837.837,0,0,0,132.467,24.321Zm0,.63a.681.681,0,0,0-.34.291c.249.332.43.332.679,0A.674.674,0,0,0,132.467,24.951Zm0,.582c-.135.054-.317.095-.332.275s.178.272.332.258a.365.365,0,0,0,.324-.261C132.821,25.589,132.629,25.565,132.467,25.533Zm0,.581-.243.048a.469.469,0,0,0,0,.485,1.046,1.046,0,0,0,.485,0,.467.467,0,0,0,0-.485Zm0,.63-.243.048a1.046,1.046,0,0,0,0,.485,1.311,1.311,0,0,0,.533,0,1.02,1.02,0,0,0,0-.485Zm.29.581h-.533a1.046,1.046,0,0,0,0,.485h.533A1.02,1.02,0,0,0,132.757,27.325Zm-1.017-5.62h0v0Zm0,.145-.1.1.1.1.1-.1Zm0,.242-.146.1.146.1.145-.1Zm0,.291-.194.145.194.146.145-.146Zm0,.388-.242.193.242.194.242-.194Zm0,.436-.242.242.242.242.291-.242Zm0,.533-.291.242.291.242.291-.242Zm0,.581a.83.83,0,0,0-.339.242.383.383,0,0,0,.678,0A.837.837,0,0,0,131.74,24.321Zm0,.582a.672.672,0,0,0-.339.29c.249.332.429.332.678,0A.672.672,0,0,0,131.74,24.9Zm0,.63c-.269.107-.513.435-.085.547.369.1.435-.23.327-.5Zm0,.581-.242.048a.467.467,0,0,0,0,.485,1.042,1.042,0,0,0,.484,0,.467.467,0,0,0,0-.485Zm0,.63-.242.048a1.02,1.02,0,0,0,0,.485,1.311,1.311,0,0,0,.533,0,1.046,1.046,0,0,0,0-.485Zm.291.581H131.5a1.02,1.02,0,0,0,0,.485h.533A1.046,1.046,0,0,0,132.031,27.325Zm-.969-5.62h0v0Zm0,.145-.1.1.1.1.1-.1Zm0,.242-.146.1.146.1.145-.1Zm0,.291-.194.145.194.146.193-.146Zm0,.388-.243.193.243.194.242-.194Zm0,.436-.243.242.243.242.29-.242Zm0,.533-.291.242.291.242.29-.242Zm0,.581a.833.833,0,0,0-.34.242.384.384,0,0,0,.679,0A.837.837,0,0,0,131.062,24.321Zm0,.582a.675.675,0,0,0-.34.29c.249.332.43.332.679,0A.677.677,0,0,0,131.062,24.9Zm0,.63c-.131.052-.34.1-.34.29,0,.143.208.291.34.291a.369.369,0,0,0,.331-.276C131.409,25.646,131.2,25.588,131.062,25.533Zm0,.581-.243.048a.469.469,0,0,0,0,.485,1.046,1.046,0,0,0,.485,0,.469.469,0,0,0,0-.485Zm0,.581-.243.049a1.042,1.042,0,0,0,0,.484,1.277,1.277,0,0,0,.533,0,1.042,1.042,0,0,0,0-.484Zm.242.63h-.533a1.046,1.046,0,0,0,0,.485h.533A1.046,1.046,0,0,0,131.3,27.325Zm6.1-5.766h0v0Zm-.678,0h0v0Zm-.727,0h0v0Zm-.679,0h0v0Zm-.726,0h0v0Zm-.727,0h0v0Zm-.679,0h0v0Zm-.726,0h0v0Zm-.679,0h0v0Zm-.726,0h0v0Zm6.347-.193h0v0Zm-.678,0h0v0Zm-.727,0h0v0Zm-.679,0h0v0Zm-.726,0h0v0Zm-.679,0h0v0Zm-.727,0h0v0Zm-.726,0h0v0Zm-.679,0h0v0Zm-.726,0h0v0Zm-.679.339h0v0Zm0,.145-.1.1.1.1.1-.1Zm0,.242-.145.1.145.1.146-.1Zm0,.291-.194.145.194.146.194-.146Zm0,.388-.242.193.242.194.242-.194Zm0,.436-.242.242.242.242.291-.242Zm0,.533-.291.242.291.242.291-.242Zm0,.581a.837.837,0,0,0-.339.242.383.383,0,0,0,.678,0A.83.83,0,0,0,130.383,24.321Zm0,.582a.672.672,0,0,0-.339.29c.249.332.429.332.678,0A.672.672,0,0,0,130.383,24.9Zm0,.63c-.13.052-.339.1-.339.29,0,.143.208.291.339.291a.371.371,0,0,0,.332-.276C130.73,25.646,130.523,25.588,130.383,25.533Zm0,.581-.242.048a.467.467,0,0,0,0,.485,1.042,1.042,0,0,0,.484,0,.467.467,0,0,0,0-.485Zm0,.581-.242.049a1.042,1.042,0,0,0,0,.484,1.277,1.277,0,0,0,.533,0,1.042,1.042,0,0,0,0-.484Zm.242.63h-.533a1.046,1.046,0,0,0,0,.485h.485A2.32,2.32,0,0,0,130.625,27.325Zm-.969-5.62h0v0Zm0,.145-.1.1.1.1.1-.1Zm0,.242-.1.1.146.1.145-.1Zm0,.291-.193.145.193.146.194-.146Zm0,.339-.242.194.242.194.243-.194Zm0,.485-.242.242.242.242.291-.242Zm0,.484-.29.243.29.242.291-.242Zm0,.63a.837.837,0,0,0-.339.242.384.384,0,0,0,.679,0A.84.84,0,0,0,129.656,24.321Zm0,.582a.672.672,0,0,0-.339.29c.249.332.43.332.679,0A.679.679,0,0,0,129.656,24.9Zm0,.63c-.13.052-.339.1-.339.29,0,.143.208.291.339.291a.369.369,0,0,0,.332-.276C130,25.646,129.8,25.588,129.656,25.533Zm0,.581-.242.048a.467.467,0,0,0,0,.485,1.046,1.046,0,0,0,.485,0,.469.469,0,0,0,0-.485Zm0,.581-.242.049a1.042,1.042,0,0,0,0,.484,1.277,1.277,0,0,0,.533,0,1.042,1.042,0,0,0,0-.484Zm.291.63h-.533a1.046,1.046,0,0,0,0,.485h.533A1.046,1.046,0,0,0,129.947,27.325Zm.436-5.766h0v0Zm-.727,0h0v0Zm.727-.193h0v0Zm-.727,0h0v0Z"/><path class="b" d="M125.1,13.177c.533.484,1.744.969,2.229,2.035l-.243.048C126.6,14.34,125.489,13.71,125.1,13.177ZM135.18,2.565c2.039-1.586,4.957-1.047,7.026.194a7.251,7.251,0,0,0-6.881.1Zm3.876,22.192c-1.108.059-2.142,1.294-1.576,2.242a3.379,3.379,0,0,0,.962,1.123c.108.07-.24.018-.8-.312a1.044,1.044,0,0,1-.52-.684A1.861,1.861,0,0,1,139.056,24.757ZM121.617,37.081a1.651,1.651,0,0,0,2-1.693c-.11-1.119-1.335-1.82-2.247-2.232,1,.173,2.472,1.16,2.634,2.247.206,1.391-1.269,1.9-2.392,1.678Zm8.238-2.181c0-.208-.828-.441-.969-.484-.292-.089-.786-.237-1.018.048,0,.036,1.028.083,1.153.117A5.145,5.145,0,0,1,129.855,34.9Zm5.378,3.586a3.624,3.624,0,0,1-1.769-1.2,5.237,5.237,0,0,0-1.72-1.228.691.691,0,0,1,.7.081,3.241,3.241,0,0,1,.9.72A4.385,4.385,0,0,0,135.233,38.486Z"/><path class="i" d="M151.234,7.093c-.262-.787-3.3-2.85-3.3-1.163C148.026,6.539,150.834,6.843,151.234,7.093Z"/><path class="i" d="M176.236,17.559a4.726,4.726,0,0,0,3.683-4.652C179.454,13.519,175.09,16.8,176.236,17.559Z"/><path class="i" d="M158.26,31.271c-.437,1.061-1.992,2.958-4.007,2.09-4.652-2,.692-2.383.745-2.426-.364.3,1.784.088,1.372-.73a2.114,2.114,0,0,0-3.392-.436c-3.033,2.6,2.015,4.98,4.41,3.441-.966,2.2-4.417,4.34-6.784,2.848-3.3-2.08-.048-3.263-.048-5.562-3.054.353-4.087,3.437-1.708,5.457,2.933,2.492,7.913.4,9.121-2.889,2,4.574,6.059,1.473,8.286-.484C163.569,33.068,157.785,37.2,158.26,31.271Z"/><path class="i" d="M165.964,20.272c3.639.455,10.734-5.823,12.162,1.793-5.011-2.312-4,6.23-8.819,3.44,2.611,4.915,10.451,1.627,9.591-3.543C177.839,15.6,169.494,17.481,165.964,20.272Z"/><path class="i" d="M165.867,20.615c-2.128-.561-1.361-3.682-1.361-5.621,2.738-.1,5.7-.2,7.827,1.842V10.294H157.8a2.045,2.045,0,0,0-.23.031,6.718,6.718,0,0,1-3.888-1.439C150.6,4.264,156,7.44,156.2,7.384c3.593-1.016-3.542-5.354-3.876-.339-2.186-4.809,5.11-7.006,4.8-3.877,3.4-2.161,4.318,3.247,7.462,3.247v-.1c.056,0-2.858-5.178-3.984-5.693-2.667-1.221-6.5-.518-8.164,2.045-2.2,3.4.691,8.257,4.6,7.843a1.224,1.224,0,0,0-.3.217,37.007,37.007,0,0,0-7.536-.387c1.34,1.6.729,4.829.729,6.735,1.228-2.735,5.438-2.035,7.876-2.035V31.662c2.889-2.76,4.566-2.519,9.188-2.519C164.045,27.97,163.464,22.611,165.867,20.615Z"/><path class="b" d="M159.321,21.366h0v0Zm.727,0h0v0Zm.727,0h0v0Zm.678,0h0v0Zm.727,0h0v0Zm-2.859.193h0v0Zm.727,0h0v0Zm.679,0h0v0Zm.726,0h0v0Zm.727,0h0v0Zm-3.3,5.766h-.242v-.1l.242-.048a1.02,1.02,0,0,0,0-.485l-.242-.048v-.1c.366.008.363-.578,0-.581v.1a.243.243,0,1,0,0-.485v-.1c.155-.017.205-.127.291-.242-.086-.115-.136-.225-.291-.242v-.1a1.081,1.081,0,0,0,.291-.243,1.1,1.1,0,0,0-.291-.242c-.042-.175.132-.278.242-.388-.276-.276-.318-.326,0-.581-.255-.2-.331-.273-.048-.485-.114-.085-.238-.126-.194-.29l.145-.1-.145-.1a.21.21,0,0,1,.1-.242.181.181,0,0,1-.048-.291c-.178-.192-.049-.934-.049-1.178V14.1H155.55a14.122,14.122,0,0,0-4.756.533,13.528,13.528,0,0,0-.194-3.779h20.738v3.876c-2.419-1.008-5.276-.678-7.85-.678v6.672c0,.243.13.986-.048,1.177a.182.182,0,0,1-.048.291.211.211,0,0,1,.1.242l-.145.1.145.1c.045.164-.079.206-.193.291.283.212.206.281-.049.485.318.254.279.3,0,.581.111.111.288.209.242.388a1.07,1.07,0,0,0-.29.242,1.07,1.07,0,0,0,.29.242V25c-.155.017-.2.127-.29.242.086.115.135.225.29.242v.1a.243.243,0,1,0,0,.485v.1l-.242.049a.468.468,0,0,0,0,.484,1.453,1.453,0,0,0,.339.049l.049.1a1.62,1.62,0,0,0-.339.048,1.02,1.02,0,0,0,0,.485,1.042,1.042,0,0,0,.484,0,5.957,5.957,0,0,1,.194.63h.048l.049.1h-.145v.193h-.1V28.1h-.63v.193h-.1V28.1h-.63v.193h-.1V28.1h-.485v.193h-.1V28.1h-.63v.193h-.1V28.1h-.63v.242h-.1V28.1h-.63v.339h-.1v-.388h-.63v.533h.146c-.1.049-.146.049-.243.1h-.29v-.1h.29v-.533h-.29v-.1h.242A3.079,3.079,0,0,0,158.885,27.325Zm.727,0h-.533a1.046,1.046,0,0,0,0,.485h.533A1.046,1.046,0,0,0,159.612,27.325Zm-.291-.581-.29.048a1.046,1.046,0,0,0,0,.485,1.294,1.294,0,0,0,.533,0,1.046,1.046,0,0,0,0-.485Zm0-.582-.242.049a.468.468,0,0,0,0,.484,1.02,1.02,0,0,0,.485,0,.468.468,0,0,0,0-.484Zm0-.629c-.13.052-.339.1-.339.29,0,.143.208.291.339.291a.369.369,0,0,0,.332-.276C159.669,25.646,159.461,25.588,159.321,25.533Zm0-.582a.678.678,0,0,0-.339.291c.249.332.43.332.679,0A.677.677,0,0,0,159.321,24.951Zm0-.581a.827.827,0,0,0-.339.242.385.385,0,0,0,.679,0A.824.824,0,0,0,159.321,24.37Zm0-.63-.29.242.29.242.291-.242Zm0-.485-.29.242.29.243.243-.243Zm0-.484-.242.193.242.194.243-.194Zm0-.34-.193.146.193.145.194-.145Zm0-.339-.145.1.145.1.146-.1Zm0-.194-.1.1.1.1.1-.1Zm0-.145h0v0Zm.97,5.621h-.533a1.016,1.016,0,0,0,0,.484h.533A1.042,1.042,0,0,0,160.291,27.374Zm-.243-.63-.29.048a1.02,1.02,0,0,0,0,.485,1.294,1.294,0,0,0,.533,0,1.046,1.046,0,0,0,0-.485Zm0-.582-.242.049a.465.465,0,0,0,0,.484,1.02,1.02,0,0,0,.485,0,.47.47,0,0,0,0-.484Zm0-.629c-.13.052-.339.1-.339.29,0,.143.208.291.339.291a.369.369,0,0,0,.332-.276C160.4,25.646,160.188,25.588,160.048,25.533Zm0-.582a.674.674,0,0,0-.339.291c.249.332.43.332.678,0A.674.674,0,0,0,160.048,24.951Zm0-.581a.827.827,0,0,0-.339.242.384.384,0,0,0,.678,0A.821.821,0,0,0,160.048,24.37Zm0-.63-.29.242.29.242.291-.242Zm0-.485-.29.242.29.243.243-.243Zm0-.484-.242.193.242.194.243-.194Zm0-.34-.194.146.194.145.194-.145Zm0-.29-.145.1.145.1.146-.1Zm0-.243-.1.1.1.1.1-.1Zm0-.145h0v0Zm.969,5.621h-.533a1.042,1.042,0,0,0,0,.484h.533A1.042,1.042,0,0,0,161.017,27.374Zm-.29-.63-.291.048a2.389,2.389,0,0,0,.048.485,1.294,1.294,0,0,0,.533,0,1.046,1.046,0,0,0,0-.485Zm0-.582-.243.049a.468.468,0,0,0,0,.484,1.02,1.02,0,0,0,.485,0,.468.468,0,0,0,0-.484Zm0-.581c-.131.052-.34.1-.34.291,0,.143.208.29.34.29a.37.37,0,0,0,.331-.275C161.074,25.694,160.866,25.637,160.727,25.581Zm0-.63a.681.681,0,0,0-.34.291c.249.332.43.332.679,0A.678.678,0,0,0,160.727,24.951Zm0-.581a.435.435,0,0,0-.291.242.384.384,0,0,0,.678,0A.859.859,0,0,0,160.727,24.37Zm0-.582-.291.242.291.243.29-.243Zm0-.533-.291.242.291.243.242-.243Zm0-.436-.243.194.243.194.242-.194Zm0-.388-.194.146.194.145.193-.145Zm0-.29-.146.1.146.1.145-.1Zm0-.243-.1.1.1.1.1-.1Zm0-.145h0v0Zm.969,5.621h-.533a1.042,1.042,0,0,0,0,.484h.533A1.042,1.042,0,0,0,161.7,27.374Zm-.243-.63-.29.048a1.046,1.046,0,0,0,0,.485,1.294,1.294,0,0,0,.533,0,1.046,1.046,0,0,0,0-.485Zm0-.582-.242.049a.468.468,0,0,0,0,.484,1.02,1.02,0,0,0,.485,0,.468.468,0,0,0,0-.484Zm0-.581c-.13.052-.339.1-.339.291,0,.143.208.29.339.29a.37.37,0,0,0,.332-.275C161.8,25.694,161.593,25.637,161.453,25.581Zm0-.63a.678.678,0,0,0-.339.291c.249.332.43.332.679,0A.681.681,0,0,0,161.453,24.951Zm0-.581a.827.827,0,0,0-.339.242.385.385,0,0,0,.679,0A.824.824,0,0,0,161.453,24.37Zm0-.63-.29.242.29.242.291-.242Zm0-.485-.29.242.29.243.243-.243Zm0-.436-.242.194.242.194.243-.194Zm0-.388-.193.146.193.145.194-.145Zm0-.29-.145.1.145.1.146-.1Zm0-.243-.1.1.1.1.1-.1Zm0-.145h0v0Zm.969,5.621h-.533a1.042,1.042,0,0,0,0,.484h.533A1.016,1.016,0,0,0,162.422,27.374Zm-.29-.63-.291.048a1.046,1.046,0,0,0,0,.485,1.294,1.294,0,0,0,.533,0,1.046,1.046,0,0,0,0-.485Zm0-.582-.243.049a.47.47,0,0,0,0,.484,1.02,1.02,0,0,0,.485,0,.465.465,0,0,0,0-.484Zm0-.581c-.13.052-.339.1-.339.291,0,.143.207.29.339.29a.37.37,0,0,0,.331-.275C162.479,25.694,162.272,25.637,162.132,25.581Zm0-.63a.674.674,0,0,0-.339.291c.249.332.429.332.678,0C162.381,25.092,162.333,24.95,162.132,24.951Zm0-.581a.821.821,0,0,0-.339.242.384.384,0,0,0,.678,0A.827.827,0,0,0,162.132,24.37Zm0-.582-.291.242.291.243.29-.243Zm0-.533-.291.242.291.243.242-.243Zm0-.436-.243.194.243.194.242-.194Zm0-.388-.194.146.194.145.194-.145Zm0-.29-.146.1.146.1.145-.1Zm0-.243-.1.1.1.1.1-.1Zm0-.145h0v0Zm.727-.339h0v0Zm0,.194h0v0Zm.242,5.766h-.533a1.042,1.042,0,0,0,0,.484h.533A1.042,1.042,0,0,0,163.1,27.374Zm-.242-.63-.243.048a1.046,1.046,0,0,0,0,.485,1.311,1.311,0,0,0,.533,0,1.046,1.046,0,0,0,0-.485Zm0-.582-.243.049a.468.468,0,0,0,0,.484,1.02,1.02,0,0,0,.485,0,.468.468,0,0,0,0-.484Zm0-.581c-.131.052-.34.1-.34.291,0,.143.208.29.34.29a.37.37,0,0,0,.331-.275C163.206,25.694,163,25.637,162.859,25.581Zm0-.63a.677.677,0,0,0-.34.291c.249.332.43.332.679,0A.678.678,0,0,0,162.859,24.951Zm0-.581a.824.824,0,0,0-.34.242.385.385,0,0,0,.679,0A.827.827,0,0,0,162.859,24.37Zm0-.582-.291.242.291.243.29-.243Zm0-.533-.243.242.243.243.29-.243Zm0-.436-.243.194.243.145.242-.194Zm0-.388-.194.146.194.145.193-.145Zm0-.29-.146.1.146.1.145-.1Zm0-.243-.1.1.1.1.1-.1Zm0-.145h0v0Zm.969,5.621h-.533a1.016,1.016,0,0,0,0,.484h.533A1.042,1.042,0,0,0,163.828,27.374Zm-1.115-13.228h-.1l-.145,6.638h.291Z"/><path class="b" d="M178.073,22.771c0,1.986-2.326,3.634-5.136,3.973,2.471-.582,4.458-2.084,4.748-4.07ZM157.529,2.517a1.959,1.959,0,0,0-.436-.969c.541.155.767.472.436.969ZM163.2,5.376c-2.326-3.731-3-4.409-6.978-4.6a6.2,6.2,0,0,1,4.653.983,10.393,10.393,0,0,1,2.325,3.62Zm-13.18,25.535a3.55,3.55,0,0,0-1.7,2.616,3.451,3.451,0,0,0,1.551,2.568,3.518,3.518,0,0,1-1.839-2.469c-.058-1.185,1.017-2.131,1.887-2.764Zm11.968,3.973a6.673,6.673,0,0,1,3.005-1.841,8.4,8.4,0,0,1-3.005,1.841Zm14.633-17.831c0-.622.962-1.263,1.4-1.588a6.835,6.835,0,0,0,1.464-1.222A9.661,9.661,0,0,1,176.619,17.053ZM156.366,6.345c-.717-1.229-3.1-1.212-3.683.145a2.074,2.074,0,0,1,2.441-1.338,2.4,2.4,0,0,1,1.268.541c.218.193.53.652-.026.652Zm-.824,24.227a1.767,1.767,0,0,0-3.053.678,1.753,1.753,0,0,1,1.455-1.625,2.327,2.327,0,0,1,1.287.134c.151.066.585.261.65.425.083.208-.178.356-.339.388Z"/></svg>