<svg xmlns="http://www.w3.org/2000/svg" xmlns:xlink="http://www.w3.org/1999/xlink" width="30" height="30" viewBox="0 0 30 30"><defs><clipPath id="a"><rect width="30" height="30" fill="none"/></clipPath><clipPath id="b"><rect width="30" height="30" fill="#80c3dc"/></clipPath></defs><g clip-path="url(#a)"><g clip-path="url(#b)"><circle cx="15" cy="15" r="15" fill="#80c3dc"/><g fill="none" stroke="#000" stroke-linejoin="round" stroke-width="1.2" stroke-dasharray="3 0" opacity="0.35"><circle cx="15" cy="15" r="15" stroke="none"/><circle cx="15" cy="15" r="14.4" fill="none"/></g><path d="M11.017,2a9.026,9.026,0,1,0,9.035,9.026A9.021,9.021,0,0,0,11.017,2Zm6.255,5.415H14.609A14.124,14.124,0,0,0,13.363,4.2,7.247,7.247,0,0,1,17.271,7.415ZM11.026,3.841a12.714,12.714,0,0,1,1.724,3.574H9.3A12.714,12.714,0,0,1,11.026,3.841ZM4.04,12.831a7.06,7.06,0,0,1,0-3.61H7.09a14.906,14.906,0,0,0-.126,1.805,14.906,14.906,0,0,0,.126,1.805Zm.74,1.805H7.442a14.124,14.124,0,0,0,1.246,3.213A7.209,7.209,0,0,1,4.78,14.636Zm2.663-7.22H4.78A7.209,7.209,0,0,1,8.688,4.2,14.124,14.124,0,0,0,7.442,7.415ZM11.026,18.21A12.714,12.714,0,0,1,9.3,14.636h3.448A12.714,12.714,0,0,1,11.026,18.21Zm2.112-5.379H8.914a13.279,13.279,0,0,1-.144-1.805A13.164,13.164,0,0,1,8.914,9.22h4.224a13.164,13.164,0,0,1,.144,1.805A13.279,13.279,0,0,1,13.138,12.831Zm.226,5.018a14.124,14.124,0,0,0,1.246-3.213h2.663A7.247,7.247,0,0,1,13.363,17.849Zm1.6-5.018a14.906,14.906,0,0,0,.126-1.805,14.906,14.906,0,0,0-.126-1.805h3.051a7.06,7.06,0,0,1,0,3.61Z" transform="translate(3.974 3.974)" opacity="0.5"/></g></g></svg>