<svg xmlns="http://www.w3.org/2000/svg" xmlns:xlink="http://www.w3.org/1999/xlink" width="30" height="30" viewBox="0 0 30 30"><defs><clipPath id="a"><rect width="30" height="30" fill="none"/></clipPath></defs><g clip-path="url(#a)"><g clip-path="url(#a)"><circle cx="15" cy="15" r="15" fill="#d6dc80"/><g fill="none" stroke="#000" stroke-linejoin="round" stroke-width="1.2" stroke-dasharray="3 0" opacity="0.35"><circle cx="15" cy="15" r="15" stroke="none"/><circle cx="15" cy="15" r="14.4" fill="none"/></g><path d="M15.184,5.307v9.907a3.446,3.446,0,0,1-6.892,0V4.446a2.154,2.154,0,1,1,4.307,0v9.045a.861.861,0,1,1-1.723,0V5.307H9.584v8.184a2.154,2.154,0,1,0,4.307,0V4.446A3.446,3.446,0,1,0,7,4.446V15.214a4.738,4.738,0,0,0,9.476,0V5.307Z" transform="translate(3.762 4.524)" opacity="0.5"/></g></g></svg>