<svg xmlns="http://www.w3.org/2000/svg" xmlns:xlink="http://www.w3.org/1999/xlink" width="30" height="30" viewBox="0 0 30 30"><defs><clipPath id="a"><rect width="30" height="30" fill="none"/></clipPath></defs><g clip-path="url(#a)"><g clip-path="url(#a)"><circle cx="15" cy="15" r="15" fill="#dcca80"/><g fill="none" stroke="#000" stroke-linejoin="round" stroke-width="1.2" stroke-dasharray="3 0" opacity="0.35"><circle cx="15" cy="15" r="15" stroke="none"/><circle cx="15" cy="15" r="14.4" fill="none"/></g><path d="M16.882,11.676v4.338a.87.87,0,0,1-.868.868H5.6a.87.87,0,0,1-.868-.868V11.676a.868.868,0,0,0-1.735,0v5.206a1.74,1.74,0,0,0,1.735,1.735H16.882a1.74,1.74,0,0,0,1.735-1.735V11.676a.868.868,0,1,0-1.735,0Zm-5.206-.286,1.631-1.631a.865.865,0,0,1,1.223,1.223L11.416,14.1a.864.864,0,0,1-1.223,0L7.078,10.982A.865.865,0,0,1,8.3,9.759l1.64,1.631V3.868a.868.868,0,1,1,1.735,0Z" transform="translate(4.192 4.192)" opacity="0.5"/></g></g></svg>