<svg xmlns="http://www.w3.org/2000/svg" xmlns:xlink="http://www.w3.org/1999/xlink" width="30" height="30" viewBox="0 0 30 30"><defs><clipPath id="a"><rect width="30" height="30" fill="none"/></clipPath></defs><g clip-path="url(#a)"><g clip-path="url(#a)"><circle cx="15" cy="15" r="15" fill="#80dcb1"/><g fill="none" stroke="#000" stroke-linejoin="round" stroke-width="1.2" stroke-dasharray="3 0" opacity="0.35"><circle cx="15" cy="15" r="15" stroke="none"/><circle cx="15" cy="15" r="14.4" fill="none"/></g><path d="M19.532,13.045a7.839,7.839,0,0,0,.07-.986,7.84,7.84,0,0,0-.07-.986l2.122-1.66a.507.507,0,0,0,.121-.644l-2.012-3.48a.5.5,0,0,0-.443-.251.47.47,0,0,0-.171.03l-2.5,1.006a7.349,7.349,0,0,0-1.7-.986l-.382-2.666A.491.491,0,0,0,14.069,2H10.046a.491.491,0,0,0-.493.422L9.171,5.088a7.728,7.728,0,0,0-1.7.986l-2.5-1.006a.57.57,0,0,0-.181-.03.5.5,0,0,0-.433.251L2.34,8.77a.5.5,0,0,0,.121.644l2.122,1.66a7.978,7.978,0,0,0-.07.986,7.978,7.978,0,0,0,.07.986L2.461,14.7a.507.507,0,0,0-.121.644l2.012,3.48a.5.5,0,0,0,.443.251.47.47,0,0,0,.171-.03l2.5-1.006a7.349,7.349,0,0,0,1.7.986L9.553,21.7a.491.491,0,0,0,.493.422h4.024a.491.491,0,0,0,.493-.422l.382-2.666a7.728,7.728,0,0,0,1.7-.986l2.5,1.006a.57.57,0,0,0,.181.03.5.5,0,0,0,.433-.251l2.012-3.48a.507.507,0,0,0-.121-.644Zm-1.992-1.72a5.374,5.374,0,0,1,.05.734c0,.211-.02.433-.05.734L17.4,13.93l.9.7,1.086.845-.7,1.217L17.4,16.184l-1.046-.422-.905.684a5.891,5.891,0,0,1-1.257.734l-1.066.433-.161,1.137-.2,1.358H11.353l-.191-1.358L11,17.612l-1.066-.433A5.707,5.707,0,0,1,8.7,16.465l-.915-.7-1.066.433-1.278.513-.7-1.217,1.086-.845.9-.7L6.575,12.8c-.03-.312-.05-.543-.05-.744s.02-.433.05-.734l.141-1.137-.9-.7L4.735,8.639l.7-1.217,1.278.513,1.046.422.905-.684a5.891,5.891,0,0,1,1.257-.734l1.066-.433.161-1.137.2-1.358h1.4l.191,1.358L13.1,6.507l1.066.433a5.707,5.707,0,0,1,1.237.714l.915.7,1.066-.433,1.278-.513.7,1.217-1.076.855-.9.7.141,1.137ZM12.058,8.036a4.024,4.024,0,1,0,4.024,4.024A4.023,4.023,0,0,0,12.058,8.036Zm0,6.036a2.012,2.012,0,1,1,2.012-2.012A2.018,2.018,0,0,1,12.058,14.071Z" transform="translate(27.057 2.945) rotate(90)" opacity="0.5"/></g></g></svg>